<mxfile host="app.diagrams.net" agent="Mozilla/5.0 (Windows NT 10.0; Win64; x64) AppleWebKit/537.36 (KHTML, like Gecko) Chrome/136.0.0.0 Safari/537.36 Edg/136.0.0.0" version="27.1.1" pages="9">
  <diagram name="Phân cấp chức năng" id="_n4B84nu8X2jc_6iNdUY">
    <mxGraphModel grid="0" page="1" gridSize="10" guides="1" tooltips="1" connect="1" arrows="1" fold="1" pageScale="1" pageWidth="827" pageHeight="1169" math="0" shadow="0">
      <root>
        <mxCell id="0" />
        <mxCell id="1" parent="0" />
        <mxCell id="e5DzJvZXWIPCXWis4og--44" value="&lt;font style=&quot;font-size: 24px;&quot;&gt;&lt;b style=&quot;&quot;&gt;QUẢN LÝ THƯ VIỆN&lt;/b&gt;&lt;/font&gt;" style="rounded=0;whiteSpace=wrap;html=1;" parent="1" vertex="1">
          <mxGeometry x="718" y="250" width="350" height="60" as="geometry" />
        </mxCell>
        <mxCell id="e5DzJvZXWIPCXWis4og--45" value="Quản lý thông báo" style="rounded=0;whiteSpace=wrap;html=1;" parent="1" vertex="1">
          <mxGeometry x="1614" y="370" width="180" height="60" as="geometry" />
        </mxCell>
        <mxCell id="e5DzJvZXWIPCXWis4og--46" value="Quản lý kho &amp;amp; nhập sách" style="rounded=0;whiteSpace=wrap;html=1;" parent="1" vertex="1">
          <mxGeometry x="1223" y="370" width="180" height="60" as="geometry" />
        </mxCell>
        <mxCell id="e5DzJvZXWIPCXWis4og--47" value="Quản lý đặt phòng" style="rounded=0;whiteSpace=wrap;html=1;" parent="1" vertex="1">
          <mxGeometry x="803" y="370" width="180" height="60" as="geometry" />
        </mxCell>
        <mxCell id="e5DzJvZXWIPCXWis4og--48" value="Quản lý mượn / trả" style="rounded=0;whiteSpace=wrap;html=1;" parent="1" vertex="1">
          <mxGeometry x="495" y="370" width="180" height="60" as="geometry" />
        </mxCell>
        <mxCell id="e5DzJvZXWIPCXWis4og--49" value="Quản lý bạn đọc" style="rounded=0;whiteSpace=wrap;html=1;" parent="1" vertex="1">
          <mxGeometry x="169" y="370" width="180" height="60" as="geometry" />
        </mxCell>
        <mxCell id="e5DzJvZXWIPCXWis4og--77" value="" style="endArrow=none;html=1;rounded=0;entryX=0.514;entryY=1;entryDx=0;entryDy=0;entryPerimeter=0;" parent="1" edge="1">
          <mxGeometry width="50" height="50" relative="1" as="geometry">
            <mxPoint x="892.73" y="370" as="sourcePoint" />
            <mxPoint x="892.6300000000001" y="310" as="targetPoint" />
            <Array as="points" />
          </mxGeometry>
        </mxCell>
        <mxCell id="gLcyVrvfrJAAX0wr8fs8-12" value="" style="endArrow=none;html=1;rounded=0;" parent="1" edge="1">
          <mxGeometry width="50" height="50" relative="1" as="geometry">
            <mxPoint x="577" y="340" as="sourcePoint" />
            <mxPoint x="577" y="370" as="targetPoint" />
          </mxGeometry>
        </mxCell>
        <mxCell id="gLcyVrvfrJAAX0wr8fs8-13" value="" style="endArrow=none;html=1;rounded=0;entryX=0.5;entryY=0;entryDx=0;entryDy=0;" parent="1" target="e5DzJvZXWIPCXWis4og--46" edge="1">
          <mxGeometry width="50" height="50" relative="1" as="geometry">
            <mxPoint x="1313" y="340" as="sourcePoint" />
            <mxPoint x="1033" y="610" as="targetPoint" />
          </mxGeometry>
        </mxCell>
        <mxCell id="gLcyVrvfrJAAX0wr8fs8-14" value="" style="endArrow=none;html=1;rounded=0;entryX=0.5;entryY=0;entryDx=0;entryDy=0;" parent="1" target="e5DzJvZXWIPCXWis4og--45" edge="1">
          <mxGeometry width="50" height="50" relative="1" as="geometry">
            <mxPoint x="1704" y="340" as="sourcePoint" />
            <mxPoint x="1134" y="610" as="targetPoint" />
          </mxGeometry>
        </mxCell>
        <mxCell id="kTkNBQ2CiYqTOgItUUKi-1" value="" style="endArrow=none;html=1;rounded=0;" parent="1" edge="1">
          <mxGeometry width="50" height="50" relative="1" as="geometry">
            <mxPoint x="261" y="370" as="sourcePoint" />
            <mxPoint x="261" y="340" as="targetPoint" />
          </mxGeometry>
        </mxCell>
        <mxCell id="ZPYQmzOVZjz4x_GkIz7X-48" value="Bạn đọc" style="rounded=0;whiteSpace=wrap;html=1;" vertex="1" parent="1">
          <mxGeometry x="100" y="469" width="120" height="60" as="geometry" />
        </mxCell>
        <mxCell id="ZPYQmzOVZjz4x_GkIz7X-49" value="Vi phạm" style="rounded=0;whiteSpace=wrap;html=1;" vertex="1" parent="1">
          <mxGeometry x="290" y="469" width="120" height="60" as="geometry" />
        </mxCell>
        <mxCell id="ZPYQmzOVZjz4x_GkIz7X-51" value="" style="endArrow=none;html=1;rounded=0;entryX=0.5;entryY=0;entryDx=0;entryDy=0;" edge="1" parent="1" target="ZPYQmzOVZjz4x_GkIz7X-48">
          <mxGeometry width="50" height="50" relative="1" as="geometry">
            <mxPoint x="160" y="447" as="sourcePoint" />
            <mxPoint x="642" y="517" as="targetPoint" />
          </mxGeometry>
        </mxCell>
        <mxCell id="ZPYQmzOVZjz4x_GkIz7X-52" value="" style="endArrow=none;html=1;rounded=0;entryX=0.5;entryY=0;entryDx=0;entryDy=0;" edge="1" parent="1">
          <mxGeometry width="50" height="50" relative="1" as="geometry">
            <mxPoint x="349.88" y="447" as="sourcePoint" />
            <mxPoint x="349.88" y="469" as="targetPoint" />
          </mxGeometry>
        </mxCell>
        <mxCell id="ZPYQmzOVZjz4x_GkIz7X-53" value="" style="endArrow=none;html=1;rounded=0;" edge="1" parent="1">
          <mxGeometry width="50" height="50" relative="1" as="geometry">
            <mxPoint x="160" y="447" as="sourcePoint" />
            <mxPoint x="350" y="447" as="targetPoint" />
          </mxGeometry>
        </mxCell>
        <mxCell id="ZPYQmzOVZjz4x_GkIz7X-54" value="Phiếu mượn" style="rounded=0;whiteSpace=wrap;html=1;" vertex="1" parent="1">
          <mxGeometry x="444" y="469" width="120" height="60" as="geometry" />
        </mxCell>
        <mxCell id="ZPYQmzOVZjz4x_GkIz7X-55" value="Chi tiết mượn" style="rounded=0;whiteSpace=wrap;html=1;" vertex="1" parent="1">
          <mxGeometry x="616" y="469" width="120" height="60" as="geometry" />
        </mxCell>
        <mxCell id="ZPYQmzOVZjz4x_GkIz7X-57" value="" style="endArrow=none;html=1;rounded=0;entryX=0.5;entryY=0;entryDx=0;entryDy=0;" edge="1" parent="1">
          <mxGeometry width="50" height="50" relative="1" as="geometry">
            <mxPoint x="503.78999999999996" y="447" as="sourcePoint" />
            <mxPoint x="503.78999999999996" y="469" as="targetPoint" />
          </mxGeometry>
        </mxCell>
        <mxCell id="ZPYQmzOVZjz4x_GkIz7X-58" value="" style="endArrow=none;html=1;rounded=0;entryX=0.5;entryY=0;entryDx=0;entryDy=0;" edge="1" parent="1">
          <mxGeometry width="50" height="50" relative="1" as="geometry">
            <mxPoint x="675.79" y="447" as="sourcePoint" />
            <mxPoint x="675.79" y="469" as="targetPoint" />
          </mxGeometry>
        </mxCell>
        <mxCell id="ZPYQmzOVZjz4x_GkIz7X-59" value="" style="endArrow=none;html=1;rounded=0;" edge="1" parent="1">
          <mxGeometry width="50" height="50" relative="1" as="geometry">
            <mxPoint x="504" y="447" as="sourcePoint" />
            <mxPoint x="675" y="447" as="targetPoint" />
          </mxGeometry>
        </mxCell>
        <mxCell id="ZPYQmzOVZjz4x_GkIz7X-60" value="" style="endArrow=none;html=1;rounded=0;entryX=0.25;entryY=1;entryDx=0;entryDy=0;" edge="1" parent="1">
          <mxGeometry width="50" height="50" relative="1" as="geometry">
            <mxPoint x="581" y="447" as="sourcePoint" />
            <mxPoint x="581" y="430" as="targetPoint" />
          </mxGeometry>
        </mxCell>
        <mxCell id="ZPYQmzOVZjz4x_GkIz7X-61" value="Phòng" style="rounded=0;whiteSpace=wrap;html=1;" vertex="1" parent="1">
          <mxGeometry x="761" y="469" width="120" height="60" as="geometry" />
        </mxCell>
        <mxCell id="ZPYQmzOVZjz4x_GkIz7X-62" value="Chi tiết đặt phòng" style="rounded=0;whiteSpace=wrap;html=1;" vertex="1" parent="1">
          <mxGeometry x="912" y="469" width="120" height="60" as="geometry" />
        </mxCell>
        <mxCell id="ZPYQmzOVZjz4x_GkIz7X-67" value="" style="endArrow=none;html=1;rounded=0;entryX=0.5;entryY=0;entryDx=0;entryDy=0;" edge="1" parent="1">
          <mxGeometry width="50" height="50" relative="1" as="geometry">
            <mxPoint x="808" y="447" as="sourcePoint" />
            <mxPoint x="808" y="469" as="targetPoint" />
          </mxGeometry>
        </mxCell>
        <mxCell id="ZPYQmzOVZjz4x_GkIz7X-68" value="" style="endArrow=none;html=1;rounded=0;entryX=0.5;entryY=0;entryDx=0;entryDy=0;" edge="1" parent="1">
          <mxGeometry width="50" height="50" relative="1" as="geometry">
            <mxPoint x="980" y="447" as="sourcePoint" />
            <mxPoint x="980" y="469" as="targetPoint" />
          </mxGeometry>
        </mxCell>
        <mxCell id="ZPYQmzOVZjz4x_GkIz7X-69" value="" style="endArrow=none;html=1;rounded=0;" edge="1" parent="1">
          <mxGeometry width="50" height="50" relative="1" as="geometry">
            <mxPoint x="808.21" y="447" as="sourcePoint" />
            <mxPoint x="979.21" y="447" as="targetPoint" />
          </mxGeometry>
        </mxCell>
        <mxCell id="ZPYQmzOVZjz4x_GkIz7X-70" value="" style="endArrow=none;html=1;rounded=0;entryX=0.25;entryY=1;entryDx=0;entryDy=0;" edge="1" parent="1">
          <mxGeometry width="50" height="50" relative="1" as="geometry">
            <mxPoint x="892.69" y="447" as="sourcePoint" />
            <mxPoint x="892.69" y="430" as="targetPoint" />
          </mxGeometry>
        </mxCell>
        <mxCell id="ZPYQmzOVZjz4x_GkIz7X-71" value="Kho" style="rounded=0;whiteSpace=wrap;html=1;" vertex="1" parent="1">
          <mxGeometry x="1052" y="469" width="120" height="60" as="geometry" />
        </mxCell>
        <mxCell id="ZPYQmzOVZjz4x_GkIz7X-72" value="Phiếu nhập" style="rounded=0;whiteSpace=wrap;html=1;" vertex="1" parent="1">
          <mxGeometry x="1195" y="469" width="120" height="60" as="geometry" />
        </mxCell>
        <mxCell id="ZPYQmzOVZjz4x_GkIz7X-73" value="Nhà cung cấp" style="rounded=0;whiteSpace=wrap;html=1;" vertex="1" parent="1">
          <mxGeometry x="1338" y="469" width="120" height="60" as="geometry" />
        </mxCell>
        <mxCell id="ZPYQmzOVZjz4x_GkIz7X-74" value="Sách" style="rounded=0;whiteSpace=wrap;html=1;" vertex="1" parent="1">
          <mxGeometry x="1481" y="469" width="120" height="60" as="geometry" />
        </mxCell>
        <mxCell id="ZPYQmzOVZjz4x_GkIz7X-75" value="Thông báo" style="rounded=0;whiteSpace=wrap;html=1;" vertex="1" parent="1">
          <mxGeometry x="1647" y="469" width="120" height="60" as="geometry" />
        </mxCell>
        <mxCell id="ZPYQmzOVZjz4x_GkIz7X-77" value="" style="endArrow=none;html=1;rounded=0;" edge="1" parent="1">
          <mxGeometry width="50" height="50" relative="1" as="geometry">
            <mxPoint x="261" y="340" as="sourcePoint" />
            <mxPoint x="1704" y="340" as="targetPoint" />
          </mxGeometry>
        </mxCell>
        <mxCell id="ZPYQmzOVZjz4x_GkIz7X-78" value="" style="endArrow=none;html=1;rounded=0;entryX=0.25;entryY=1;entryDx=0;entryDy=0;" edge="1" parent="1">
          <mxGeometry width="50" height="50" relative="1" as="geometry">
            <mxPoint x="256" y="447" as="sourcePoint" />
            <mxPoint x="256" y="430" as="targetPoint" />
          </mxGeometry>
        </mxCell>
        <mxCell id="ZPYQmzOVZjz4x_GkIz7X-79" value="" style="endArrow=none;html=1;rounded=0;entryX=0.5;entryY=0;entryDx=0;entryDy=0;" edge="1" parent="1">
          <mxGeometry width="50" height="50" relative="1" as="geometry">
            <mxPoint x="1111.66" y="447" as="sourcePoint" />
            <mxPoint x="1111.66" y="469" as="targetPoint" />
          </mxGeometry>
        </mxCell>
        <mxCell id="ZPYQmzOVZjz4x_GkIz7X-80" value="" style="endArrow=none;html=1;rounded=0;entryX=0.5;entryY=0;entryDx=0;entryDy=0;" edge="1" parent="1">
          <mxGeometry width="50" height="50" relative="1" as="geometry">
            <mxPoint x="1257" y="447" as="sourcePoint" />
            <mxPoint x="1257" y="469" as="targetPoint" />
          </mxGeometry>
        </mxCell>
        <mxCell id="ZPYQmzOVZjz4x_GkIz7X-81" value="" style="endArrow=none;html=1;rounded=0;entryX=0.5;entryY=0;entryDx=0;entryDy=0;" edge="1" parent="1">
          <mxGeometry width="50" height="50" relative="1" as="geometry">
            <mxPoint x="1397.66" y="447" as="sourcePoint" />
            <mxPoint x="1397.66" y="469" as="targetPoint" />
          </mxGeometry>
        </mxCell>
        <mxCell id="ZPYQmzOVZjz4x_GkIz7X-82" value="" style="endArrow=none;html=1;rounded=0;entryX=0.5;entryY=0;entryDx=0;entryDy=0;" edge="1" parent="1">
          <mxGeometry width="50" height="50" relative="1" as="geometry">
            <mxPoint x="1540.66" y="447" as="sourcePoint" />
            <mxPoint x="1540.66" y="469" as="targetPoint" />
          </mxGeometry>
        </mxCell>
        <mxCell id="ZPYQmzOVZjz4x_GkIz7X-83" value="" style="endArrow=none;html=1;rounded=0;" edge="1" parent="1">
          <mxGeometry width="50" height="50" relative="1" as="geometry">
            <mxPoint x="1541" y="447" as="sourcePoint" />
            <mxPoint x="1111" y="447" as="targetPoint" />
          </mxGeometry>
        </mxCell>
        <mxCell id="ZPYQmzOVZjz4x_GkIz7X-84" value="" style="endArrow=none;html=1;rounded=0;entryX=0.25;entryY=1;entryDx=0;entryDy=0;" edge="1" parent="1">
          <mxGeometry width="50" height="50" relative="1" as="geometry">
            <mxPoint x="1312.66" y="447" as="sourcePoint" />
            <mxPoint x="1312.66" y="430" as="targetPoint" />
          </mxGeometry>
        </mxCell>
        <mxCell id="ZPYQmzOVZjz4x_GkIz7X-85" value="" style="endArrow=none;html=1;rounded=0;entryX=0.5;entryY=1;entryDx=0;entryDy=0;exitX=0.476;exitY=0.001;exitDx=0;exitDy=0;exitPerimeter=0;" edge="1" parent="1" source="ZPYQmzOVZjz4x_GkIz7X-75" target="e5DzJvZXWIPCXWis4og--45">
          <mxGeometry width="50" height="50" relative="1" as="geometry">
            <mxPoint x="1704" y="467" as="sourcePoint" />
            <mxPoint x="1725" y="451" as="targetPoint" />
          </mxGeometry>
        </mxCell>
        <mxCell id="ZPYQmzOVZjz4x_GkIz7X-86" value="Quản lý danh sách bạn đọc" style="rounded=0;whiteSpace=wrap;html=1;" vertex="1" parent="1">
          <mxGeometry x="80" y="568" width="120" height="60" as="geometry" />
        </mxCell>
        <mxCell id="ZPYQmzOVZjz4x_GkIz7X-87" value="Lưu trữ thông tin&amp;nbsp;&lt;div&gt;bạn đọc&lt;/div&gt;" style="rounded=0;whiteSpace=wrap;html=1;" vertex="1" parent="1">
          <mxGeometry x="80" y="667" width="120" height="60" as="geometry" />
        </mxCell>
        <mxCell id="ZPYQmzOVZjz4x_GkIz7X-88" value="Quản lý thẻ&lt;div&gt;bạn đọc&lt;/div&gt;" style="rounded=0;whiteSpace=wrap;html=1;" vertex="1" parent="1">
          <mxGeometry x="80" y="766" width="120" height="60" as="geometry" />
        </mxCell>
        <mxCell id="ZPYQmzOVZjz4x_GkIz7X-89" value="Ghi nhận các&amp;nbsp;&lt;div&gt;vi phạm&lt;/div&gt;" style="rounded=0;whiteSpace=wrap;html=1;" vertex="1" parent="1">
          <mxGeometry x="279" y="568" width="120" height="60" as="geometry" />
        </mxCell>
        <mxCell id="ZPYQmzOVZjz4x_GkIz7X-90" value=" Xử lý mức phạt, tình trạng xử lý" style="rounded=0;whiteSpace=wrap;html=1;" vertex="1" parent="1">
          <mxGeometry x="279" y="667" width="120" height="60" as="geometry" />
        </mxCell>
        <mxCell id="ZPYQmzOVZjz4x_GkIz7X-91" value="Quản lý lịch sử vi phạm" style="rounded=0;whiteSpace=wrap;html=1;" vertex="1" parent="1">
          <mxGeometry x="279" y="766" width="120" height="60" as="geometry" />
        </mxCell>
        <mxCell id="ZPYQmzOVZjz4x_GkIz7X-92" value="Lập phiếu mượn cho bạn đọc, ghi rõ ngày mượn, hạn trả" style="rounded=0;whiteSpace=wrap;html=1;" vertex="1" parent="1">
          <mxGeometry x="444" y="568" width="120" height="60" as="geometry" />
        </mxCell>
        <mxCell id="ZPYQmzOVZjz4x_GkIz7X-93" value="Quản lý trạng thái mượn" style="rounded=0;whiteSpace=wrap;html=1;" vertex="1" parent="1">
          <mxGeometry x="444" y="667" width="120" height="60" as="geometry" />
        </mxCell>
        <mxCell id="ZPYQmzOVZjz4x_GkIz7X-95" value="Ghi rõ từng đầu sách đã mượn trong mỗi phiếu mượn" style="rounded=0;whiteSpace=wrap;html=1;" vertex="1" parent="1">
          <mxGeometry x="616" y="568" width="120" height="60" as="geometry" />
        </mxCell>
        <mxCell id="ZPYQmzOVZjz4x_GkIz7X-96" value="Chi tiết thông tin mượn" style="rounded=0;whiteSpace=wrap;html=1;" vertex="1" parent="1">
          <mxGeometry x="616" y="667" width="120" height="60" as="geometry" />
        </mxCell>
        <mxCell id="ZPYQmzOVZjz4x_GkIz7X-97" value="Hỗ trợ quản lý&amp;nbsp;&lt;div&gt;hoàn trả&lt;/div&gt;" style="rounded=0;whiteSpace=wrap;html=1;" vertex="1" parent="1">
          <mxGeometry x="616" y="766" width="120" height="60" as="geometry" />
        </mxCell>
        <mxCell id="ZPYQmzOVZjz4x_GkIz7X-98" value="Quản lý danh sách phòng học nhóm trong thư viện" style="rounded=0;whiteSpace=wrap;html=1;" vertex="1" parent="1">
          <mxGeometry x="761" y="568" width="120" height="60" as="geometry" />
        </mxCell>
        <mxCell id="ZPYQmzOVZjz4x_GkIz7X-99" value="Cho phép cập nhật tình trạng sử dụng theo thời gian thực" style="rounded=0;whiteSpace=wrap;html=1;" vertex="1" parent="1">
          <mxGeometry x="761" y="667" width="120" height="60" as="geometry" />
        </mxCell>
        <mxCell id="ZPYQmzOVZjz4x_GkIz7X-100" value=" Ghi nhận từng lượt đặt: người đặt, thời gian đặt, thời gian trả, trạng thái phòng" style="rounded=0;whiteSpace=wrap;html=1;" vertex="1" parent="1">
          <mxGeometry x="912" y="568" width="120" height="60" as="geometry" />
        </mxCell>
        <mxCell id="ZPYQmzOVZjz4x_GkIz7X-101" value="Vô hiệu hóa các nút đặt phòng đang được sử dụng" style="rounded=0;whiteSpace=wrap;html=1;" vertex="1" parent="1">
          <mxGeometry x="912" y="667" width="120" height="60" as="geometry" />
        </mxCell>
        <mxCell id="ZPYQmzOVZjz4x_GkIz7X-102" value=" Theo dõi tổng số lượng sách hiện có trong kho" style="rounded=0;whiteSpace=wrap;html=1;" vertex="1" parent="1">
          <mxGeometry x="1052" y="568" width="120" height="60" as="geometry" />
        </mxCell>
        <mxCell id="ZPYQmzOVZjz4x_GkIz7X-103" value=" Theo dõi tổng số lượng sách hiện có trong kho theo nhà xuất bản, nhà cung cấp" style="rounded=0;whiteSpace=wrap;html=1;" vertex="1" parent="1">
          <mxGeometry x="1052" y="667" width="120" height="93" as="geometry" />
        </mxCell>
        <mxCell id="ZPYQmzOVZjz4x_GkIz7X-104" value="  Ghi lại các lần nhập sách vào kho" style="rounded=0;whiteSpace=wrap;html=1;" vertex="1" parent="1">
          <mxGeometry x="1195" y="568" width="120" height="60" as="geometry" />
        </mxCell>
        <mxCell id="ZPYQmzOVZjz4x_GkIz7X-105" value="  Kiểm tra lịch sử nhập sách để đánh giá nhu cầu bổ sung" style="rounded=0;whiteSpace=wrap;html=1;" vertex="1" parent="1">
          <mxGeometry x="1195" y="667" width="120" height="60" as="geometry" />
        </mxCell>
        <mxCell id="ZPYQmzOVZjz4x_GkIz7X-106" value="  Lưu thông tin các nhà cung cấp sách" style="rounded=0;whiteSpace=wrap;html=1;" vertex="1" parent="1">
          <mxGeometry x="1338" y="568" width="120" height="60" as="geometry" />
        </mxCell>
        <mxCell id="ZPYQmzOVZjz4x_GkIz7X-107" value="  Quản lý lịch sử nhập hàng từ từng nhà cung cấp" style="rounded=0;whiteSpace=wrap;html=1;" vertex="1" parent="1">
          <mxGeometry x="1338" y="667" width="120" height="60" as="geometry" />
        </mxCell>
        <mxCell id="ZPYQmzOVZjz4x_GkIz7X-108" value="  Danh mục toàn bộ sách thư viện" style="rounded=0;whiteSpace=wrap;html=1;" vertex="1" parent="1">
          <mxGeometry x="1481" y="568" width="120" height="60" as="geometry" />
        </mxCell>
        <mxCell id="ZPYQmzOVZjz4x_GkIz7X-109" value="  Gửi thông báo về các trường hợp vi phạm" style="rounded=0;whiteSpace=wrap;html=1;" vertex="1" parent="1">
          <mxGeometry x="1647" y="568" width="120" height="60" as="geometry" />
        </mxCell>
        <mxCell id="ZPYQmzOVZjz4x_GkIz7X-110" value="   Lưu lịch sử gửi và trạng thái xem thông báo" style="rounded=0;whiteSpace=wrap;html=1;" vertex="1" parent="1">
          <mxGeometry x="1647" y="667" width="120" height="60" as="geometry" />
        </mxCell>
        <mxCell id="ZPYQmzOVZjz4x_GkIz7X-111" value="" style="endArrow=none;html=1;rounded=0;entryX=0.25;entryY=1;entryDx=0;entryDy=0;exitX=0.415;exitY=0.008;exitDx=0;exitDy=0;exitPerimeter=0;" edge="1" parent="1" source="ZPYQmzOVZjz4x_GkIz7X-86" target="ZPYQmzOVZjz4x_GkIz7X-48">
          <mxGeometry width="50" height="50" relative="1" as="geometry">
            <mxPoint x="130" y="566" as="sourcePoint" />
            <mxPoint x="389" y="605" as="targetPoint" />
          </mxGeometry>
        </mxCell>
        <mxCell id="ZPYQmzOVZjz4x_GkIz7X-112" value="" style="endArrow=none;html=1;rounded=0;entryX=0.25;entryY=1;entryDx=0;entryDy=0;exitX=0.415;exitY=0.008;exitDx=0;exitDy=0;exitPerimeter=0;" edge="1" parent="1">
          <mxGeometry width="50" height="50" relative="1" as="geometry">
            <mxPoint x="130" y="667" as="sourcePoint" />
            <mxPoint x="130" y="628" as="targetPoint" />
          </mxGeometry>
        </mxCell>
        <mxCell id="ZPYQmzOVZjz4x_GkIz7X-113" value="" style="endArrow=none;html=1;rounded=0;entryX=0.25;entryY=1;entryDx=0;entryDy=0;exitX=0.415;exitY=0.008;exitDx=0;exitDy=0;exitPerimeter=0;" edge="1" parent="1">
          <mxGeometry width="50" height="50" relative="1" as="geometry">
            <mxPoint x="129" y="766" as="sourcePoint" />
            <mxPoint x="129" y="727" as="targetPoint" />
          </mxGeometry>
        </mxCell>
        <mxCell id="ZPYQmzOVZjz4x_GkIz7X-114" value="" style="endArrow=none;html=1;rounded=0;entryX=0.25;entryY=1;entryDx=0;entryDy=0;exitX=0.415;exitY=0.008;exitDx=0;exitDy=0;exitPerimeter=0;" edge="1" parent="1">
          <mxGeometry width="50" height="50" relative="1" as="geometry">
            <mxPoint x="345" y="568" as="sourcePoint" />
            <mxPoint x="345" y="529" as="targetPoint" />
          </mxGeometry>
        </mxCell>
        <mxCell id="ZPYQmzOVZjz4x_GkIz7X-115" value="" style="endArrow=none;html=1;rounded=0;entryX=0.25;entryY=1;entryDx=0;entryDy=0;exitX=0.415;exitY=0.008;exitDx=0;exitDy=0;exitPerimeter=0;" edge="1" parent="1">
          <mxGeometry width="50" height="50" relative="1" as="geometry">
            <mxPoint x="344" y="667" as="sourcePoint" />
            <mxPoint x="344" y="628" as="targetPoint" />
          </mxGeometry>
        </mxCell>
        <mxCell id="ZPYQmzOVZjz4x_GkIz7X-116" value="" style="endArrow=none;html=1;rounded=0;entryX=0.25;entryY=1;entryDx=0;entryDy=0;exitX=0.415;exitY=0.008;exitDx=0;exitDy=0;exitPerimeter=0;" edge="1" parent="1">
          <mxGeometry width="50" height="50" relative="1" as="geometry">
            <mxPoint x="344" y="766" as="sourcePoint" />
            <mxPoint x="344" y="727" as="targetPoint" />
          </mxGeometry>
        </mxCell>
        <mxCell id="ZPYQmzOVZjz4x_GkIz7X-117" value="" style="endArrow=none;html=1;rounded=0;entryX=0.25;entryY=1;entryDx=0;entryDy=0;exitX=0.415;exitY=0.008;exitDx=0;exitDy=0;exitPerimeter=0;" edge="1" parent="1">
          <mxGeometry width="50" height="50" relative="1" as="geometry">
            <mxPoint x="503.78999999999996" y="568" as="sourcePoint" />
            <mxPoint x="503.78999999999996" y="529" as="targetPoint" />
          </mxGeometry>
        </mxCell>
        <mxCell id="ZPYQmzOVZjz4x_GkIz7X-118" value="" style="endArrow=none;html=1;rounded=0;entryX=0.25;entryY=1;entryDx=0;entryDy=0;exitX=0.415;exitY=0.008;exitDx=0;exitDy=0;exitPerimeter=0;" edge="1" parent="1">
          <mxGeometry width="50" height="50" relative="1" as="geometry">
            <mxPoint x="503.78999999999996" y="667" as="sourcePoint" />
            <mxPoint x="503.78999999999996" y="628" as="targetPoint" />
          </mxGeometry>
        </mxCell>
        <mxCell id="ZPYQmzOVZjz4x_GkIz7X-119" value="" style="endArrow=none;html=1;rounded=0;entryX=0.25;entryY=1;entryDx=0;entryDy=0;exitX=0.415;exitY=0.008;exitDx=0;exitDy=0;exitPerimeter=0;" edge="1" parent="1">
          <mxGeometry width="50" height="50" relative="1" as="geometry">
            <mxPoint x="503.78999999999996" y="568" as="sourcePoint" />
            <mxPoint x="503.78999999999996" y="529" as="targetPoint" />
          </mxGeometry>
        </mxCell>
        <mxCell id="ZPYQmzOVZjz4x_GkIz7X-120" value="" style="endArrow=none;html=1;rounded=0;entryX=0.25;entryY=1;entryDx=0;entryDy=0;exitX=0.415;exitY=0.008;exitDx=0;exitDy=0;exitPerimeter=0;" edge="1" parent="1">
          <mxGeometry width="50" height="50" relative="1" as="geometry">
            <mxPoint x="675.79" y="568" as="sourcePoint" />
            <mxPoint x="675.79" y="529" as="targetPoint" />
          </mxGeometry>
        </mxCell>
        <mxCell id="ZPYQmzOVZjz4x_GkIz7X-121" value="" style="endArrow=none;html=1;rounded=0;entryX=0.25;entryY=1;entryDx=0;entryDy=0;exitX=0.415;exitY=0.008;exitDx=0;exitDy=0;exitPerimeter=0;" edge="1" parent="1">
          <mxGeometry width="50" height="50" relative="1" as="geometry">
            <mxPoint x="675.79" y="667" as="sourcePoint" />
            <mxPoint x="675.79" y="628" as="targetPoint" />
          </mxGeometry>
        </mxCell>
        <mxCell id="ZPYQmzOVZjz4x_GkIz7X-122" value="" style="endArrow=none;html=1;rounded=0;entryX=0.25;entryY=1;entryDx=0;entryDy=0;exitX=0.415;exitY=0.008;exitDx=0;exitDy=0;exitPerimeter=0;" edge="1" parent="1">
          <mxGeometry width="50" height="50" relative="1" as="geometry">
            <mxPoint x="675.79" y="766" as="sourcePoint" />
            <mxPoint x="675.79" y="727" as="targetPoint" />
          </mxGeometry>
        </mxCell>
        <mxCell id="ZPYQmzOVZjz4x_GkIz7X-123" value="" style="endArrow=none;html=1;rounded=0;entryX=0.25;entryY=1;entryDx=0;entryDy=0;exitX=0.415;exitY=0.008;exitDx=0;exitDy=0;exitPerimeter=0;" edge="1" parent="1">
          <mxGeometry width="50" height="50" relative="1" as="geometry">
            <mxPoint x="817" y="568" as="sourcePoint" />
            <mxPoint x="817" y="529" as="targetPoint" />
          </mxGeometry>
        </mxCell>
        <mxCell id="ZPYQmzOVZjz4x_GkIz7X-124" value="" style="endArrow=none;html=1;rounded=0;entryX=0.25;entryY=1;entryDx=0;entryDy=0;exitX=0.415;exitY=0.008;exitDx=0;exitDy=0;exitPerimeter=0;" edge="1" parent="1">
          <mxGeometry width="50" height="50" relative="1" as="geometry">
            <mxPoint x="817" y="667" as="sourcePoint" />
            <mxPoint x="817" y="628" as="targetPoint" />
          </mxGeometry>
        </mxCell>
        <mxCell id="ZPYQmzOVZjz4x_GkIz7X-125" value="" style="endArrow=none;html=1;rounded=0;entryX=0.25;entryY=1;entryDx=0;entryDy=0;exitX=0.415;exitY=0.008;exitDx=0;exitDy=0;exitPerimeter=0;" edge="1" parent="1">
          <mxGeometry width="50" height="50" relative="1" as="geometry">
            <mxPoint x="971.79" y="568" as="sourcePoint" />
            <mxPoint x="971.79" y="529" as="targetPoint" />
          </mxGeometry>
        </mxCell>
        <mxCell id="ZPYQmzOVZjz4x_GkIz7X-126" value="" style="endArrow=none;html=1;rounded=0;entryX=0.25;entryY=1;entryDx=0;entryDy=0;exitX=0.415;exitY=0.008;exitDx=0;exitDy=0;exitPerimeter=0;" edge="1" parent="1">
          <mxGeometry width="50" height="50" relative="1" as="geometry">
            <mxPoint x="971.79" y="667" as="sourcePoint" />
            <mxPoint x="971.79" y="628" as="targetPoint" />
          </mxGeometry>
        </mxCell>
        <mxCell id="ZPYQmzOVZjz4x_GkIz7X-127" value="" style="endArrow=none;html=1;rounded=0;entryX=0.25;entryY=1;entryDx=0;entryDy=0;exitX=0.415;exitY=0.008;exitDx=0;exitDy=0;exitPerimeter=0;" edge="1" parent="1">
          <mxGeometry width="50" height="50" relative="1" as="geometry">
            <mxPoint x="1111.79" y="568" as="sourcePoint" />
            <mxPoint x="1111.79" y="529" as="targetPoint" />
          </mxGeometry>
        </mxCell>
        <mxCell id="ZPYQmzOVZjz4x_GkIz7X-128" value="" style="endArrow=none;html=1;rounded=0;entryX=0.25;entryY=1;entryDx=0;entryDy=0;exitX=0.415;exitY=0.008;exitDx=0;exitDy=0;exitPerimeter=0;" edge="1" parent="1">
          <mxGeometry width="50" height="50" relative="1" as="geometry">
            <mxPoint x="1111.79" y="667" as="sourcePoint" />
            <mxPoint x="1111.79" y="628" as="targetPoint" />
          </mxGeometry>
        </mxCell>
        <mxCell id="ZPYQmzOVZjz4x_GkIz7X-129" value="" style="endArrow=none;html=1;rounded=0;entryX=0.25;entryY=1;entryDx=0;entryDy=0;exitX=0.415;exitY=0.008;exitDx=0;exitDy=0;exitPerimeter=0;" edge="1" parent="1">
          <mxGeometry width="50" height="50" relative="1" as="geometry">
            <mxPoint x="1254.79" y="568" as="sourcePoint" />
            <mxPoint x="1254.79" y="529" as="targetPoint" />
          </mxGeometry>
        </mxCell>
        <mxCell id="ZPYQmzOVZjz4x_GkIz7X-130" value="" style="endArrow=none;html=1;rounded=0;entryX=0.25;entryY=1;entryDx=0;entryDy=0;exitX=0.415;exitY=0.008;exitDx=0;exitDy=0;exitPerimeter=0;" edge="1" parent="1">
          <mxGeometry width="50" height="50" relative="1" as="geometry">
            <mxPoint x="1254.79" y="667" as="sourcePoint" />
            <mxPoint x="1254.79" y="628" as="targetPoint" />
          </mxGeometry>
        </mxCell>
        <mxCell id="ZPYQmzOVZjz4x_GkIz7X-131" value="" style="endArrow=none;html=1;rounded=0;entryX=0.25;entryY=1;entryDx=0;entryDy=0;exitX=0.415;exitY=0.008;exitDx=0;exitDy=0;exitPerimeter=0;" edge="1" parent="1">
          <mxGeometry width="50" height="50" relative="1" as="geometry">
            <mxPoint x="1397.79" y="568" as="sourcePoint" />
            <mxPoint x="1397.79" y="529" as="targetPoint" />
          </mxGeometry>
        </mxCell>
        <mxCell id="ZPYQmzOVZjz4x_GkIz7X-132" value="" style="endArrow=none;html=1;rounded=0;entryX=0.25;entryY=1;entryDx=0;entryDy=0;exitX=0.415;exitY=0.008;exitDx=0;exitDy=0;exitPerimeter=0;" edge="1" parent="1">
          <mxGeometry width="50" height="50" relative="1" as="geometry">
            <mxPoint x="1397.79" y="667" as="sourcePoint" />
            <mxPoint x="1397.79" y="628" as="targetPoint" />
          </mxGeometry>
        </mxCell>
        <mxCell id="ZPYQmzOVZjz4x_GkIz7X-133" value="" style="endArrow=none;html=1;rounded=0;entryX=0.25;entryY=1;entryDx=0;entryDy=0;exitX=0.415;exitY=0.008;exitDx=0;exitDy=0;exitPerimeter=0;" edge="1" parent="1">
          <mxGeometry width="50" height="50" relative="1" as="geometry">
            <mxPoint x="1540.79" y="568" as="sourcePoint" />
            <mxPoint x="1540.79" y="529" as="targetPoint" />
          </mxGeometry>
        </mxCell>
        <mxCell id="ZPYQmzOVZjz4x_GkIz7X-134" value="" style="endArrow=none;html=1;rounded=0;entryX=0.25;entryY=1;entryDx=0;entryDy=0;exitX=0.415;exitY=0.008;exitDx=0;exitDy=0;exitPerimeter=0;" edge="1" parent="1">
          <mxGeometry width="50" height="50" relative="1" as="geometry">
            <mxPoint x="1703.79" y="568" as="sourcePoint" />
            <mxPoint x="1703.79" y="529" as="targetPoint" />
          </mxGeometry>
        </mxCell>
        <mxCell id="ZPYQmzOVZjz4x_GkIz7X-135" value="" style="endArrow=none;html=1;rounded=0;entryX=0.25;entryY=1;entryDx=0;entryDy=0;exitX=0.415;exitY=0.008;exitDx=0;exitDy=0;exitPerimeter=0;" edge="1" parent="1">
          <mxGeometry width="50" height="50" relative="1" as="geometry">
            <mxPoint x="1703.79" y="667" as="sourcePoint" />
            <mxPoint x="1703.79" y="628" as="targetPoint" />
          </mxGeometry>
        </mxCell>
      </root>
    </mxGraphModel>
  </diagram>
  <diagram id="UzugZuTI9vcx36ahF7vp" name="Luồng DL mức ngữ cảnh">
    <mxGraphModel dx="1219" dy="671" grid="0" gridSize="10" guides="1" tooltips="1" connect="1" arrows="1" fold="1" page="0" pageScale="1" pageWidth="827" pageHeight="1169" math="0" shadow="0">
      <root>
        <mxCell id="0" />
        <mxCell id="1" parent="0" />
        <mxCell id="zxENbvOTIosoogbQQqjV-1" value="&lt;span style=&quot;color: rgba(0, 0, 0, 0); font-family: monospace; font-size: 0px; text-align: start;&quot;&gt;%3CmxGraphModel%3E%3Croot%3E%3CmxCell%20id%3D%220%22%2F%3E%3CmxCell%20id%3D%221%22%20parent%3D%220%22%2F%3E%3CmxCell%20id%3D%222%22%20value%3D%22%22%20style%3D%22endArrow%3Dclassic%3Bhtml%3D1%3Brounded%3D0%3BentryX%3D0.806%3BentryY%3D0.073%3BentryDx%3D0%3BentryDy%3D0%3BentryPerimeter%3D0%3B%22%20edge%3D%221%22%20target%3D%224%22%20parent%3D%221%22%3E%3CmxGeometry%20width%3D%2250%22%20height%3D%2250%22%20relative%3D%221%22%20as%3D%22geometry%22%3E%3CmxPoint%20x%3D%22940%22%20y%3D%22911%22%20as%3D%22sourcePoint%22%2F%3E%3CmxPoint%20x%3D%22630%22%20y%3D%22900%22%20as%3D%22targetPoint%22%2F%3E%3CArray%20as%3D%22points%22%3E%3CmxPoint%20x%3D%22940%22%20y%3D%22850%22%2F%3E%3CmxPoint%20x%3D%22660%22%20y%3D%22850%22%2F%3E%3C%2FArray%3E%3C%2FmxGeometry%3E%3C%2FmxCell%3E%3CmxCell%20id%3D%223%22%20value%3D%22S%C6%A1%20%C4%91%E1%BB%93%20lu%E1%BB%93ng%20d%E1%BB%AF%20li%E1%BB%87u%20m%E1%BB%A9c%20ng%E1%BB%AF%20c%E1%BA%A3nh%26amp%3Bnbsp%3B%22%20style%3D%22text%3Bhtml%3D1%3Balign%3Dcenter%3BverticalAlign%3Dmiddle%3Bresizable%3D0%3Bpoints%3D%5B%5D%3Bautosize%3D1%3BstrokeColor%3Dnone%3BfillColor%3Dnone%3B%22%20vertex%3D%221%22%20parent%3D%221%22%3E%3CmxGeometry%20x%3D%225%22%20y%3D%22780%22%20width%3D%22210%22%20height%3D%2230%22%20as%3D%22geometry%22%2F%3E%3C%2FmxCell%3E%3CmxCell%20id%3D%224%22%20value%3D%22H%E1%BB%86%20TH%E1%BB%90NG%20QU%E1%BA%A2N%20L%C3%9D%20TH%C6%AF%20VI%E1%BB%86N%22%20style%3D%22ellipse%3BwhiteSpace%3Dwrap%3Bhtml%3D1%3B%22%20vertex%3D%221%22%20parent%3D%221%22%3E%3CmxGeometry%20x%3D%22450%22%20y%3D%22890%22%20width%3D%22260%22%20height%3D%22110%22%20as%3D%22geometry%22%2F%3E%3C%2FmxCell%3E%3CmxCell%20id%3D%225%22%20value%3D%22B%E1%BA%A0N%20%C4%90%E1%BB%8CC%22%20style%3D%22rounded%3D0%3BwhiteSpace%3Dwrap%3Bhtml%3D1%3B%22%20vertex%3D%221%22%20parent%3D%221%22%3E%3CmxGeometry%20x%3D%22150%22%20y%3D%22915%22%20width%3D%22170%22%20height%3D%2260%22%20as%3D%22geometry%22%2F%3E%3C%2FmxCell%3E%3CmxCell%20id%3D%226%22%20value%3D%22NH%C3%80%20CUNG%20C%E1%BA%A4P%22%20style%3D%22rounded%3D0%3BwhiteSpace%3Dwrap%3Bhtml%3D1%3B%22%20vertex%3D%221%22%20parent%3D%221%22%3E%3CmxGeometry%20x%3D%22890%22%20y%3D%22910%22%20width%3D%22170%22%20height%3D%2260%22%20as%3D%22geometry%22%2F%3E%3C%2FmxCell%3E%3CmxCell%20id%3D%227%22%20value%3D%22Danh%20s%C3%A1ch%20t%C3%A0i%20li%E1%BB%87u%20b%E1%BB%95%20sung%22%20style%3D%22text%3Bhtml%3D1%3Balign%3Dcenter%3BverticalAlign%3Dmiddle%3Bresizable%3D0%3Bpoints%3D%5B%5D%3Bautosize%3D1%3BstrokeColor%3Dnone%3BfillColor%3Dnone%3B%22%20vertex%3D%221%22%20parent%3D%221%22%3E%3CmxGeometry%20x%3D%22710%22%20y%3D%22780%22%20width%3D%22160%22%20height%3D%2230%22%20as%3D%22geometry%22%2F%3E%3C%2FmxCell%3E%3CmxCell%20id%3D%228%22%20value%3D%22%22%20style%3D%22endArrow%3Dclassic%3Bhtml%3D1%3Brounded%3D0%3BexitX%3D0.541%3BexitY%3D-0.04%3BexitDx%3D0%3BexitDy%3D0%3BexitPerimeter%3D0%3B%22%20edge%3D%221%22%20source%3D%226%22%20parent%3D%221%22%3E%3CmxGeometry%20width%3D%2250%22%20height%3D%2250%22%20relative%3D%221%22%20as%3D%22geometry%22%3E%3CmxPoint%20x%3D%22980%22%20y%3D%22900%22%20as%3D%22sourcePoint%22%2F%3E%3CmxPoint%20x%3D%22620%22%20y%3D%22890%22%20as%3D%22targetPoint%22%2F%3E%3CArray%20as%3D%22points%22%3E%3CmxPoint%20x%3D%22980%22%20y%3D%22810%22%2F%3E%3CmxPoint%20x%3D%22620%22%20y%3D%22810%22%2F%3E%3C%2FArray%3E%3C%2FmxGeometry%3E%3C%2FmxCell%3E%3CmxCell%20id%3D%229%22%20value%3D%22Th%C3%B4ng%20tin%20ph%E1%BA%A3n%20h%E1%BB%93i%22%20style%3D%22text%3Bhtml%3D1%3Balign%3Dcenter%3BverticalAlign%3Dmiddle%3Bresizable%3D0%3Bpoints%3D%5B%5D%3Bautosize%3D1%3BstrokeColor%3Dnone%3BfillColor%3Dnone%3B%22%20vertex%3D%221%22%20parent%3D%221%22%3E%3CmxGeometry%20x%3D%22740%22%20y%3D%22820%22%20width%3D%22120%22%20height%3D%2230%22%20as%3D%22geometry%22%2F%3E%3C%2FmxCell%3E%3CmxCell%20id%3D%2210%22%20value%3D%22%22%20style%3D%22endArrow%3Dclassic%3Bhtml%3D1%3Brounded%3D0%3B%22%20edge%3D%221%22%20parent%3D%221%22%3E%3CmxGeometry%20width%3D%2250%22%20height%3D%2250%22%20relative%3D%221%22%20as%3D%22geometry%22%3E%3CmxPoint%20x%3D%22940%22%20y%3D%22980%22%20as%3D%22sourcePoint%22%2F%3E%3CmxPoint%20x%3D%22661%22%20y%3D%22990%22%20as%3D%22targetPoint%22%2F%3E%3CArray%20as%3D%22points%22%3E%3CmxPoint%20x%3D%22940%22%20y%3D%221040%22%2F%3E%3CmxPoint%20x%3D%22800%22%20y%3D%221040%22%2F%3E%3CmxPoint%20x%3D%22661%22%20y%3D%221040%22%2F%3E%3C%2FArray%3E%3C%2FmxGeometry%3E%3C%2FmxCell%3E%3CmxCell%20id%3D%2211%22%20value%3D%22%22%20style%3D%22endArrow%3Dclassic%3Bhtml%3D1%3Brounded%3D0%3BexitX%3D0.541%3BexitY%3D1.053%3BexitDx%3D0%3BexitDy%3D0%3BexitPerimeter%3D0%3BentryX%3D0.649%3BentryY%3D1.018%3BentryDx%3D0%3BentryDy%3D0%3BentryPerimeter%3D0%3B%22%20edge%3D%221%22%20source%3D%226%22%20target%3D%224%22%20parent%3D%221%22%3E%3CmxGeometry%20width%3D%2250%22%20height%3D%2250%22%20relative%3D%221%22%20as%3D%22geometry%22%3E%3CmxPoint%20x%3D%22992%22%20y%3D%22918%22%20as%3D%22sourcePoint%22%2F%3E%3CmxPoint%20x%3D%22630%22%20y%3D%22900%22%20as%3D%22targetPoint%22%2F%3E%3CArray%20as%3D%22points%22%3E%3CmxPoint%20x%3D%22980%22%20y%3D%221080%22%2F%3E%3CmxPoint%20x%3D%22620%22%20y%3D%221080%22%2F%3E%3C%2FArray%3E%3C%2FmxGeometry%3E%3C%2FmxCell%3E%3CmxCell%20id%3D%2212%22%20value%3D%22S%C3%A1ch%20%2B%20phi%E1%BA%BFu%20thanh%20to%C3%A1n%22%20style%3D%22text%3Bhtml%3D1%3Balign%3Dcenter%3BverticalAlign%3Dmiddle%3Bresizable%3D0%3Bpoints%3D%5B%5D%3Bautosize%3D1%3BstrokeColor%3Dnone%3BfillColor%3Dnone%3B%22%20vertex%3D%221%22%20parent%3D%221%22%3E%3CmxGeometry%20x%3D%22725%22%20y%3D%221010%22%20width%3D%22150%22%20height%3D%2230%22%20as%3D%22geometry%22%2F%3E%3C%2FmxCell%3E%3CmxCell%20id%3D%2213%22%20value%3D%22Ti%E1%BB%81n%20%2B%20h%C3%B3a%20%C4%91%C6%A1n%22%20style%3D%22text%3Bhtml%3D1%3Balign%3Dcenter%3BverticalAlign%3Dmiddle%3Bresizable%3D0%3Bpoints%3D%5B%5D%3Bautosize%3D1%3BstrokeColor%3Dnone%3BfillColor%3Dnone%3B%22%20vertex%3D%221%22%20parent%3D%221%22%3E%3CmxGeometry%20x%3D%22750%22%20y%3D%221050%22%20width%3D%22100%22%20height%3D%2230%22%20as%3D%22geometry%22%2F%3E%3C%2FmxCell%3E%3C%2Froot%3E%3C%2FmxGraphModel%3E&lt;/span&gt;&lt;span style=&quot;color: rgba(0, 0, 0, 0); font-family: monospace; font-size: 0px; text-align: start;&quot;&gt;%3CmxGraphModel%3E%3Croot%3E%3CmxCell%20id%3D%220%22%2F%3E%3CmxCell%20id%3D%221%22%20parent%3D%220%22%2F%3E%3CmxCell%20id%3D%222%22%20value%3D%22%22%20style%3D%22endArrow%3Dclassic%3Bhtml%3D1%3Brounded%3D0%3BentryX%3D0.806%3BentryY%3D0.073%3BentryDx%3D0%3BentryDy%3D0%3BentryPerimeter%3D0%3B%22%20edge%3D%221%22%20target%3D%224%22%20parent%3D%221%22%3E%3CmxGeometry%20width%3D%2250%22%20height%3D%2250%22%20relative%3D%221%22%20as%3D%22geometry%22%3E%3CmxPoint%20x%3D%22940%22%20y%3D%22911%22%20as%3D%22sourcePoint%22%2F%3E%3CmxPoint%20x%3D%22630%22%20y%3D%22900%22%20as%3D%22targetPoint%22%2F%3E%3CArray%20as%3D%22points%22%3E%3CmxPoint%20x%3D%22940%22%20y%3D%22850%22%2F%3E%3CmxPoint%20x%3D%22660%22%20y%3D%22850%22%2F%3E%3C%2FArray%3E%3C%2FmxGeometry%3E%3C%2FmxCell%3E%3CmxCell%20id%3D%223%22%20value%3D%22S%C6%A1%20%C4%91%E1%BB%93%20lu%E1%BB%93ng%20d%E1%BB%AF%20li%E1%BB%87u%20m%E1%BB%A9c%20ng%E1%BB%AF%20c%E1%BA%A3nh%26amp%3Bnbsp%3B%22%20style%3D%22text%3Bhtml%3D1%3Balign%3Dcenter%3BverticalAlign%3Dmiddle%3Bresizable%3D0%3Bpoints%3D%5B%5D%3Bautosize%3D1%3BstrokeColor%3Dnone%3BfillColor%3Dnone%3B%22%20vertex%3D%221%22%20parent%3D%221%22%3E%3CmxGeometry%20x%3D%225%22%20y%3D%22780%22%20width%3D%22210%22%20height%3D%2230%22%20as%3D%22geometry%22%2F%3E%3C%2FmxCell%3E%3CmxCell%20id%3D%224%22%20value%3D%22H%E1%BB%86%20TH%E1%BB%90NG%20QU%E1%BA%A2N%20L%C3%9D%20TH%C6%AF%20VI%E1%BB%86N%22%20style%3D%22ellipse%3BwhiteSpace%3Dwrap%3Bhtml%3D1%3B%22%20vertex%3D%221%22%20parent%3D%221%22%3E%3CmxGeometry%20x%3D%22450%22%20y%3D%22890%22%20width%3D%22260%22%20height%3D%22110%22%20as%3D%22geometry%22%2F%3E%3C%2FmxCell%3E%3CmxCell%20id%3D%225%22%20value%3D%22B%E1%BA%A0N%20%C4%90%E1%BB%8CC%22%20style%3D%22rounded%3D0%3BwhiteSpace%3Dwrap%3Bhtml%3D1%3B%22%20vertex%3D%221%22%20parent%3D%221%22%3E%3CmxGeometry%20x%3D%22150%22%20y%3D%22915%22%20width%3D%22170%22%20height%3D%2260%22%20as%3D%22geometry%22%2F%3E%3C%2FmxCell%3E%3CmxCell%20id%3D%226%22%20value%3D%22NH%C3%80%20CUNG%20C%E1%BA%A4P%22%20style%3D%22rounded%3D0%3BwhiteSpace%3Dwrap%3Bhtml%3D1%3B%22%20vertex%3D%221%22%20parent%3D%221%22%3E%3CmxGeometry%20x%3D%22890%22%20y%3D%22910%22%20width%3D%22170%22%20height%3D%2260%22%20as%3D%22geometry%22%2F%3E%3C%2FmxCell%3E%3CmxCell%20id%3D%227%22%20value%3D%22Danh%20s%C3%A1ch%20t%C3%A0i%20li%E1%BB%87u%20b%E1%BB%95%20sung%22%20style%3D%22text%3Bhtml%3D1%3Balign%3Dcenter%3BverticalAlign%3Dmiddle%3Bresizable%3D0%3Bpoints%3D%5B%5D%3Bautosize%3D1%3BstrokeColor%3Dnone%3BfillColor%3Dnone%3B%22%20vertex%3D%221%22%20parent%3D%221%22%3E%3CmxGeometry%20x%3D%22710%22%20y%3D%22780%22%20width%3D%22160%22%20height%3D%2230%22%20as%3D%22geometry%22%2F%3E%3C%2FmxCell%3E%3CmxCell%20id%3D%228%22%20value%3D%22%22%20style%3D%22endArrow%3Dclassic%3Bhtml%3D1%3Brounded%3D0%3BexitX%3D0.541%3BexitY%3D-0.04%3BexitDx%3D0%3BexitDy%3D0%3BexitPerimeter%3D0%3B%22%20edge%3D%221%22%20source%3D%226%22%20parent%3D%221%22%3E%3CmxGeometry%20width%3D%2250%22%20height%3D%2250%22%20relative%3D%221%22%20as%3D%22geometry%22%3E%3CmxPoint%20x%3D%22980%22%20y%3D%22900%22%20as%3D%22sourcePoint%22%2F%3E%3CmxPoint%20x%3D%22620%22%20y%3D%22890%22%20as%3D%22targetPoint%22%2F%3E%3CArray%20as%3D%22points%22%3E%3CmxPoint%20x%3D%22980%22%20y%3D%22810%22%2F%3E%3CmxPoint%20x%3D%22620%22%20y%3D%22810%22%2F%3E%3C%2FArray%3E%3C%2FmxGeometry%3E%3C%2FmxCell%3E%3CmxCell%20id%3D%229%22%20value%3D%22Th%C3%B4ng%20tin%20ph%E1%BA%A3n%20h%E1%BB%93i%22%20style%3D%22text%3Bhtml%3D1%3Balign%3Dcenter%3BverticalAlign%3Dmiddle%3Bresizable%3D0%3Bpoints%3D%5B%5D%3Bautosize%3D1%3BstrokeColor%3Dnone%3BfillColor%3Dnone%3B%22%20vertex%3D%221%22%20parent%3D%221%22%3E%3CmxGeometry%20x%3D%22740%22%20y%3D%22820%22%20width%3D%22120%22%20height%3D%2230%22%20as%3D%22geometry%22%2F%3E%3C%2FmxCell%3E%3CmxCell%20id%3D%2210%22%20value%3D%22%22%20style%3D%22endArrow%3Dclassic%3Bhtml%3D1%3Brounded%3D0%3B%22%20edge%3D%221%22%20parent%3D%221%22%3E%3CmxGeometry%20width%3D%2250%22%20height%3D%2250%22%20relative%3D%221%22%20as%3D%22geometry%22%3E%3CmxPoint%20x%3D%22940%22%20y%3D%22980%22%20as%3D%22sourcePoint%22%2F%3E%3CmxPoint%20x%3D%22661%22%20y%3D%22990%22%20as%3D%22targetPoint%22%2F%3E%3CArray%20as%3D%22points%22%3E%3CmxPoint%20x%3D%22940%22%20y%3D%221040%22%2F%3E%3CmxPoint%20x%3D%22800%22%20y%3D%221040%22%2F%3E%3CmxPoint%20x%3D%22661%22%20y%3D%221040%22%2F%3E%3C%2FArray%3E%3C%2FmxGeometry%3E%3C%2FmxCell%3E%3CmxCell%20id%3D%2211%22%20value%3D%22%22%20style%3D%22endArrow%3Dclassic%3Bhtml%3D1%3Brounded%3D0%3BexitX%3D0.541%3BexitY%3D1.053%3BexitDx%3D0%3BexitDy%3D0%3BexitPerimeter%3D0%3BentryX%3D0.649%3BentryY%3D1.018%3BentryDx%3D0%3BentryDy%3D0%3BentryPerimeter%3D0%3B%22%20edge%3D%221%22%20source%3D%226%22%20target%3D%224%22%20parent%3D%221%22%3E%3CmxGeometry%20width%3D%2250%22%20height%3D%2250%22%20relative%3D%221%22%20as%3D%22geometry%22%3E%3CmxPoint%20x%3D%22992%22%20y%3D%22918%22%20as%3D%22sourcePoint%22%2F%3E%3CmxPoint%20x%3D%22630%22%20y%3D%22900%22%20as%3D%22targetPoint%22%2F%3E%3CArray%20as%3D%22points%22%3E%3CmxPoint%20x%3D%22980%22%20y%3D%221080%22%2F%3E%3CmxPoint%20x%3D%22620%22%20y%3D%221080%22%2F%3E%3C%2FArray%3E%3C%2FmxGeometry%3E%3C%2FmxCell%3E%3CmxCell%20id%3D%2212%22%20value%3D%22S%C3%A1ch%20%2B%20phi%E1%BA%BFu%20thanh%20to%C3%A1n%22%20style%3D%22text%3Bhtml%3D1%3Balign%3Dcenter%3BverticalAlign%3Dmiddle%3Bresizable%3D0%3Bpoints%3D%5B%5D%3Bautosize%3D1%3BstrokeColor%3Dnone%3BfillColor%3Dnone%3B%22%20vertex%3D%221%22%20parent%3D%221%22%3E%3CmxGeometry%20x%3D%22725%22%20y%3D%221010%22%20width%3D%22150%22%20height%3D%2230%22%20as%3D%22geometry%22%2F%3E%3C%2FmxCell%3E%3CmxCell%20id%3D%2213%22%20value%3D%22Ti%E1%BB%81n%20%2B%20h%C3%B3a%20%C4%91%C6%A1n%22%20style%3D%22text%3Bhtml%3D1%3Balign%3Dcenter%3BverticalAlign%3Dmiddle%3Bresizable%3D0%3Bpoints%3D%5B%5D%3Bautosize%3D1%3BstrokeColor%3Dnone%3BfillColor%3Dnone%3B%22%20vertex%3D%221%22%20parent%3D%221%22%3E%3CmxGeometry%20x%3D%22750%22%20y%3D%221050%22%20width%3D%22100%22%20height%3D%2230%22%20as%3D%22geometry%22%2F%3E%3C%2FmxCell%3E%3C%2Froot%3E%3C%2FmxGraphModel%3E&lt;/span&gt;" style="text;html=1;align=center;verticalAlign=middle;resizable=0;points=[];autosize=1;strokeColor=none;fillColor=none;" parent="1" vertex="1">
          <mxGeometry x="110" y="28" width="20" height="30" as="geometry" />
        </mxCell>
        <mxCell id="zxENbvOTIosoogbQQqjV-16" value="&lt;b&gt;&lt;font style=&quot;font-size: 15px;&quot;&gt;HỆ THỐNG QUẢN LÝ THƯ VIỆN&lt;/font&gt;&lt;/b&gt;" style="ellipse;whiteSpace=wrap;html=1;" parent="1" vertex="1">
          <mxGeometry x="705" y="457" width="300" height="132" as="geometry" />
        </mxCell>
        <mxCell id="zxENbvOTIosoogbQQqjV-17" value="Bạn đọc" style="rounded=0;whiteSpace=wrap;html=1;" parent="1" vertex="1">
          <mxGeometry x="421" y="481" width="130" height="73" as="geometry" />
        </mxCell>
        <mxCell id="zxENbvOTIosoogbQQqjV-18" value="Nhà cung cấp" style="rounded=0;whiteSpace=wrap;html=1;" parent="1" vertex="1">
          <mxGeometry x="1188" y="483" width="170" height="69" as="geometry" />
        </mxCell>
        <mxCell id="zxENbvOTIosoogbQQqjV-19" value="Danh sách tài liệu bổ sung" style="text;html=1;align=center;verticalAlign=middle;resizable=0;points=[];autosize=1;strokeColor=none;fillColor=none;rotation=0;" parent="1" vertex="1">
          <mxGeometry x="1024" y="604" width="160" height="30" as="geometry" />
        </mxCell>
        <mxCell id="zxENbvOTIosoogbQQqjV-21" value="Thông tin phản hồi" style="text;html=1;align=center;verticalAlign=middle;resizable=0;points=[];autosize=1;strokeColor=none;fillColor=none;rotation=0;" parent="1" vertex="1">
          <mxGeometry x="1035" y="564" width="120" height="30" as="geometry" />
        </mxCell>
        <mxCell id="zxENbvOTIosoogbQQqjV-24" value="Sách + phiếu thanh toán" style="text;html=1;align=center;verticalAlign=middle;resizable=0;points=[];autosize=1;strokeColor=none;fillColor=none;rotation=0;" parent="1" vertex="1">
          <mxGeometry x="1029" y="373" width="150" height="30" as="geometry" />
        </mxCell>
        <mxCell id="zxENbvOTIosoogbQQqjV-25" value="Tiền + hóa đơn" style="text;html=1;align=center;verticalAlign=middle;resizable=0;points=[];autosize=1;strokeColor=none;fillColor=none;rotation=0;" parent="1" vertex="1">
          <mxGeometry x="1041" y="403" width="100" height="30" as="geometry" />
        </mxCell>
        <mxCell id="-xqAsG-h4JMWLZSZvGeQ-9" value="" style="endArrow=classic;html=1;rounded=0;" parent="1" edge="1">
          <mxGeometry width="50" height="50" relative="1" as="geometry">
            <mxPoint x="729.5" y="486" as="sourcePoint" />
            <mxPoint x="523.5" y="480" as="targetPoint" />
            <Array as="points">
              <mxPoint x="729.5" y="454" />
              <mxPoint x="523.5" y="454" />
            </Array>
          </mxGeometry>
        </mxCell>
        <mxCell id="-xqAsG-h4JMWLZSZvGeQ-10" value="" style="endArrow=classic;html=1;rounded=0;exitX=0.089;exitY=0.802;exitDx=0;exitDy=0;exitPerimeter=0;" parent="1" edge="1" source="zxENbvOTIosoogbQQqjV-16">
          <mxGeometry width="50" height="50" relative="1" as="geometry">
            <mxPoint x="749" y="575" as="sourcePoint" />
            <mxPoint x="509" y="549" as="targetPoint" />
            <Array as="points">
              <mxPoint x="732" y="581" />
              <mxPoint x="509" y="580.98" />
            </Array>
          </mxGeometry>
        </mxCell>
        <mxCell id="-xqAsG-h4JMWLZSZvGeQ-13" value="" style="edgeStyle=segmentEdgeStyle;endArrow=classic;html=1;curved=0;rounded=0;endSize=8;startSize=8;exitX=0.615;exitY=0.026;exitDx=0;exitDy=0;exitPerimeter=0;" parent="1" edge="1" source="zxENbvOTIosoogbQQqjV-17">
          <mxGeometry width="50" height="50" relative="1" as="geometry">
            <mxPoint x="500.44" y="474.06" as="sourcePoint" />
            <mxPoint x="765.5000000000001" y="468" as="targetPoint" />
            <Array as="points">
              <mxPoint x="501" y="424" />
              <mxPoint x="765" y="424" />
            </Array>
          </mxGeometry>
        </mxCell>
        <mxCell id="-xqAsG-h4JMWLZSZvGeQ-14" value="" style="edgeStyle=elbowEdgeStyle;elbow=vertical;endArrow=classic;html=1;curved=0;rounded=0;endSize=8;startSize=8;entryX=0.211;entryY=0.923;entryDx=0;entryDy=0;entryPerimeter=0;" parent="1" edge="1" target="zxENbvOTIosoogbQQqjV-16">
          <mxGeometry width="50" height="50" relative="1" as="geometry">
            <mxPoint x="488" y="553" as="sourcePoint" />
            <mxPoint x="751.95" y="573.37" as="targetPoint" />
            <Array as="points">
              <mxPoint x="614.95" y="615.37" />
            </Array>
          </mxGeometry>
        </mxCell>
        <mxCell id="-xqAsG-h4JMWLZSZvGeQ-16" value="" style="endArrow=classic;html=1;rounded=0;entryX=0.408;entryY=1;entryDx=0;entryDy=0;entryPerimeter=0;" parent="1" edge="1" target="zxENbvOTIosoogbQQqjV-17">
          <mxGeometry width="50" height="50" relative="1" as="geometry">
            <mxPoint x="811" y="590" as="sourcePoint" />
            <mxPoint x="449" y="547" as="targetPoint" />
            <Array as="points">
              <mxPoint x="811" y="650" />
              <mxPoint x="730" y="650" />
              <mxPoint x="519" y="650" />
              <mxPoint x="474" y="650" />
              <mxPoint x="474" y="613" />
              <mxPoint x="474" y="590" />
            </Array>
          </mxGeometry>
        </mxCell>
        <mxCell id="-xqAsG-h4JMWLZSZvGeQ-20" value="" style="edgeStyle=segmentEdgeStyle;endArrow=classic;html=1;curved=0;rounded=0;endSize=8;startSize=8;exitX=0.5;exitY=0;exitDx=0;exitDy=0;" parent="1" edge="1" source="zxENbvOTIosoogbQQqjV-17">
          <mxGeometry width="50" height="50" relative="1" as="geometry">
            <mxPoint x="479" y="476" as="sourcePoint" />
            <mxPoint x="800" y="458" as="targetPoint" />
            <Array as="points">
              <mxPoint x="479" y="481" />
              <mxPoint x="479" y="393" />
              <mxPoint x="800" y="393" />
            </Array>
          </mxGeometry>
        </mxCell>
        <mxCell id="-xqAsG-h4JMWLZSZvGeQ-22" value="Kiểm tra và&amp;nbsp;&lt;div&gt;cập nhật&amp;nbsp;&lt;span style=&quot;background-color: transparent; color: light-dark(rgb(0, 0, 0), rgb(255, 255, 255));&quot;&gt;tình trạng&lt;/span&gt;&lt;/div&gt;" style="text;html=1;align=center;verticalAlign=middle;resizable=0;points=[];autosize=1;strokeColor=none;fillColor=none;" parent="1" vertex="1">
          <mxGeometry x="581" y="465" width="118" height="41" as="geometry" />
        </mxCell>
        <mxCell id="-xqAsG-h4JMWLZSZvGeQ-25" value="Yêu cầu trả sách" style="text;html=1;align=center;verticalAlign=middle;resizable=0;points=[];autosize=1;strokeColor=none;fillColor=none;" parent="1" vertex="1">
          <mxGeometry x="572.5" y="398" width="108" height="26" as="geometry" />
        </mxCell>
        <mxCell id="-xqAsG-h4JMWLZSZvGeQ-26" value="Phản hồi" style="text;html=1;align=center;verticalAlign=middle;resizable=0;points=[];autosize=1;strokeColor=none;fillColor=none;" parent="1" vertex="1">
          <mxGeometry x="594" y="594" width="65" height="26" as="geometry" />
        </mxCell>
        <mxCell id="-xqAsG-h4JMWLZSZvGeQ-27" value="Xác nhận đã đền bù, thay thế" style="text;html=1;align=center;verticalAlign=middle;resizable=0;points=[];autosize=1;strokeColor=none;fillColor=none;" parent="1" vertex="1">
          <mxGeometry x="530" y="554" width="175" height="26" as="geometry" />
        </mxCell>
        <mxCell id="-xqAsG-h4JMWLZSZvGeQ-28" value="Cập nhật tình trạng" style="text;html=1;align=center;verticalAlign=middle;resizable=0;points=[];autosize=1;strokeColor=none;fillColor=none;" parent="1" vertex="1">
          <mxGeometry x="572.5" y="626" width="121" height="26" as="geometry" />
        </mxCell>
        <mxCell id="-xqAsG-h4JMWLZSZvGeQ-29" value="Yêu cầu mượn sách" style="text;html=1;align=center;verticalAlign=middle;resizable=0;points=[];autosize=1;strokeColor=none;fillColor=none;" parent="1" vertex="1">
          <mxGeometry x="569.5" y="367" width="127" height="26" as="geometry" />
        </mxCell>
        <mxCell id="-xqAsG-h4JMWLZSZvGeQ-31" value="Cập nhật&amp;nbsp; hệ thống" style="text;html=1;align=center;verticalAlign=middle;resizable=0;points=[];autosize=1;strokeColor=none;fillColor=none;" parent="1" vertex="1">
          <mxGeometry x="580.5" y="424" width="120" height="26" as="geometry" />
        </mxCell>
        <mxCell id="D420qIoc1o0AaGu4R2V3-1" value="" style="endArrow=classic;html=1;rounded=0;exitX=0.023;exitY=0.36;exitDx=0;exitDy=0;exitPerimeter=0;" edge="1" parent="1" source="zxENbvOTIosoogbQQqjV-16">
          <mxGeometry width="50" height="50" relative="1" as="geometry">
            <mxPoint x="714" y="507" as="sourcePoint" />
            <mxPoint x="553" y="505" as="targetPoint" />
          </mxGeometry>
        </mxCell>
        <mxCell id="-xqAsG-h4JMWLZSZvGeQ-24" value="Yêu cầu đền bù, thay thế" style="text;html=1;align=center;verticalAlign=middle;resizable=0;points=[];autosize=1;strokeColor=none;fillColor=none;" parent="1" vertex="1">
          <mxGeometry x="557.5" y="510" width="151" height="26" as="geometry" />
        </mxCell>
        <mxCell id="D420qIoc1o0AaGu4R2V3-4" value="" style="endArrow=classic;html=1;rounded=0;exitX=0.007;exitY=0.581;exitDx=0;exitDy=0;exitPerimeter=0;entryX=1;entryY=0.75;entryDx=0;entryDy=0;" edge="1" parent="1" source="zxENbvOTIosoogbQQqjV-16" target="zxENbvOTIosoogbQQqjV-17">
          <mxGeometry width="50" height="50" relative="1" as="geometry">
            <mxPoint x="880" y="637" as="sourcePoint" />
            <mxPoint x="930" y="587" as="targetPoint" />
          </mxGeometry>
        </mxCell>
        <mxCell id="D420qIoc1o0AaGu4R2V3-11" value="" style="endArrow=classic;html=1;rounded=0;entryX=0.945;entryY=0.752;entryDx=0;entryDy=0;entryPerimeter=0;" edge="1" parent="1" target="zxENbvOTIosoogbQQqjV-16">
          <mxGeometry width="50" height="50" relative="1" as="geometry">
            <mxPoint x="1221" y="551" as="sourcePoint" />
            <mxPoint x="847" y="588.03" as="targetPoint" />
            <Array as="points">
              <mxPoint x="1221" y="593" />
              <mxPoint x="1079" y="593" />
              <mxPoint x="989" y="593" />
            </Array>
          </mxGeometry>
        </mxCell>
        <mxCell id="D420qIoc1o0AaGu4R2V3-12" value="" style="endArrow=classic;html=1;rounded=0;exitX=0.38;exitY=1.002;exitDx=0;exitDy=0;exitPerimeter=0;" edge="1" parent="1">
          <mxGeometry width="50" height="50" relative="1" as="geometry">
            <mxPoint x="956" y="572.0040000000001" as="sourcePoint" />
            <mxPoint x="1259.24" y="545" as="targetPoint" />
            <Array as="points">
              <mxPoint x="956.24" y="628" />
              <mxPoint x="1259" y="628" />
            </Array>
          </mxGeometry>
        </mxCell>
        <mxCell id="D420qIoc1o0AaGu4R2V3-14" value="" style="endArrow=classic;html=1;rounded=0;exitX=0.939;exitY=0.289;exitDx=0;exitDy=0;exitPerimeter=0;" edge="1" parent="1" source="zxENbvOTIosoogbQQqjV-16">
          <mxGeometry width="50" height="50" relative="1" as="geometry">
            <mxPoint x="915.0000000000001" y="589.0040000000001" as="sourcePoint" />
            <mxPoint x="1224" y="487" as="targetPoint" />
            <Array as="points">
              <mxPoint x="987" y="451" />
              <mxPoint x="987" y="428" />
              <mxPoint x="1224" y="431" />
            </Array>
          </mxGeometry>
        </mxCell>
        <mxCell id="D420qIoc1o0AaGu4R2V3-16" value="Trao đổi" style="text;html=1;align=center;verticalAlign=middle;resizable=0;points=[];autosize=1;strokeColor=none;fillColor=none;rotation=0;" vertex="1" parent="1">
          <mxGeometry x="1060" y="496" width="62" height="26" as="geometry" />
        </mxCell>
        <mxCell id="D420qIoc1o0AaGu4R2V3-18" value="" style="endArrow=classic;html=1;rounded=0;entryX=0.829;entryY=0.146;entryDx=0;entryDy=0;entryPerimeter=0;exitX=0.432;exitY=0.012;exitDx=0;exitDy=0;exitPerimeter=0;" edge="1" parent="1" source="zxENbvOTIosoogbQQqjV-18" target="zxENbvOTIosoogbQQqjV-16">
          <mxGeometry width="50" height="50" relative="1" as="geometry">
            <mxPoint x="880" y="637" as="sourcePoint" />
            <mxPoint x="953" y="470" as="targetPoint" />
            <Array as="points">
              <mxPoint x="1259" y="399" />
              <mxPoint x="953" y="399" />
            </Array>
          </mxGeometry>
        </mxCell>
        <mxCell id="SuBvToamtNuPwPbkiA2v-2" value="" style="endArrow=classic;startArrow=classic;html=1;rounded=0;" edge="1" parent="1" target="zxENbvOTIosoogbQQqjV-18">
          <mxGeometry width="50" height="50" relative="1" as="geometry">
            <mxPoint x="1005" y="519" as="sourcePoint" />
            <mxPoint x="930" y="469" as="targetPoint" />
          </mxGeometry>
        </mxCell>
      </root>
    </mxGraphModel>
  </diagram>
  <diagram id="OH9_IYdlrLQqShuAVfYN" name="Sơ đồ E-R">
    <mxGraphModel grid="0" page="1" gridSize="10" guides="1" tooltips="1" connect="1" arrows="1" fold="1" pageScale="1" pageWidth="850" pageHeight="1100" math="0" shadow="0">
      <root>
        <mxCell id="0" />
        <mxCell id="1" parent="0" />
        <mxCell id="d6hsDpmaimq01Mf73dcw-1" value="Bạn đọc" style="rounded=0;whiteSpace=wrap;html=1;" parent="1" vertex="1">
          <mxGeometry x="80" y="40" width="120" height="40" as="geometry" />
        </mxCell>
        <mxCell id="d6hsDpmaimq01Mf73dcw-2" value="Thẻ thành viên" style="rounded=0;whiteSpace=wrap;html=1;" parent="1" vertex="1">
          <mxGeometry x="640" y="40" width="120" height="40" as="geometry" />
        </mxCell>
        <mxCell id="d6hsDpmaimq01Mf73dcw-3" value="Nhà CC" style="rounded=0;whiteSpace=wrap;html=1;" parent="1" vertex="1">
          <mxGeometry x="80" y="120" width="120" height="40" as="geometry" />
        </mxCell>
        <mxCell id="d6hsDpmaimq01Mf73dcw-4" value="Phiếu nhập" style="rounded=0;whiteSpace=wrap;html=1;" parent="1" vertex="1">
          <mxGeometry x="640" y="120" width="120" height="40" as="geometry" />
        </mxCell>
        <mxCell id="d6hsDpmaimq01Mf73dcw-5" value="Sách" style="rounded=0;whiteSpace=wrap;html=1;" parent="1" vertex="1">
          <mxGeometry x="80" y="200" width="120" height="40" as="geometry" />
        </mxCell>
        <mxCell id="d6hsDpmaimq01Mf73dcw-6" value="Phiếu Nhập" style="rounded=0;whiteSpace=wrap;html=1;" parent="1" vertex="1">
          <mxGeometry x="640" y="200" width="120" height="40" as="geometry" />
        </mxCell>
        <mxCell id="d6hsDpmaimq01Mf73dcw-12" value="" style="line;strokeWidth=2;html=1;" parent="1" vertex="1">
          <mxGeometry x="200" y="55" width="160" height="10" as="geometry" />
        </mxCell>
        <mxCell id="d6hsDpmaimq01Mf73dcw-14" value="" style="line;strokeWidth=2;html=1;" parent="1" vertex="1">
          <mxGeometry x="480" y="55" width="160" height="10" as="geometry" />
        </mxCell>
        <mxCell id="d6hsDpmaimq01Mf73dcw-18" value="&lt;font style=&quot;font-size: 14px;&quot;&gt;Có&lt;/font&gt;" style="html=1;whiteSpace=wrap;aspect=fixed;shape=isoRectangle;" parent="1" vertex="1">
          <mxGeometry x="360" y="22.5" width="125" height="75" as="geometry" />
        </mxCell>
        <mxCell id="d6hsDpmaimq01Mf73dcw-19" value="" style="triangle;whiteSpace=wrap;html=1;rotation=-180;" parent="1" vertex="1">
          <mxGeometry x="610" y="120" width="30" height="40" as="geometry" />
        </mxCell>
        <mxCell id="d6hsDpmaimq01Mf73dcw-20" value="" style="line;strokeWidth=2;html=1;" parent="1" vertex="1">
          <mxGeometry x="200" y="135" width="160" height="10" as="geometry" />
        </mxCell>
        <mxCell id="d6hsDpmaimq01Mf73dcw-21" value="&lt;font style=&quot;font-size: 14px;&quot;&gt;Xuất&lt;/font&gt;" style="html=1;whiteSpace=wrap;aspect=fixed;shape=isoRectangle;" parent="1" vertex="1">
          <mxGeometry x="360" y="102.5" width="125" height="75" as="geometry" />
        </mxCell>
        <mxCell id="d6hsDpmaimq01Mf73dcw-22" value="" style="line;strokeWidth=2;html=1;" parent="1" vertex="1">
          <mxGeometry x="485" y="135" width="125" height="10" as="geometry" />
        </mxCell>
        <mxCell id="d6hsDpmaimq01Mf73dcw-26" value="" style="endArrow=none;html=1;rounded=0;" parent="1" edge="1">
          <mxGeometry width="50" height="50" relative="1" as="geometry">
            <mxPoint x="610" y="155" as="sourcePoint" />
            <mxPoint x="610" y="125" as="targetPoint" />
          </mxGeometry>
        </mxCell>
        <mxCell id="d6hsDpmaimq01Mf73dcw-28" value="" style="shape=partialRectangle;whiteSpace=wrap;html=1;bottom=0;top=0;fillColor=none;" parent="1" vertex="1">
          <mxGeometry x="230" y="45" width="10" height="30" as="geometry" />
        </mxCell>
        <mxCell id="d6hsDpmaimq01Mf73dcw-30" value="" style="shape=partialRectangle;whiteSpace=wrap;html=1;bottom=0;top=0;fillColor=none;" parent="1" vertex="1">
          <mxGeometry x="600" y="45" width="10" height="30" as="geometry" />
        </mxCell>
        <mxCell id="d6hsDpmaimq01Mf73dcw-33" value="" style="shape=partialRectangle;whiteSpace=wrap;html=1;bottom=0;top=0;fillColor=none;" parent="1" vertex="1">
          <mxGeometry x="230" y="125" width="10" height="30" as="geometry" />
        </mxCell>
        <mxCell id="d6hsDpmaimq01Mf73dcw-34" value="" style="triangle;whiteSpace=wrap;html=1;rotation=0;" parent="1" vertex="1">
          <mxGeometry x="200" y="200" width="30" height="40" as="geometry" />
        </mxCell>
        <mxCell id="d6hsDpmaimq01Mf73dcw-35" value="" style="endArrow=none;html=1;rounded=0;" parent="1" edge="1">
          <mxGeometry width="50" height="50" relative="1" as="geometry">
            <mxPoint x="229" y="235" as="sourcePoint" />
            <mxPoint x="229" y="205" as="targetPoint" />
          </mxGeometry>
        </mxCell>
        <mxCell id="d6hsDpmaimq01Mf73dcw-36" value="" style="line;strokeWidth=2;html=1;" parent="1" vertex="1">
          <mxGeometry x="230" y="215" width="130" height="10" as="geometry" />
        </mxCell>
        <mxCell id="d6hsDpmaimq01Mf73dcw-37" value="&lt;font style=&quot;font-size: 14px;&quot;&gt;Có&lt;/font&gt;" style="html=1;whiteSpace=wrap;aspect=fixed;shape=isoRectangle;" parent="1" vertex="1">
          <mxGeometry x="360" y="182.5" width="125" height="75" as="geometry" />
        </mxCell>
        <mxCell id="d6hsDpmaimq01Mf73dcw-38" value="" style="line;strokeWidth=2;html=1;" parent="1" vertex="1">
          <mxGeometry x="485" y="215" width="155" height="10" as="geometry" />
        </mxCell>
        <mxCell id="d6hsDpmaimq01Mf73dcw-39" value="" style="shape=partialRectangle;whiteSpace=wrap;html=1;bottom=0;top=0;fillColor=none;" parent="1" vertex="1">
          <mxGeometry x="600" y="205" width="10" height="30" as="geometry" />
        </mxCell>
        <mxCell id="d6hsDpmaimq01Mf73dcw-48" value="Bạn đọc" style="rounded=0;whiteSpace=wrap;html=1;" parent="1" vertex="1">
          <mxGeometry x="80" y="277.5" width="120" height="40" as="geometry" />
        </mxCell>
        <mxCell id="d6hsDpmaimq01Mf73dcw-49" value="Sách" style="rounded=0;whiteSpace=wrap;html=1;" parent="1" vertex="1">
          <mxGeometry x="640" y="277.5" width="120" height="40" as="geometry" />
        </mxCell>
        <mxCell id="d6hsDpmaimq01Mf73dcw-50" value="" style="triangle;whiteSpace=wrap;html=1;rotation=-180;" parent="1" vertex="1">
          <mxGeometry x="610" y="277.5" width="30" height="40" as="geometry" />
        </mxCell>
        <mxCell id="d6hsDpmaimq01Mf73dcw-51" value="" style="line;strokeWidth=2;html=1;" parent="1" vertex="1">
          <mxGeometry x="200" y="292.5" width="160" height="10" as="geometry" />
        </mxCell>
        <mxCell id="d6hsDpmaimq01Mf73dcw-52" value="&lt;font style=&quot;font-size: 14px;&quot;&gt;Mượn&lt;/font&gt;" style="html=1;whiteSpace=wrap;aspect=fixed;shape=isoRectangle;" parent="1" vertex="1">
          <mxGeometry x="360" y="260" width="125" height="75" as="geometry" />
        </mxCell>
        <mxCell id="d6hsDpmaimq01Mf73dcw-53" value="" style="line;strokeWidth=2;html=1;" parent="1" vertex="1">
          <mxGeometry x="485" y="292.5" width="125" height="10" as="geometry" />
        </mxCell>
        <mxCell id="d6hsDpmaimq01Mf73dcw-54" value="" style="endArrow=none;html=1;rounded=0;" parent="1" edge="1">
          <mxGeometry width="50" height="50" relative="1" as="geometry">
            <mxPoint x="610" y="312.5" as="sourcePoint" />
            <mxPoint x="610" y="282.5" as="targetPoint" />
          </mxGeometry>
        </mxCell>
        <mxCell id="d6hsDpmaimq01Mf73dcw-55" value="" style="shape=partialRectangle;whiteSpace=wrap;html=1;bottom=0;top=0;fillColor=none;" parent="1" vertex="1">
          <mxGeometry x="230" y="282.5" width="10" height="30" as="geometry" />
        </mxCell>
        <mxCell id="d6hsDpmaimq01Mf73dcw-56" value="Thẻ bạn đọc" style="rounded=0;whiteSpace=wrap;html=1;" parent="1" vertex="1">
          <mxGeometry x="80" y="357.5" width="120" height="40" as="geometry" />
        </mxCell>
        <mxCell id="d6hsDpmaimq01Mf73dcw-57" value="Sách" style="rounded=0;whiteSpace=wrap;html=1;" parent="1" vertex="1">
          <mxGeometry x="640" y="357.5" width="120" height="40" as="geometry" />
        </mxCell>
        <mxCell id="d6hsDpmaimq01Mf73dcw-58" value="" style="triangle;whiteSpace=wrap;html=1;rotation=-180;" parent="1" vertex="1">
          <mxGeometry x="610" y="357.5" width="30" height="40" as="geometry" />
        </mxCell>
        <mxCell id="d6hsDpmaimq01Mf73dcw-59" value="" style="line;strokeWidth=2;html=1;" parent="1" vertex="1">
          <mxGeometry x="200" y="372.5" width="160" height="10" as="geometry" />
        </mxCell>
        <mxCell id="d6hsDpmaimq01Mf73dcw-60" value="&lt;font style=&quot;font-size: 14px;&quot;&gt;Mượn&lt;/font&gt;" style="html=1;whiteSpace=wrap;aspect=fixed;shape=isoRectangle;" parent="1" vertex="1">
          <mxGeometry x="360" y="340" width="125" height="75" as="geometry" />
        </mxCell>
        <mxCell id="d6hsDpmaimq01Mf73dcw-61" value="" style="line;strokeWidth=2;html=1;" parent="1" vertex="1">
          <mxGeometry x="485" y="372.5" width="125" height="10" as="geometry" />
        </mxCell>
        <mxCell id="d6hsDpmaimq01Mf73dcw-62" value="" style="endArrow=none;html=1;rounded=0;" parent="1" edge="1">
          <mxGeometry width="50" height="50" relative="1" as="geometry">
            <mxPoint x="610" y="392.5" as="sourcePoint" />
            <mxPoint x="610" y="362.5" as="targetPoint" />
          </mxGeometry>
        </mxCell>
        <mxCell id="d6hsDpmaimq01Mf73dcw-63" value="" style="shape=partialRectangle;whiteSpace=wrap;html=1;bottom=0;top=0;fillColor=none;" parent="1" vertex="1">
          <mxGeometry x="230" y="362.5" width="10" height="30" as="geometry" />
        </mxCell>
        <mxCell id="mCJPYDnwbU01uNI-4EC1-1" value="Bạn đọc" style="rounded=0;whiteSpace=wrap;html=1;" vertex="1" parent="1">
          <mxGeometry x="80" y="438.5" width="120" height="40" as="geometry" />
        </mxCell>
        <mxCell id="mCJPYDnwbU01uNI-4EC1-2" value="Phòng" style="rounded=0;whiteSpace=wrap;html=1;" vertex="1" parent="1">
          <mxGeometry x="640" y="438.5" width="120" height="40" as="geometry" />
        </mxCell>
        <mxCell id="mCJPYDnwbU01uNI-4EC1-3" value="" style="triangle;whiteSpace=wrap;html=1;rotation=-180;" vertex="1" parent="1">
          <mxGeometry x="610" y="438.5" width="30" height="40" as="geometry" />
        </mxCell>
        <mxCell id="mCJPYDnwbU01uNI-4EC1-4" value="" style="line;strokeWidth=2;html=1;" vertex="1" parent="1">
          <mxGeometry x="200" y="453.5" width="160" height="10" as="geometry" />
        </mxCell>
        <mxCell id="mCJPYDnwbU01uNI-4EC1-5" value="&lt;font style=&quot;font-size: 14px;&quot;&gt;Mượn&lt;/font&gt;" style="html=1;whiteSpace=wrap;aspect=fixed;shape=isoRectangle;" vertex="1" parent="1">
          <mxGeometry x="360" y="421" width="125" height="75" as="geometry" />
        </mxCell>
        <mxCell id="mCJPYDnwbU01uNI-4EC1-6" value="" style="line;strokeWidth=2;html=1;" vertex="1" parent="1">
          <mxGeometry x="485" y="453.5" width="125" height="10" as="geometry" />
        </mxCell>
        <mxCell id="mCJPYDnwbU01uNI-4EC1-7" value="" style="endArrow=none;html=1;rounded=0;" edge="1" parent="1">
          <mxGeometry width="50" height="50" relative="1" as="geometry">
            <mxPoint x="610" y="473.5" as="sourcePoint" />
            <mxPoint x="610" y="443.5" as="targetPoint" />
          </mxGeometry>
        </mxCell>
        <mxCell id="mCJPYDnwbU01uNI-4EC1-8" value="" style="shape=partialRectangle;whiteSpace=wrap;html=1;bottom=0;top=0;fillColor=none;" vertex="1" parent="1">
          <mxGeometry x="230" y="443.5" width="10" height="30" as="geometry" />
        </mxCell>
        <mxCell id="mCJPYDnwbU01uNI-4EC1-9" value="Thẻ bạn đọc" style="rounded=0;whiteSpace=wrap;html=1;" vertex="1" parent="1">
          <mxGeometry x="80" y="520.5" width="120" height="40" as="geometry" />
        </mxCell>
        <mxCell id="mCJPYDnwbU01uNI-4EC1-10" value="Phòng" style="rounded=0;whiteSpace=wrap;html=1;" vertex="1" parent="1">
          <mxGeometry x="640" y="520.5" width="120" height="40" as="geometry" />
        </mxCell>
        <mxCell id="mCJPYDnwbU01uNI-4EC1-11" value="" style="triangle;whiteSpace=wrap;html=1;rotation=-180;" vertex="1" parent="1">
          <mxGeometry x="610" y="520.5" width="30" height="40" as="geometry" />
        </mxCell>
        <mxCell id="mCJPYDnwbU01uNI-4EC1-12" value="" style="line;strokeWidth=2;html=1;" vertex="1" parent="1">
          <mxGeometry x="200" y="535.5" width="160" height="10" as="geometry" />
        </mxCell>
        <mxCell id="mCJPYDnwbU01uNI-4EC1-13" value="&lt;font style=&quot;font-size: 14px;&quot;&gt;Mượn&lt;/font&gt;" style="html=1;whiteSpace=wrap;aspect=fixed;shape=isoRectangle;" vertex="1" parent="1">
          <mxGeometry x="360" y="503" width="125" height="75" as="geometry" />
        </mxCell>
        <mxCell id="mCJPYDnwbU01uNI-4EC1-14" value="" style="line;strokeWidth=2;html=1;" vertex="1" parent="1">
          <mxGeometry x="485" y="535.5" width="125" height="10" as="geometry" />
        </mxCell>
        <mxCell id="mCJPYDnwbU01uNI-4EC1-15" value="" style="endArrow=none;html=1;rounded=0;" edge="1" parent="1">
          <mxGeometry width="50" height="50" relative="1" as="geometry">
            <mxPoint x="610" y="555.5" as="sourcePoint" />
            <mxPoint x="610" y="525.5" as="targetPoint" />
          </mxGeometry>
        </mxCell>
        <mxCell id="mCJPYDnwbU01uNI-4EC1-16" value="" style="shape=partialRectangle;whiteSpace=wrap;html=1;bottom=0;top=0;fillColor=none;" vertex="1" parent="1">
          <mxGeometry x="230" y="525.5" width="10" height="30" as="geometry" />
        </mxCell>
      </root>
    </mxGraphModel>
  </diagram>
  <diagram id="gehf_b2xJujB_lnGTqoU" name="Sơ đồ mức đỉnh">
    <mxGraphModel dx="1779" dy="1205" grid="0" gridSize="10" guides="1" tooltips="1" connect="1" arrows="1" fold="1" page="0" pageScale="1" pageWidth="827" pageHeight="1169" math="0" shadow="0">
      <root>
        <mxCell id="0" />
        <mxCell id="1" parent="0" />
        <mxCell id="9__kO8r2BGrw56kiDN5l-1" value="&lt;b&gt;1. Quản lý sách&lt;/b&gt;" style="ellipse;whiteSpace=wrap;html=1;" parent="1" vertex="1">
          <mxGeometry x="-197" y="52" width="138" height="79" as="geometry" />
        </mxCell>
        <mxCell id="9__kO8r2BGrw56kiDN5l-4" value="&lt;b&gt;2. Quản lý mượn trả&lt;/b&gt;" style="ellipse;whiteSpace=wrap;html=1;" parent="1" vertex="1">
          <mxGeometry x="42.5" y="190.75" width="138" height="79" as="geometry" />
        </mxCell>
        <mxCell id="9__kO8r2BGrw56kiDN5l-5" value="&lt;b&gt;2. Quản lý đặt phòng&lt;br&gt;&lt;/b&gt;" style="ellipse;whiteSpace=wrap;html=1;" parent="1" vertex="1">
          <mxGeometry x="383" y="418" width="138" height="79" as="geometry" />
        </mxCell>
        <mxCell id="9__kO8r2BGrw56kiDN5l-6" value="&lt;b&gt;5. Trung tâm thông báo&lt;/b&gt;" style="ellipse;whiteSpace=wrap;html=1;" parent="1" vertex="1">
          <mxGeometry x="-6" y="408" width="138" height="79" as="geometry" />
        </mxCell>
        <mxCell id="9__kO8r2BGrw56kiDN5l-13" value="" style="endArrow=classic;html=1;rounded=0;exitX=0.914;exitY=0.24;exitDx=0;exitDy=0;exitPerimeter=0;entryX=0.75;entryY=1;entryDx=0;entryDy=0;" parent="1" source="9__kO8r2BGrw56kiDN5l-1" target="lolFxNDzhM9YNc3uvoBU-10" edge="1">
          <mxGeometry width="50" height="50" relative="1" as="geometry">
            <mxPoint x="16.53" y="79.87" as="sourcePoint" />
            <mxPoint x="451" y="82" as="targetPoint" />
          </mxGeometry>
        </mxCell>
        <mxCell id="9__kO8r2BGrw56kiDN5l-18" value="" style="endArrow=classic;html=1;rounded=0;exitX=0.765;exitY=0.926;exitDx=0;exitDy=0;exitPerimeter=0;entryX=0.059;entryY=0.304;entryDx=0;entryDy=0;entryPerimeter=0;" parent="1" edge="1">
          <mxGeometry width="50" height="50" relative="1" as="geometry">
            <mxPoint x="-94.00000000000006" y="131.004" as="sourcePoint" />
            <mxPoint x="48.071999999999825" y="220.61599999999984" as="targetPoint" />
          </mxGeometry>
        </mxCell>
        <mxCell id="9__kO8r2BGrw56kiDN5l-19" value="Bạn đọc" style="rounded=0;whiteSpace=wrap;html=1;" parent="1" vertex="1">
          <mxGeometry x="361" y="187.5" width="121" height="65.5" as="geometry" />
        </mxCell>
        <mxCell id="9__kO8r2BGrw56kiDN5l-20" value="" style="endArrow=classic;html=1;rounded=0;" parent="1" edge="1">
          <mxGeometry width="50" height="50" relative="1" as="geometry">
            <mxPoint x="443" y="256" as="sourcePoint" />
            <mxPoint x="443" y="422" as="targetPoint" />
          </mxGeometry>
        </mxCell>
        <mxCell id="9__kO8r2BGrw56kiDN5l-22" value="" style="endArrow=classic;html=1;rounded=0;entryX=0.336;entryY=1.023;entryDx=0;entryDy=0;entryPerimeter=0;" parent="1" target="9__kO8r2BGrw56kiDN5l-19" edge="1">
          <mxGeometry width="50" height="50" relative="1" as="geometry">
            <mxPoint x="402" y="427" as="sourcePoint" />
            <mxPoint x="218" y="331" as="targetPoint" />
          </mxGeometry>
        </mxCell>
        <mxCell id="9__kO8r2BGrw56kiDN5l-27" value="" style="endArrow=classic;html=1;rounded=0;entryX=0.25;entryY=1;entryDx=0;entryDy=0;" parent="1" source="9__kO8r2BGrw56kiDN5l-6" target="9__kO8r2BGrw56kiDN5l-19" edge="1">
          <mxGeometry width="50" height="50" relative="1" as="geometry">
            <mxPoint x="-442.99999999999994" y="339" as="sourcePoint" />
            <mxPoint x="-112.38799999999986" y="461.4200000000001" as="targetPoint" />
          </mxGeometry>
        </mxCell>
        <mxCell id="lolFxNDzhM9YNc3uvoBU-1" value="" style="endArrow=classic;html=1;rounded=0;exitX=0.285;exitY=0.933;exitDx=0;exitDy=0;exitPerimeter=0;entryX=0.655;entryY=0.008;entryDx=0;entryDy=0;entryPerimeter=0;" parent="1" source="9__kO8r2BGrw56kiDN5l-4" target="9__kO8r2BGrw56kiDN5l-6" edge="1">
          <mxGeometry width="50" height="50" relative="1" as="geometry">
            <mxPoint x="26.814000000000078" y="256.99599999999987" as="sourcePoint" />
            <mxPoint x="-77.5" y="360.51" as="targetPoint" />
          </mxGeometry>
        </mxCell>
        <mxCell id="lolFxNDzhM9YNc3uvoBU-5" value="" style="endArrow=classic;html=1;rounded=0;exitX=-0.005;exitY=0.136;exitDx=0;exitDy=0;entryX=0.796;entryY=0.061;entryDx=0;entryDy=0;exitPerimeter=0;entryPerimeter=0;" parent="1" source="9__kO8r2BGrw56kiDN5l-19" target="9__kO8r2BGrw56kiDN5l-4" edge="1">
          <mxGeometry width="50" height="50" relative="1" as="geometry">
            <mxPoint x="361.14" y="203.375" as="sourcePoint" />
            <mxPoint x="160.85679863051348" y="202.06555077033613" as="targetPoint" />
          </mxGeometry>
        </mxCell>
        <mxCell id="lolFxNDzhM9YNc3uvoBU-6" value="" style="endArrow=classic;html=1;rounded=0;entryX=0.964;entryY=0.731;entryDx=0;entryDy=0;entryPerimeter=0;exitX=0.257;exitY=0.066;exitDx=0;exitDy=0;exitPerimeter=0;" parent="1" source="9__kO8r2BGrw56kiDN5l-4" edge="1" target="9__kO8r2BGrw56kiDN5l-1">
          <mxGeometry width="50" height="50" relative="1" as="geometry">
            <mxPoint x="74" y="191" as="sourcePoint" />
            <mxPoint x="8.258000000000038" y="124.99600000000001" as="targetPoint" />
          </mxGeometry>
        </mxCell>
        <mxCell id="lolFxNDzhM9YNc3uvoBU-8" value="" style="endArrow=classic;html=1;rounded=0;exitX=0.97;exitY=0.345;exitDx=0;exitDy=0;exitPerimeter=0;" parent="1" source="9__kO8r2BGrw56kiDN5l-4" edge="1">
          <mxGeometry width="50" height="50" relative="1" as="geometry">
            <mxPoint x="223.61199999999997" y="200.043" as="sourcePoint" />
            <mxPoint x="357" y="222" as="targetPoint" />
          </mxGeometry>
        </mxCell>
        <mxCell id="lolFxNDzhM9YNc3uvoBU-10" value="" style="shape=partialRectangle;whiteSpace=wrap;html=1;top=0;bottom=0;fillColor=none;rotation=90;" parent="1" vertex="1">
          <mxGeometry x="621" y="23" width="28" height="102" as="geometry" />
        </mxCell>
        <mxCell id="lolFxNDzhM9YNc3uvoBU-11" value="Kho sách" style="text;html=1;align=center;verticalAlign=middle;resizable=0;points=[];autosize=1;strokeColor=none;fillColor=none;" parent="1" vertex="1">
          <mxGeometry x="598" y="61" width="68" height="26" as="geometry" />
        </mxCell>
        <mxCell id="lolFxNDzhM9YNc3uvoBU-16" value="" style="endArrow=classic;html=1;rounded=0;entryX=0;entryY=0;entryDx=0;entryDy=0;" parent="1" target="9__kO8r2BGrw56kiDN5l-6" edge="1">
          <mxGeometry width="50" height="50" relative="1" as="geometry">
            <mxPoint x="-194" y="417" as="sourcePoint" />
            <mxPoint x="-28.504000000000104" y="427.33000000000004" as="targetPoint" />
          </mxGeometry>
        </mxCell>
        <mxCell id="lolFxNDzhM9YNc3uvoBU-17" value="" style="endArrow=classic;html=1;rounded=0;exitX=0.006;exitY=0.425;exitDx=0;exitDy=0;exitPerimeter=0;" parent="1" source="9__kO8r2BGrw56kiDN5l-6" edge="1">
          <mxGeometry width="50" height="50" relative="1" as="geometry">
            <mxPoint x="-20.5" y="457.51" as="sourcePoint" />
            <mxPoint x="-192" y="442" as="targetPoint" />
          </mxGeometry>
        </mxCell>
        <mxCell id="lolFxNDzhM9YNc3uvoBU-18" value="" style="endArrow=classic;html=1;rounded=0;exitX=0;exitY=0.5;exitDx=0;exitDy=0;" parent="1" source="9__kO8r2BGrw56kiDN5l-5" edge="1" target="9__kO8r2BGrw56kiDN5l-6">
          <mxGeometry width="50" height="50" relative="1" as="geometry">
            <mxPoint x="73" y="441" as="sourcePoint" />
            <mxPoint x="93" y="406" as="targetPoint" />
          </mxGeometry>
        </mxCell>
        <mxCell id="lolFxNDzhM9YNc3uvoBU-37" value="Cập nhật ghi mượn" style="text;html=1;align=center;verticalAlign=middle;resizable=0;points=[];autosize=1;strokeColor=none;fillColor=none;" parent="1" vertex="1">
          <mxGeometry x="214.5" y="127" width="122" height="26" as="geometry" />
        </mxCell>
        <mxCell id="lolFxNDzhM9YNc3uvoBU-39" value="Trả sách" style="text;html=1;align=center;verticalAlign=middle;resizable=0;points=[];autosize=1;strokeColor=none;fillColor=none;rotation=0;" parent="1" vertex="1">
          <mxGeometry x="239.5" y="169" width="64" height="26" as="geometry" />
        </mxCell>
        <mxCell id="Fj0cvhKMTpGvPeWBjuWT-9" value="" style="endArrow=classic;html=1;rounded=0;exitX=0.794;exitY=0.07;exitDx=0;exitDy=0;exitPerimeter=0;" parent="1" source="9__kO8r2BGrw56kiDN5l-1" edge="1">
          <mxGeometry width="50" height="50" relative="1" as="geometry">
            <mxPoint x="18" y="193.25" as="sourcePoint" />
            <mxPoint x="10" y="-28.75" as="targetPoint" />
          </mxGeometry>
        </mxCell>
        <mxCell id="rzae6eII2sFbr16Mfz9n-1" value="" style="shape=partialRectangle;whiteSpace=wrap;html=1;top=0;bottom=0;fillColor=none;rotation=-180;" vertex="1" parent="1">
          <mxGeometry x="689" y="373" width="34" height="102" as="geometry" />
        </mxCell>
        <mxCell id="rzae6eII2sFbr16Mfz9n-2" value="Phòng" style="text;html=1;align=center;verticalAlign=middle;resizable=0;points=[];autosize=1;strokeColor=none;fillColor=none;rotation=90;" vertex="1" parent="1">
          <mxGeometry x="675" y="408" width="53" height="26" as="geometry" />
        </mxCell>
        <mxCell id="rzae6eII2sFbr16Mfz9n-5" value="" style="endArrow=classic;html=1;rounded=0;exitX=0.92;exitY=0.273;exitDx=0;exitDy=0;exitPerimeter=0;" edge="1" parent="1" source="9__kO8r2BGrw56kiDN5l-5">
          <mxGeometry width="50" height="50" relative="1" as="geometry">
            <mxPoint x="542" y="428.63200000000006" as="sourcePoint" />
            <mxPoint x="688" y="440" as="targetPoint" />
          </mxGeometry>
        </mxCell>
        <mxCell id="rzae6eII2sFbr16Mfz9n-6" value="Phòng" style="text;html=1;align=center;verticalAlign=middle;resizable=0;points=[];autosize=1;strokeColor=none;fillColor=none;rotation=-90;" vertex="1" parent="1">
          <mxGeometry x="388" y="335" width="53" height="26" as="geometry" />
        </mxCell>
        <mxCell id="rzae6eII2sFbr16Mfz9n-7" value="Thông tin bạn đọc" style="text;html=1;align=center;verticalAlign=middle;resizable=0;points=[];autosize=1;strokeColor=none;fillColor=none;rotation=30;" vertex="1" parent="1">
          <mxGeometry x="-51" y="122" width="114" height="26" as="geometry" />
        </mxCell>
        <mxCell id="rzae6eII2sFbr16Mfz9n-9" value="Sách" style="text;html=1;align=center;verticalAlign=middle;resizable=0;points=[];autosize=1;strokeColor=none;fillColor=none;" vertex="1" parent="1">
          <mxGeometry x="253" y="199.75" width="45" height="26" as="geometry" />
        </mxCell>
        <mxCell id="rzae6eII2sFbr16Mfz9n-11" value="Thông tin bạn đọc&amp;nbsp;&lt;div&gt;vi phạm&lt;/div&gt;" style="text;html=1;align=center;verticalAlign=middle;resizable=0;points=[];autosize=1;strokeColor=none;fillColor=none;rotation=-90;" vertex="1" parent="1">
          <mxGeometry x="4.5" y="310" width="117" height="41" as="geometry" />
        </mxCell>
        <mxCell id="rzae6eII2sFbr16Mfz9n-12" value="" style="endArrow=none;html=1;rounded=0;" edge="1" parent="1">
          <mxGeometry width="50" height="50" relative="1" as="geometry">
            <mxPoint x="-241" y="482" as="sourcePoint" />
            <mxPoint x="-241" y="366" as="targetPoint" />
          </mxGeometry>
        </mxCell>
        <mxCell id="rzae6eII2sFbr16Mfz9n-14" value="vi phạm" style="text;html=1;align=center;verticalAlign=middle;resizable=0;points=[];autosize=1;strokeColor=none;fillColor=none;rotation=-85;" vertex="1" parent="1">
          <mxGeometry x="-245" y="415" width="60" height="26" as="geometry" />
        </mxCell>
        <mxCell id="rzae6eII2sFbr16Mfz9n-17" value="Mức phạt" style="text;html=1;align=center;verticalAlign=middle;resizable=0;points=[];autosize=1;strokeColor=none;fillColor=none;rotation=-45;" vertex="1" parent="1">
          <mxGeometry x="286" y="290" width="69" height="26" as="geometry" />
        </mxCell>
        <mxCell id="rzae6eII2sFbr16Mfz9n-18" value="" style="endArrow=classic;html=1;rounded=0;entryX=0.976;entryY=0.649;entryDx=0;entryDy=0;exitX=0;exitY=0.855;exitDx=0;exitDy=0;exitPerimeter=0;entryPerimeter=0;" edge="1" parent="1" source="9__kO8r2BGrw56kiDN5l-19" target="9__kO8r2BGrw56kiDN5l-4">
          <mxGeometry width="50" height="50" relative="1" as="geometry">
            <mxPoint x="400" y="223" as="sourcePoint" />
            <mxPoint x="216" y="223" as="targetPoint" />
          </mxGeometry>
        </mxCell>
        <mxCell id="rzae6eII2sFbr16Mfz9n-19" value="Thẻ bạn đọc&lt;div&gt;&lt;br&gt;&lt;/div&gt;" style="text;html=1;align=center;verticalAlign=middle;resizable=0;points=[];autosize=1;strokeColor=none;fillColor=none;rotation=0;" vertex="1" parent="1">
          <mxGeometry x="229" y="218.25" width="85" height="41" as="geometry" />
        </mxCell>
        <mxCell id="rzae6eII2sFbr16Mfz9n-22" value="Thẻ bạn đọc&lt;div&gt;&lt;br&gt;&lt;/div&gt;" style="text;html=1;align=center;verticalAlign=middle;resizable=0;points=[];autosize=1;strokeColor=none;fillColor=none;rotation=-90;" vertex="1" parent="1">
          <mxGeometry x="418" y="302" width="85" height="41" as="geometry" />
        </mxCell>
        <mxCell id="rzae6eII2sFbr16Mfz9n-23" value="&lt;span style=&quot;background-color: light-dark(#ffffff, var(--ge-dark-color, #121212));&quot;&gt;&lt;br&gt;&lt;span style=&quot;color: rgb(0, 0, 0); font-family: Helvetica; font-size: 12px; font-style: normal; font-variant-ligatures: normal; font-variant-caps: normal; font-weight: 400; letter-spacing: normal; orphans: 2; text-align: center; text-indent: 0px; text-transform: none; widows: 2; word-spacing: 0px; -webkit-text-stroke-width: 0px; white-space: nowrap; text-decoration-thickness: initial; text-decoration-style: initial; text-decoration-color: initial; float: none; display: inline !important;&quot;&gt;Thông tin bạn đọc vi phạm&lt;/span&gt;&lt;/span&gt;" style="text;html=1;align=center;verticalAlign=middle;resizable=0;points=[];autosize=1;strokeColor=none;fillColor=none;rotation=0;" vertex="1" parent="1">
          <mxGeometry x="229" y="412" width="159" height="41" as="geometry" />
        </mxCell>
        <mxCell id="rzae6eII2sFbr16Mfz9n-24" value="Thông tin bạn đọc" style="text;html=1;align=center;verticalAlign=middle;resizable=0;points=[];autosize=1;strokeColor=none;fillColor=none;rotation=0;" vertex="1" parent="1">
          <mxGeometry x="537" y="432" width="114" height="26" as="geometry" />
        </mxCell>
        <mxCell id="rzae6eII2sFbr16Mfz9n-25" value="" style="endArrow=classic;html=1;rounded=0;exitX=0.698;exitY=0.011;exitDx=0;exitDy=0;exitPerimeter=0;" edge="1" parent="1" source="9__kO8r2BGrw56kiDN5l-5">
          <mxGeometry width="50" height="50" relative="1" as="geometry">
            <mxPoint x="506" y="409" as="sourcePoint" />
            <mxPoint x="689" y="421" as="targetPoint" />
          </mxGeometry>
        </mxCell>
        <mxCell id="rzae6eII2sFbr16Mfz9n-27" value="Yêu cầu của bạn đọc" style="text;html=1;align=center;verticalAlign=middle;resizable=0;points=[];autosize=1;strokeColor=none;fillColor=none;rotation=0;" vertex="1" parent="1">
          <mxGeometry x="521" y="396" width="131" height="26" as="geometry" />
        </mxCell>
        <mxCell id="rzae6eII2sFbr16Mfz9n-28" value="" style="endArrow=classic;html=1;rounded=0;exitX=1.088;exitY=0.153;exitDx=0;exitDy=0;exitPerimeter=0;" edge="1" parent="1" source="rzae6eII2sFbr16Mfz9n-1">
          <mxGeometry width="50" height="50" relative="1" as="geometry">
            <mxPoint x="152" y="231" as="sourcePoint" />
            <mxPoint x="522" y="460" as="targetPoint" />
          </mxGeometry>
        </mxCell>
        <mxCell id="rzae6eII2sFbr16Mfz9n-32" value="" style="endArrow=classic;html=1;rounded=0;entryX=0.679;entryY=0.02;entryDx=0;entryDy=0;entryPerimeter=0;exitX=0.281;exitY=0.008;exitDx=0;exitDy=0;exitPerimeter=0;" edge="1" parent="1" source="9__kO8r2BGrw56kiDN5l-19" target="9__kO8r2BGrw56kiDN5l-4">
          <mxGeometry width="50" height="50" relative="1" as="geometry">
            <mxPoint x="390" y="184" as="sourcePoint" />
            <mxPoint x="202" y="181" as="targetPoint" />
            <Array as="points">
              <mxPoint x="392" y="151" />
              <mxPoint x="136" y="151" />
            </Array>
          </mxGeometry>
        </mxCell>
        <mxCell id="rzae6eII2sFbr16Mfz9n-34" value="Danh sách&amp;nbsp;&lt;div&gt;sách nhập&lt;/div&gt;" style="text;html=1;align=center;verticalAlign=middle;resizable=0;points=[];autosize=1;strokeColor=none;fillColor=none;rotation=-45;" vertex="1" parent="1">
          <mxGeometry x="-91" y="-21.5" width="79" height="41" as="geometry" />
        </mxCell>
        <mxCell id="rzae6eII2sFbr16Mfz9n-36" value="&lt;b&gt;4. Quản lý kho và nhập sách&lt;/b&gt;" style="ellipse;whiteSpace=wrap;html=1;" vertex="1" parent="1">
          <mxGeometry x="233" y="-90.5" width="138" height="79" as="geometry" />
        </mxCell>
        <mxCell id="rzae6eII2sFbr16Mfz9n-37" value="NCC" style="rounded=0;whiteSpace=wrap;html=1;" vertex="1" parent="1">
          <mxGeometry x="0.5" y="-73.5" width="111" height="45" as="geometry" />
        </mxCell>
        <mxCell id="rzae6eII2sFbr16Mfz9n-38" value="" style="endArrow=classic;html=1;rounded=0;entryX=1;entryY=0.25;entryDx=0;entryDy=0;exitX=0.019;exitY=0.371;exitDx=0;exitDy=0;exitPerimeter=0;" edge="1" target="rzae6eII2sFbr16Mfz9n-37" parent="1" source="rzae6eII2sFbr16Mfz9n-36">
          <mxGeometry width="50" height="50" relative="1" as="geometry">
            <mxPoint x="235.67000000000002" y="-65" as="sourcePoint" />
            <mxPoint x="116.5" y="-65" as="targetPoint" />
          </mxGeometry>
        </mxCell>
        <mxCell id="rzae6eII2sFbr16Mfz9n-39" value="" style="endArrow=classic;html=1;rounded=0;exitX=1;exitY=0.75;exitDx=0;exitDy=0;entryX=0.014;entryY=0.644;entryDx=0;entryDy=0;entryPerimeter=0;" edge="1" source="rzae6eII2sFbr16Mfz9n-37" target="rzae6eII2sFbr16Mfz9n-36" parent="1">
          <mxGeometry width="50" height="50" relative="1" as="geometry">
            <mxPoint x="367.5" y="17" as="sourcePoint" />
            <mxPoint x="226.5" y="-40" as="targetPoint" />
          </mxGeometry>
        </mxCell>
        <mxCell id="rzae6eII2sFbr16Mfz9n-40" value="" style="edgeStyle=elbowEdgeStyle;elbow=vertical;endArrow=classic;html=1;curved=0;rounded=0;endSize=8;startSize=8;" edge="1" parent="1">
          <mxGeometry width="50" height="50" relative="1" as="geometry">
            <mxPoint x="70.5" y="-75" as="sourcePoint" />
            <mxPoint x="254.5" y="-83" as="targetPoint" />
            <Array as="points">
              <mxPoint x="166.5" y="-112" />
            </Array>
          </mxGeometry>
        </mxCell>
        <mxCell id="rzae6eII2sFbr16Mfz9n-41" value="" style="edgeStyle=elbowEdgeStyle;elbow=vertical;endArrow=classic;html=1;curved=0;rounded=0;endSize=8;startSize=8;exitX=0.346;exitY=-0.074;exitDx=0;exitDy=0;exitPerimeter=0;" edge="1" source="rzae6eII2sFbr16Mfz9n-37" parent="1">
          <mxGeometry width="50" height="50" relative="1" as="geometry">
            <mxPoint x="16.5" y="-74" as="sourcePoint" />
            <mxPoint x="280.5" y="-90" as="targetPoint" />
            <Array as="points">
              <mxPoint x="148.5" y="-148" />
            </Array>
          </mxGeometry>
        </mxCell>
        <mxCell id="rzae6eII2sFbr16Mfz9n-42" value="" style="edgeStyle=elbowEdgeStyle;elbow=vertical;endArrow=classic;html=1;curved=0;rounded=0;endSize=8;startSize=8;exitX=0.617;exitY=1.05;exitDx=0;exitDy=0;exitPerimeter=0;" edge="1" parent="1">
          <mxGeometry width="50" height="50" relative="1" as="geometry">
            <mxPoint x="69.50499999999977" y="-28.500000000000043" as="sourcePoint" />
            <mxPoint x="253.61" y="-22.09999999999988" as="targetPoint" />
            <Array as="points">
              <mxPoint x="160.89" y="9.699999999999989" />
            </Array>
          </mxGeometry>
        </mxCell>
        <mxCell id="rzae6eII2sFbr16Mfz9n-43" value="" style="edgeStyle=elbowEdgeStyle;elbow=vertical;endArrow=classic;html=1;curved=0;rounded=0;endSize=8;startSize=8;exitX=0.346;exitY=1.01;exitDx=0;exitDy=0;exitPerimeter=0;" edge="1" source="rzae6eII2sFbr16Mfz9n-37" parent="1">
          <mxGeometry width="50" height="50" relative="1" as="geometry">
            <mxPoint x="17.25" y="-28.5" as="sourcePoint" />
            <mxPoint x="277.5" y="-12" as="targetPoint" />
            <Array as="points">
              <mxPoint x="147.5" y="47" />
            </Array>
          </mxGeometry>
        </mxCell>
        <mxCell id="rzae6eII2sFbr16Mfz9n-45" value="Phiếu nhập" style="text;html=1;align=center;verticalAlign=middle;resizable=0;points=[];autosize=1;strokeColor=none;fillColor=none;" vertex="1" parent="1">
          <mxGeometry x="127" y="-141" width="79" height="26" as="geometry" />
        </mxCell>
        <mxCell id="rzae6eII2sFbr16Mfz9n-46" value="Sách" style="text;html=1;align=center;verticalAlign=middle;resizable=0;points=[];autosize=1;strokeColor=none;fillColor=none;" vertex="1" parent="1">
          <mxGeometry x="135.5" y="-115" width="45" height="26" as="geometry" />
        </mxCell>
        <mxCell id="rzae6eII2sFbr16Mfz9n-47" value="Danh sách sách nhập" style="text;html=1;align=center;verticalAlign=middle;resizable=0;points=[];autosize=1;strokeColor=none;fillColor=none;" vertex="1" parent="1">
          <mxGeometry x="112.5" y="-91" width="134" height="26" as="geometry" />
        </mxCell>
        <mxCell id="rzae6eII2sFbr16Mfz9n-48" value="Trao đổi" style="text;html=1;align=center;verticalAlign=middle;resizable=0;points=[];autosize=1;strokeColor=none;fillColor=none;" vertex="1" parent="1">
          <mxGeometry x="135.5" y="-41" width="62" height="26" as="geometry" />
        </mxCell>
        <mxCell id="rzae6eII2sFbr16Mfz9n-49" value="Thanh toán" style="text;html=1;align=center;verticalAlign=middle;resizable=0;points=[];autosize=1;strokeColor=none;fillColor=none;" vertex="1" parent="1">
          <mxGeometry x="118.5" y="26" width="79" height="26" as="geometry" />
        </mxCell>
        <mxCell id="rzae6eII2sFbr16Mfz9n-50" value="Báo giá" style="text;html=1;align=center;verticalAlign=middle;resizable=0;points=[];autosize=1;strokeColor=none;fillColor=none;" vertex="1" parent="1">
          <mxGeometry x="132" y="-14" width="59" height="26" as="geometry" />
        </mxCell>
        <mxCell id="rzae6eII2sFbr16Mfz9n-52" value="" style="endArrow=classic;html=1;rounded=0;entryX=-0.064;entryY=0.577;entryDx=0;entryDy=0;entryPerimeter=0;exitX=0.762;exitY=0.949;exitDx=0;exitDy=0;exitPerimeter=0;" edge="1" parent="1" source="rzae6eII2sFbr16Mfz9n-36" target="lolFxNDzhM9YNc3uvoBU-10">
          <mxGeometry width="50" height="50" relative="1" as="geometry">
            <mxPoint x="94" y="13" as="sourcePoint" />
            <mxPoint x="144" y="-37" as="targetPoint" />
          </mxGeometry>
        </mxCell>
        <mxCell id="rzae6eII2sFbr16Mfz9n-62" value="Sách" style="text;html=1;align=center;verticalAlign=middle;resizable=0;points=[];autosize=1;strokeColor=none;fillColor=none;rotation=30;" vertex="1" parent="1">
          <mxGeometry x="-67" y="141" width="45" height="26" as="geometry" />
        </mxCell>
        <mxCell id="rzae6eII2sFbr16Mfz9n-70" value="Phòng phù hợp" style="text;html=1;align=center;verticalAlign=middle;resizable=0;points=[];autosize=1;strokeColor=none;fillColor=none;" vertex="1" parent="1">
          <mxGeometry x="559" y="458" width="101" height="26" as="geometry" />
        </mxCell>
        <mxCell id="rzae6eII2sFbr16Mfz9n-74" value="" style="endArrow=none;html=1;rounded=0;" edge="1" parent="1">
          <mxGeometry width="50" height="50" relative="1" as="geometry">
            <mxPoint x="-191" y="484" as="sourcePoint" />
            <mxPoint x="-191" y="368" as="targetPoint" />
          </mxGeometry>
        </mxCell>
        <mxCell id="rzae6eII2sFbr16Mfz9n-78" value="Mức phạt" style="text;html=1;align=center;verticalAlign=middle;resizable=0;points=[];autosize=1;strokeColor=none;fillColor=none;" vertex="1" parent="1">
          <mxGeometry x="-147" y="386" width="69" height="26" as="geometry" />
        </mxCell>
        <mxCell id="rzae6eII2sFbr16Mfz9n-79" value="Thông tin bạn đọc vi phạm" style="text;html=1;align=center;verticalAlign=middle;resizable=0;points=[];autosize=1;strokeColor=none;fillColor=none;" vertex="1" parent="1">
          <mxGeometry x="-175" y="439" width="159" height="26" as="geometry" />
        </mxCell>
      </root>
    </mxGraphModel>
  </diagram>
  <diagram id="IG913MLhqk8OMUnd15ZK" name="sơ đồ mức dưới đỉnh quản lí vi phạm và phạt">
    <mxGraphModel dx="1036" dy="570" grid="0" gridSize="10" guides="1" tooltips="1" connect="1" arrows="1" fold="1" page="1" pageScale="1" pageWidth="827" pageHeight="1169" math="0" shadow="0">
      <root>
        <mxCell id="0" />
        <mxCell id="1" parent="0" />
        <mxCell id="y_F_JMy0XgfoAjvGCLW6-2" value="3. Quản lí và theo dõi vi phạm&amp;nbsp;" style="ellipse;whiteSpace=wrap;html=1;" parent="1" vertex="1">
          <mxGeometry x="331" y="475" width="140" height="60" as="geometry" />
        </mxCell>
        <mxCell id="y_F_JMy0XgfoAjvGCLW6-3" value="2. Tính toán và xử phạt" style="ellipse;whiteSpace=wrap;html=1;" parent="1" vertex="1">
          <mxGeometry x="508" y="172" width="150" height="60" as="geometry" />
        </mxCell>
        <mxCell id="y_F_JMy0XgfoAjvGCLW6-4" value="1. Ghi nhận vi phạm" style="ellipse;whiteSpace=wrap;html=1;" parent="1" vertex="1">
          <mxGeometry x="143" y="167" width="120" height="70" as="geometry" />
        </mxCell>
        <mxCell id="y_F_JMy0XgfoAjvGCLW6-11" value="" style="endArrow=none;html=1;rounded=0;" parent="1" edge="1">
          <mxGeometry width="50" height="50" relative="1" as="geometry">
            <mxPoint x="684" y="491.5" as="sourcePoint" />
            <mxPoint x="584" y="491.5" as="targetPoint" />
          </mxGeometry>
        </mxCell>
        <mxCell id="y_F_JMy0XgfoAjvGCLW6-12" value="" style="endArrow=none;html=1;rounded=0;" parent="1" edge="1">
          <mxGeometry width="50" height="50" relative="1" as="geometry">
            <mxPoint x="685.5" y="517.5" as="sourcePoint" />
            <mxPoint x="585.5" y="517.5" as="targetPoint" />
          </mxGeometry>
        </mxCell>
        <mxCell id="y_F_JMy0XgfoAjvGCLW6-13" value="Hóa đơn phạt" style="text;html=1;align=center;verticalAlign=middle;resizable=0;points=[];autosize=1;strokeColor=none;fillColor=none;" parent="1" vertex="1">
          <mxGeometry x="588.5" y="491.5" width="91" height="26" as="geometry" />
        </mxCell>
        <mxCell id="y_F_JMy0XgfoAjvGCLW6-17" value="" style="endArrow=classic;html=1;rounded=0;exitX=0.994;exitY=0.894;exitDx=0;exitDy=0;exitPerimeter=0;" parent="1" target="y_F_JMy0XgfoAjvGCLW6-4" edge="1">
          <mxGeometry width="50" height="50" relative="1" as="geometry">
            <mxPoint x="383.0298913731083" y="314.01709510605815" as="sourcePoint" />
            <mxPoint x="302" y="261" as="targetPoint" />
          </mxGeometry>
        </mxCell>
        <mxCell id="y_F_JMy0XgfoAjvGCLW6-18" value="" style="endArrow=classic;html=1;rounded=0;exitX=0.045;exitY=0.793;exitDx=0;exitDy=0;exitPerimeter=0;" parent="1" source="y_F_JMy0XgfoAjvGCLW6-3" edge="1">
          <mxGeometry width="50" height="50" relative="1" as="geometry">
            <mxPoint x="571.45" y="215.41999999999996" as="sourcePoint" />
            <mxPoint x="410" y="314" as="targetPoint" />
          </mxGeometry>
        </mxCell>
        <mxCell id="y_F_JMy0XgfoAjvGCLW6-19" value="" style="endArrow=classic;html=1;rounded=0;entryX=0.566;entryY=1.02;entryDx=0;entryDy=0;entryPerimeter=0;" parent="1" edge="1" target="Zd_qVadFLJGFR8I3f3VG-1" source="y_F_JMy0XgfoAjvGCLW6-2">
          <mxGeometry width="50" height="50" relative="1" as="geometry">
            <mxPoint x="188.02999999999997" y="360" as="sourcePoint" />
            <mxPoint x="344" y="396" as="targetPoint" />
          </mxGeometry>
        </mxCell>
        <mxCell id="Zd_qVadFLJGFR8I3f3VG-1" value="Bạn đọc" style="rounded=0;whiteSpace=wrap;html=1;" parent="1" vertex="1">
          <mxGeometry x="334" y="314" width="113" height="50" as="geometry" />
        </mxCell>
        <mxCell id="2u0P4RnsNUs-z1jZRrTc-1" value="" style="endArrow=none;html=1;rounded=0;" parent="1" edge="1">
          <mxGeometry width="50" height="50" relative="1" as="geometry">
            <mxPoint x="220" y="462" as="sourcePoint" />
            <mxPoint x="130" y="462" as="targetPoint" />
          </mxGeometry>
        </mxCell>
        <mxCell id="2u0P4RnsNUs-z1jZRrTc-2" value="" style="endArrow=none;html=1;rounded=0;" parent="1" edge="1">
          <mxGeometry width="50" height="50" relative="1" as="geometry">
            <mxPoint x="220" y="500" as="sourcePoint" />
            <mxPoint x="130" y="500" as="targetPoint" />
          </mxGeometry>
        </mxCell>
        <mxCell id="2u0P4RnsNUs-z1jZRrTc-3" value="Hồ sơ bạn đọc" style="text;html=1;align=center;verticalAlign=middle;resizable=0;points=[];autosize=1;strokeColor=none;fillColor=none;" parent="1" vertex="1">
          <mxGeometry x="130" y="464.5" width="100" height="30" as="geometry" />
        </mxCell>
        <mxCell id="j7EeQdEOTwNx1h2NmEaa-5" value="Cập nhật vi phạm" style="text;html=1;align=center;verticalAlign=middle;resizable=0;points=[];autosize=1;strokeColor=none;fillColor=none;rotation=90;" parent="1" vertex="1">
          <mxGeometry x="134" y="310" width="112" height="26" as="geometry" />
        </mxCell>
        <mxCell id="j7EeQdEOTwNx1h2NmEaa-6" value="Thông báo phạt&lt;div&gt;&amp;nbsp;và mức phạt&amp;nbsp;&lt;/div&gt;" style="text;html=1;align=center;verticalAlign=middle;resizable=0;points=[];autosize=1;strokeColor=none;fillColor=none;rotation=-45;" parent="1" vertex="1">
          <mxGeometry x="392" y="232" width="102" height="41" as="geometry" />
        </mxCell>
        <mxCell id="j7EeQdEOTwNx1h2NmEaa-10" value="&lt;p&gt;nộp phạt&lt;/p&gt;" style="text;html=1;align=center;verticalAlign=middle;resizable=0;points=[];autosize=1;strokeColor=none;fillColor=none;rotation=-45;fontFamily=Helvetica;" parent="1" vertex="1">
          <mxGeometry x="459" y="253" width="65" height="50" as="geometry" />
        </mxCell>
        <mxCell id="j7EeQdEOTwNx1h2NmEaa-11" value="" style="endArrow=classic;html=1;rounded=0;exitX=0.795;exitY=0.953;exitDx=0;exitDy=0;exitPerimeter=0;entryX=0.393;entryY=-0.023;entryDx=0;entryDy=0;entryPerimeter=0;" parent="1" source="y_F_JMy0XgfoAjvGCLW6-3" edge="1" target="y_F_JMy0XgfoAjvGCLW6-13">
          <mxGeometry width="50" height="50" relative="1" as="geometry">
            <mxPoint x="678" y="415" as="sourcePoint" />
            <mxPoint x="698" y="313" as="targetPoint" />
          </mxGeometry>
        </mxCell>
        <mxCell id="j7EeQdEOTwNx1h2NmEaa-16" value="" style="endArrow=classic;html=1;rounded=0;entryX=0;entryY=0.5;entryDx=0;entryDy=0;exitX=1;exitY=0.5;exitDx=0;exitDy=0;" parent="1" edge="1">
          <mxGeometry width="50" height="50" relative="1" as="geometry">
            <mxPoint x="447" y="331" as="sourcePoint" />
            <mxPoint x="564" y="232" as="targetPoint" />
          </mxGeometry>
        </mxCell>
        <mxCell id="j7EeQdEOTwNx1h2NmEaa-17" value="Theo dõi bạn đọc" style="text;html=1;align=center;verticalAlign=middle;resizable=0;points=[];autosize=1;strokeColor=none;fillColor=none;rotation=90;" parent="1" vertex="1">
          <mxGeometry x="356" y="408" width="111" height="26" as="geometry" />
        </mxCell>
        <mxCell id="SBriCWlALjqgAaenD97B-1" value="" style="endArrow=classic;html=1;rounded=0;entryX=0.96;entryY=0.27;entryDx=0;entryDy=0;entryPerimeter=0;exitX=0;exitY=1;exitDx=0;exitDy=0;" parent="1" target="y_F_JMy0XgfoAjvGCLW6-2" edge="1">
          <mxGeometry width="50" height="50" relative="1" as="geometry">
            <mxPoint x="609.126991411009" y="232.00320343559625" as="sourcePoint" />
            <mxPoint x="461.9999999999999" y="498.01000000000005" as="targetPoint" />
          </mxGeometry>
        </mxCell>
        <mxCell id="SBriCWlALjqgAaenD97B-2" value="" style="endArrow=classic;html=1;rounded=0;entryX=0;entryY=0.5;entryDx=0;entryDy=0;exitX=1;exitY=0.5;exitDx=0;exitDy=0;" parent="1" source="y_F_JMy0XgfoAjvGCLW6-4" target="y_F_JMy0XgfoAjvGCLW6-3" edge="1">
          <mxGeometry width="50" height="50" relative="1" as="geometry">
            <mxPoint x="352" y="337" as="sourcePoint" />
            <mxPoint x="402" y="287" as="targetPoint" />
          </mxGeometry>
        </mxCell>
        <mxCell id="jIybUHztOwASFzcobmvx-4" value="" style="endArrow=classic;html=1;rounded=0;exitX=0.29;exitY=0.931;exitDx=0;exitDy=0;exitPerimeter=0;" edge="1" parent="1" source="y_F_JMy0XgfoAjvGCLW6-4">
          <mxGeometry width="50" height="50" relative="1" as="geometry">
            <mxPoint x="393" y="325" as="sourcePoint" />
            <mxPoint x="176" y="463" as="targetPoint" />
          </mxGeometry>
        </mxCell>
        <mxCell id="jIybUHztOwASFzcobmvx-5" value="Sách quá hạn" style="text;html=1;align=center;verticalAlign=middle;resizable=0;points=[];autosize=1;strokeColor=none;fillColor=none;rotation=30;" vertex="1" parent="1">
          <mxGeometry x="276" y="250" width="92" height="26" as="geometry" />
        </mxCell>
        <mxCell id="jIybUHztOwASFzcobmvx-10" value="Danh sách vi phạm" style="text;html=1;align=center;verticalAlign=middle;resizable=0;points=[];autosize=1;strokeColor=none;fillColor=none;rotation=-60;" vertex="1" parent="1">
          <mxGeometry x="467" y="336" width="121" height="26" as="geometry" />
        </mxCell>
        <mxCell id="jIybUHztOwASFzcobmvx-11" value="" style="endArrow=classic;html=1;rounded=0;exitX=0;exitY=0;exitDx=0;exitDy=0;entryX=0.5;entryY=1;entryDx=0;entryDy=0;" edge="1" parent="1" source="y_F_JMy0XgfoAjvGCLW6-2" target="y_F_JMy0XgfoAjvGCLW6-4">
          <mxGeometry width="50" height="50" relative="1" as="geometry">
            <mxPoint x="396" y="325" as="sourcePoint" />
            <mxPoint x="446" y="275" as="targetPoint" />
          </mxGeometry>
        </mxCell>
        <mxCell id="jIybUHztOwASFzcobmvx-12" value="Cập nhật hệ thống" style="text;html=1;align=center;verticalAlign=middle;resizable=0;points=[];autosize=1;strokeColor=none;fillColor=none;rotation=60;" vertex="1" parent="1">
          <mxGeometry x="235" y="356" width="117" height="26" as="geometry" />
        </mxCell>
      </root>
    </mxGraphModel>
  </diagram>
  <diagram id="0-FEY0NOiDnrLctjz9VK" name="sơ đồ mức dưới đỉnh quản lí sách">
    <mxGraphModel dx="1863" dy="570" grid="0" gridSize="10" guides="1" tooltips="1" connect="1" arrows="1" fold="1" page="1" pageScale="1" pageWidth="827" pageHeight="1169" math="0" shadow="0">
      <root>
        <mxCell id="0" />
        <mxCell id="1" parent="0" />
        <mxCell id="PeJVexVgJ6dz3k4FfGSW-1" value="Nhà cung cấp" style="rounded=0;whiteSpace=wrap;html=1;rotation=0;" parent="1" vertex="1">
          <mxGeometry x="-773" y="383" width="102" height="42" as="geometry" />
        </mxCell>
        <mxCell id="PeJVexVgJ6dz3k4FfGSW-7" value="" style="endArrow=classic;html=1;rounded=0;exitX=0.406;exitY=0.929;exitDx=0;exitDy=0;exitPerimeter=0;entryX=0;entryY=0;entryDx=0;entryDy=0;" parent="1" source="PeJVexVgJ6dz3k4FfGSW-1" edge="1" target="PeJVexVgJ6dz3k4FfGSW-17">
          <mxGeometry width="50" height="50" relative="1" as="geometry">
            <mxPoint x="-758" y="451.5" as="sourcePoint" />
            <mxPoint x="-756" y="520.5" as="targetPoint" />
          </mxGeometry>
        </mxCell>
        <mxCell id="PeJVexVgJ6dz3k4FfGSW-17" value="1.Kiểm tra và&amp;nbsp; nhập sách" style="ellipse;whiteSpace=wrap;html=1;" parent="1" vertex="1">
          <mxGeometry x="-755" y="549" width="152" height="83" as="geometry" />
        </mxCell>
        <mxCell id="PeJVexVgJ6dz3k4FfGSW-18" value="3. Cập nhật tình trạng sách" style="ellipse;whiteSpace=wrap;html=1;" parent="1" vertex="1">
          <mxGeometry x="-327" y="566" width="110" height="60" as="geometry" />
        </mxCell>
        <mxCell id="0s2OxHm-GyuZhz-qQbza-2" value="2. Phân loại sách" style="ellipse;whiteSpace=wrap;html=1;" parent="1" vertex="1">
          <mxGeometry x="-523" y="375" width="110" height="62" as="geometry" />
        </mxCell>
        <mxCell id="0s2OxHm-GyuZhz-qQbza-3" value="&amp;nbsp;sách" style="text;html=1;align=center;verticalAlign=middle;resizable=0;points=[];autosize=1;strokeColor=none;fillColor=none;rotation=90;" parent="1" vertex="1">
          <mxGeometry x="-747.5" y="473" width="47" height="26" as="geometry" />
        </mxCell>
        <mxCell id="graKwkMs7CPxzrHOkCzN-3" value="" style="endArrow=classic;html=1;rounded=0;" parent="1" edge="1" source="0s2OxHm-GyuZhz-qQbza-2">
          <mxGeometry width="50" height="50" relative="1" as="geometry">
            <mxPoint x="-271" y="428" as="sourcePoint" />
            <mxPoint x="-271" y="564" as="targetPoint" />
          </mxGeometry>
        </mxCell>
        <mxCell id="graKwkMs7CPxzrHOkCzN-5" value="" style="endArrow=classic;html=1;rounded=0;exitX=0.38;exitY=-0.017;exitDx=0;exitDy=0;exitPerimeter=0;entryX=0.75;entryY=1;entryDx=0;entryDy=0;" parent="1" edge="1" target="PeJVexVgJ6dz3k4FfGSW-1" source="PeJVexVgJ6dz3k4FfGSW-17">
          <mxGeometry width="50" height="50" relative="1" as="geometry">
            <mxPoint x="-526.1080000000001" y="512.8340000000001" as="sourcePoint" />
            <mxPoint x="-524" y="386" as="targetPoint" />
            <Array as="points" />
          </mxGeometry>
        </mxCell>
        <mxCell id="graKwkMs7CPxzrHOkCzN-7" value="báo cáo tình trạng&amp;nbsp;" style="text;html=1;align=center;verticalAlign=middle;resizable=0;points=[];autosize=1;strokeColor=none;fillColor=none;rotation=40;" parent="1" vertex="1">
          <mxGeometry x="-404" y="478" width="118" height="26" as="geometry" />
        </mxCell>
        <mxCell id="1qhR-gTDBE7nLY5Mg68Q-3" value="" style="endArrow=classic;html=1;rounded=0;exitX=1;exitY=0.5;exitDx=0;exitDy=0;entryX=0;entryY=1;entryDx=0;entryDy=0;" parent="1" edge="1" target="0s2OxHm-GyuZhz-qQbza-2">
          <mxGeometry width="50" height="50" relative="1" as="geometry">
            <mxPoint x="-648" y="551" as="sourcePoint" />
            <mxPoint x="-506" y="549" as="targetPoint" />
          </mxGeometry>
        </mxCell>
        <mxCell id="IDCOpDMT-W4svg7jCIER-1" value="Kiểm tra và phân loại" style="text;html=1;align=center;verticalAlign=middle;resizable=0;points=[];autosize=1;strokeColor=none;fillColor=none;rotation=-40;" parent="1" vertex="1">
          <mxGeometry x="-652" y="468" width="131" height="26" as="geometry" />
        </mxCell>
        <mxCell id="UiG6b3c55pe7M8MaOdyf-3" value="" style="endArrow=none;html=1;rounded=0;" parent="1" edge="1">
          <mxGeometry width="50" height="50" relative="1" as="geometry">
            <mxPoint x="-488" y="619" as="sourcePoint" />
            <mxPoint x="-411" y="619" as="targetPoint" />
          </mxGeometry>
        </mxCell>
        <mxCell id="UiG6b3c55pe7M8MaOdyf-4" value="" style="endArrow=none;html=1;rounded=0;" parent="1" edge="1">
          <mxGeometry width="50" height="50" relative="1" as="geometry">
            <mxPoint x="-492" y="581" as="sourcePoint" />
            <mxPoint x="-408" y="579" as="targetPoint" />
          </mxGeometry>
        </mxCell>
        <mxCell id="UiG6b3c55pe7M8MaOdyf-5" value="Danh sách&amp;nbsp;&lt;div&gt;bổ sung&lt;/div&gt;" style="text;html=1;align=center;verticalAlign=middle;resizable=0;points=[];autosize=1;strokeColor=none;fillColor=none;" parent="1" vertex="1">
          <mxGeometry x="-486" y="578" width="79" height="41" as="geometry" />
        </mxCell>
        <mxCell id="UiG6b3c55pe7M8MaOdyf-6" value="" style="endArrow=classic;html=1;rounded=0;exitX=0;exitY=0.5;exitDx=0;exitDy=0;" parent="1" source="PeJVexVgJ6dz3k4FfGSW-18" edge="1">
          <mxGeometry width="50" height="50" relative="1" as="geometry">
            <mxPoint x="-423" y="516" as="sourcePoint" />
            <mxPoint x="-404" y="596" as="targetPoint" />
          </mxGeometry>
        </mxCell>
        <mxCell id="8MicIMYjRhZgdrvqbRwa-4" value="" style="endArrow=classic;html=1;rounded=0;" parent="1" edge="1">
          <mxGeometry width="50" height="50" relative="1" as="geometry">
            <mxPoint x="-603" y="594" as="sourcePoint" />
            <mxPoint x="-495" y="594" as="targetPoint" />
          </mxGeometry>
        </mxCell>
        <mxCell id="4RDKltRHtjkhHLd5sP28-1" value="Danh sách bổ sung" style="text;html=1;align=center;verticalAlign=middle;resizable=0;points=[];autosize=1;strokeColor=none;fillColor=none;rotation=90;" vertex="1" parent="1">
          <mxGeometry x="-745" y="475" width="121" height="26" as="geometry" />
        </mxCell>
        <mxCell id="4RDKltRHtjkhHLd5sP28-2" value="" style="endArrow=none;html=1;rounded=0;" edge="1" parent="1">
          <mxGeometry width="50" height="50" relative="1" as="geometry">
            <mxPoint x="-304" y="397" as="sourcePoint" />
            <mxPoint x="-223" y="397" as="targetPoint" />
          </mxGeometry>
        </mxCell>
        <mxCell id="4RDKltRHtjkhHLd5sP28-3" value="" style="endArrow=none;html=1;rounded=0;" edge="1" parent="1">
          <mxGeometry width="50" height="50" relative="1" as="geometry">
            <mxPoint x="-301" y="431" as="sourcePoint" />
            <mxPoint x="-225" y="431" as="targetPoint" />
          </mxGeometry>
        </mxCell>
        <mxCell id="4RDKltRHtjkhHLd5sP28-4" value="" style="endArrow=classic;html=1;rounded=0;" edge="1" parent="1">
          <mxGeometry width="50" height="50" relative="1" as="geometry">
            <mxPoint x="-472" y="438" as="sourcePoint" />
            <mxPoint x="-469" y="485" as="targetPoint" />
          </mxGeometry>
        </mxCell>
        <mxCell id="4RDKltRHtjkhHLd5sP28-6" value="" style="endArrow=none;html=1;rounded=0;" edge="1" parent="1">
          <mxGeometry width="50" height="50" relative="1" as="geometry">
            <mxPoint x="-512" y="485" as="sourcePoint" />
            <mxPoint x="-431" y="485" as="targetPoint" />
          </mxGeometry>
        </mxCell>
        <mxCell id="4RDKltRHtjkhHLd5sP28-7" value="" style="endArrow=none;html=1;rounded=0;" edge="1" parent="1">
          <mxGeometry width="50" height="50" relative="1" as="geometry">
            <mxPoint x="-509" y="519" as="sourcePoint" />
            <mxPoint x="-433" y="519" as="targetPoint" />
          </mxGeometry>
        </mxCell>
        <mxCell id="4RDKltRHtjkhHLd5sP28-8" value="Sách" style="text;html=1;align=center;verticalAlign=middle;resizable=0;points=[];autosize=1;strokeColor=none;fillColor=none;" vertex="1" parent="1">
          <mxGeometry x="-489" y="488" width="45" height="26" as="geometry" />
        </mxCell>
        <mxCell id="4RDKltRHtjkhHLd5sP28-9" value="" style="endArrow=classic;html=1;rounded=0;exitX=0.955;exitY=0.282;exitDx=0;exitDy=0;exitPerimeter=0;" edge="1" parent="1" source="PeJVexVgJ6dz3k4FfGSW-17">
          <mxGeometry width="50" height="50" relative="1" as="geometry">
            <mxPoint x="-440" y="522" as="sourcePoint" />
            <mxPoint x="-481" y="524" as="targetPoint" />
          </mxGeometry>
        </mxCell>
        <mxCell id="4RDKltRHtjkhHLd5sP28-10" value="Tài liệu mượn" style="text;html=1;align=center;verticalAlign=middle;resizable=0;points=[];autosize=1;strokeColor=none;fillColor=none;" vertex="1" parent="1">
          <mxGeometry x="-310" y="403" width="93" height="26" as="geometry" />
        </mxCell>
        <mxCell id="4RDKltRHtjkhHLd5sP28-11" value="" style="endArrow=classic;html=1;rounded=0;exitX=0.607;exitY=0.027;exitDx=0;exitDy=0;exitPerimeter=0;" edge="1" parent="1" source="PeJVexVgJ6dz3k4FfGSW-18">
          <mxGeometry width="50" height="50" relative="1" as="geometry">
            <mxPoint x="-440" y="522" as="sourcePoint" />
            <mxPoint x="-260" y="436" as="targetPoint" />
          </mxGeometry>
        </mxCell>
      </root>
    </mxGraphModel>
  </diagram>
  <diagram id="GCHvis9_luf-To2Uofro" name="sơ đồ mức dưởi đỉnh quản lí mượn , trả">
    <mxGraphModel dx="1091" dy="600" grid="0" gridSize="10" guides="1" tooltips="1" connect="1" arrows="1" fold="1" page="1" pageScale="1" pageWidth="827" pageHeight="1169" math="0" shadow="0">
      <root>
        <mxCell id="0" />
        <mxCell id="1" parent="0" />
        <mxCell id="AkVT4XFbFKyNeiO4aLgT-9" value="" style="endArrow=none;html=1;rounded=0;" parent="1" edge="1">
          <mxGeometry width="50" height="50" relative="1" as="geometry">
            <mxPoint x="256" y="353" as="sourcePoint" />
            <mxPoint x="256" y="353" as="targetPoint" />
          </mxGeometry>
        </mxCell>
        <mxCell id="zk5LSm87yTgjPrkypsaB-2" value="2.Cập nhật mượn, trả" style="ellipse;whiteSpace=wrap;html=1;" parent="1" vertex="1">
          <mxGeometry x="160" y="42" width="151" height="60" as="geometry" />
        </mxCell>
        <mxCell id="zk5LSm87yTgjPrkypsaB-3" value="1. Kiểm tra tình trạng sách" style="ellipse;whiteSpace=wrap;html=1;" parent="1" vertex="1">
          <mxGeometry x="170" y="355" width="146" height="82" as="geometry" />
        </mxCell>
        <mxCell id="zk5LSm87yTgjPrkypsaB-4" value="4.Xác nhận hoàn tất mượn trả" style="ellipse;whiteSpace=wrap;html=1;" parent="1" vertex="1">
          <mxGeometry x="556" y="363" width="165" height="66" as="geometry" />
        </mxCell>
        <mxCell id="zk5LSm87yTgjPrkypsaB-12" value="" style="endArrow=classic;html=1;rounded=0;entryX=0.426;entryY=0.991;entryDx=0;entryDy=0;exitX=0.358;exitY=0.061;exitDx=0;exitDy=0;entryPerimeter=0;exitPerimeter=0;" parent="1" source="zk5LSm87yTgjPrkypsaB-3" target="zk5LSm87yTgjPrkypsaB-2" edge="1">
          <mxGeometry width="50" height="50" relative="1" as="geometry">
            <mxPoint x="227" y="220" as="sourcePoint" />
            <mxPoint x="277" y="192.4999999999999" as="targetPoint" />
          </mxGeometry>
        </mxCell>
        <mxCell id="zk5LSm87yTgjPrkypsaB-14" value="yêu cầu mượn sách" style="text;html=1;align=center;verticalAlign=middle;resizable=0;points=[];autosize=1;strokeColor=none;fillColor=none;rotation=-48;" parent="1" vertex="1">
          <mxGeometry x="221" y="275" width="125" height="26" as="geometry" />
        </mxCell>
        <mxCell id="zk5LSm87yTgjPrkypsaB-23" value="" style="endArrow=classic;html=1;rounded=0;exitX=0.607;exitY=1.019;exitDx=0;exitDy=0;entryX=0.157;entryY=0.022;entryDx=0;entryDy=0;entryPerimeter=0;exitPerimeter=0;" parent="1" source="zk5LSm87yTgjPrkypsaB-2" edge="1" target="NkYfjhZKvnB9pKBYO2SM-41">
          <mxGeometry width="50" height="50" relative="1" as="geometry">
            <mxPoint x="263" y="102" as="sourcePoint" />
            <mxPoint x="410" y="102.5" as="targetPoint" />
          </mxGeometry>
        </mxCell>
        <mxCell id="zk5LSm87yTgjPrkypsaB-24" value="&lt;span style=&quot;background-color: transparent; color: light-dark(rgb(0, 0, 0), rgb(255, 255, 255));&quot;&gt;thẻ&amp;nbsp;&lt;/span&gt;&lt;span style=&quot;background-color: transparent; color: light-dark(rgb(0, 0, 0), rgb(255, 255, 255));&quot;&gt;bạn&amp;nbsp;&lt;/span&gt;&lt;span style=&quot;background-color: transparent; color: light-dark(rgb(0, 0, 0), rgb(255, 255, 255));&quot;&gt;đọc&lt;/span&gt;" style="text;html=1;align=center;verticalAlign=middle;resizable=0;points=[];autosize=1;strokeColor=none;fillColor=none;rotation=-50;" parent="1" vertex="1">
          <mxGeometry x="272" y="288" width="81" height="26" as="geometry" />
        </mxCell>
        <mxCell id="zk5LSm87yTgjPrkypsaB-25" value="" style="endArrow=classic;html=1;rounded=0;exitX=0.591;exitY=0.986;exitDx=0;exitDy=0;exitPerimeter=0;" parent="1" source="vhewwwdP6VrVtOiFIJFT-1" edge="1">
          <mxGeometry width="50" height="50" relative="1" as="geometry">
            <mxPoint x="802.7499999999995" y="229.9999999999999" as="sourcePoint" />
            <mxPoint x="644" y="362" as="targetPoint" />
          </mxGeometry>
        </mxCell>
        <mxCell id="vhewwwdP6VrVtOiFIJFT-1" value="3. Kiểm tra và xử lý sách" style="ellipse;whiteSpace=wrap;html=1;" parent="1" vertex="1">
          <mxGeometry x="539" y="42" width="182" height="80" as="geometry" />
        </mxCell>
        <mxCell id="vhewwwdP6VrVtOiFIJFT-3" value="" style="endArrow=classic;html=1;rounded=0;exitX=0;exitY=0.75;exitDx=0;exitDy=0;entryX=0.5;entryY=0;entryDx=0;entryDy=0;" parent="1" source="NkYfjhZKvnB9pKBYO2SM-41" target="zk5LSm87yTgjPrkypsaB-3" edge="1">
          <mxGeometry width="50" height="50" relative="1" as="geometry">
            <mxPoint x="342" y="245" as="sourcePoint" />
            <mxPoint x="344" y="406" as="targetPoint" />
          </mxGeometry>
        </mxCell>
        <mxCell id="TPhU7opdJhLlm8qeCKda-1" value="" style="endArrow=classic;html=1;rounded=0;" parent="1" edge="1">
          <mxGeometry width="50" height="50" relative="1" as="geometry">
            <mxPoint x="374" y="248" as="sourcePoint" />
            <mxPoint x="280" y="361" as="targetPoint" />
          </mxGeometry>
        </mxCell>
        <mxCell id="TPhU7opdJhLlm8qeCKda-2" value="Sách" style="text;html=1;align=center;verticalAlign=middle;whiteSpace=wrap;rounded=0;rotation=-50;" parent="1" vertex="1">
          <mxGeometry x="316" y="296" width="60" height="30" as="geometry" />
        </mxCell>
        <mxCell id="TPhU7opdJhLlm8qeCKda-3" value="" style="endArrow=classic;html=1;rounded=0;entryX=1;entryY=1;entryDx=0;entryDy=0;" parent="1" target="zk5LSm87yTgjPrkypsaB-2" edge="1">
          <mxGeometry width="50" height="50" relative="1" as="geometry">
            <mxPoint x="414" y="202" as="sourcePoint" />
            <mxPoint x="100.25119293871876" y="31.151447776432178" as="targetPoint" />
          </mxGeometry>
        </mxCell>
        <mxCell id="TPhU7opdJhLlm8qeCKda-10" value="" style="endArrow=none;html=1;rounded=0;" parent="1" edge="1">
          <mxGeometry width="50" height="50" relative="1" as="geometry">
            <mxPoint x="393" y="387" as="sourcePoint" />
            <mxPoint x="478" y="385" as="targetPoint" />
          </mxGeometry>
        </mxCell>
        <mxCell id="TPhU7opdJhLlm8qeCKda-11" value="" style="endArrow=none;html=1;rounded=0;" parent="1" edge="1">
          <mxGeometry width="50" height="50" relative="1" as="geometry">
            <mxPoint x="393" y="423" as="sourcePoint" />
            <mxPoint x="478" y="421" as="targetPoint" />
          </mxGeometry>
        </mxCell>
        <mxCell id="TPhU7opdJhLlm8qeCKda-12" value="Sách" style="text;html=1;align=center;verticalAlign=middle;whiteSpace=wrap;rounded=0;" parent="1" vertex="1">
          <mxGeometry x="400" y="396" width="66" height="22" as="geometry" />
        </mxCell>
        <mxCell id="NkYfjhZKvnB9pKBYO2SM-4" value="ghi mượn&amp;nbsp;" style="text;html=1;align=center;verticalAlign=middle;resizable=0;points=[];autosize=1;strokeColor=none;fillColor=none;rotation=90;" parent="1" vertex="1">
          <mxGeometry x="199" y="203" width="73" height="26" as="geometry" />
        </mxCell>
        <mxCell id="NkYfjhZKvnB9pKBYO2SM-9" value="" style="endArrow=classic;html=1;rounded=0;exitX=0.975;exitY=0.387;exitDx=0;exitDy=0;exitPerimeter=0;" parent="1" edge="1">
          <mxGeometry width="50" height="50" relative="1" as="geometry">
            <mxPoint x="318.99999999999983" y="399.9470000000001" as="sourcePoint" />
            <mxPoint x="387" y="400" as="targetPoint" />
          </mxGeometry>
        </mxCell>
        <mxCell id="NkYfjhZKvnB9pKBYO2SM-10" value="" style="endArrow=classic;html=1;rounded=0;entryX=0.326;entryY=0.965;entryDx=0;entryDy=0;entryPerimeter=0;exitX=0.929;exitY=0.256;exitDx=0;exitDy=0;exitPerimeter=0;" parent="1" edge="1" source="zk5LSm87yTgjPrkypsaB-3">
          <mxGeometry width="50" height="50" relative="1" as="geometry">
            <mxPoint x="406" y="355" as="sourcePoint" />
            <mxPoint x="408.83399999999983" y="248.20000000000005" as="targetPoint" />
          </mxGeometry>
        </mxCell>
        <mxCell id="NkYfjhZKvnB9pKBYO2SM-12" value="" style="endArrow=classic;html=1;rounded=0;exitX=0;exitY=0.5;exitDx=0;exitDy=0;" parent="1" edge="1" source="zk5LSm87yTgjPrkypsaB-4">
          <mxGeometry width="50" height="50" relative="1" as="geometry">
            <mxPoint x="609.9300000000001" y="221.79000000000002" as="sourcePoint" />
            <mxPoint x="483" y="400" as="targetPoint" />
          </mxGeometry>
        </mxCell>
        <mxCell id="NkYfjhZKvnB9pKBYO2SM-16" value="" style="endArrow=classic;html=1;rounded=0;exitX=0.272;exitY=0.943;exitDx=0;exitDy=0;exitPerimeter=0;" parent="1" source="vhewwwdP6VrVtOiFIJFT-1" edge="1">
          <mxGeometry width="50" height="50" relative="1" as="geometry">
            <mxPoint x="552.2220981125092" y="264.9677143464495" as="sourcePoint" />
            <mxPoint x="445" y="203" as="targetPoint" />
          </mxGeometry>
        </mxCell>
        <mxCell id="NkYfjhZKvnB9pKBYO2SM-27" value="trả sách" style="text;html=1;align=center;verticalAlign=middle;resizable=0;points=[];autosize=1;strokeColor=none;fillColor=none;rotation=45;" parent="1" vertex="1">
          <mxGeometry x="330" y="128" width="61" height="26" as="geometry" />
        </mxCell>
        <mxCell id="NkYfjhZKvnB9pKBYO2SM-41" value="Bạn đọc" style="rounded=0;whiteSpace=wrap;html=1;" parent="1" vertex="1">
          <mxGeometry x="349" y="205" width="120" height="41" as="geometry" />
        </mxCell>
        <mxCell id="NkYfjhZKvnB9pKBYO2SM-44" value="thông báo vi phạm" style="text;html=1;align=center;verticalAlign=middle;resizable=0;points=[];autosize=1;strokeColor=none;fillColor=none;rotation=-30;" parent="1" vertex="1">
          <mxGeometry x="458" y="132" width="117" height="26" as="geometry" />
        </mxCell>
        <mxCell id="NkYfjhZKvnB9pKBYO2SM-47" value="Nộp phạt" style="text;html=1;align=center;verticalAlign=middle;resizable=0;points=[];autosize=1;strokeColor=none;fillColor=none;rotation=-30;" parent="1" vertex="1">
          <mxGeometry x="508" y="152" width="67" height="26" as="geometry" />
        </mxCell>
        <mxCell id="NkYfjhZKvnB9pKBYO2SM-50" value="cập nhật hệ thống&amp;nbsp;" style="text;html=1;align=center;verticalAlign=middle;resizable=0;points=[];autosize=1;strokeColor=none;fillColor=none;rotation=90;" parent="1" vertex="1">
          <mxGeometry x="571.5" y="229" width="117" height="26" as="geometry" />
        </mxCell>
        <mxCell id="NkYfjhZKvnB9pKBYO2SM-51" value="" style="endArrow=classic;html=1;rounded=0;entryX=0.5;entryY=1;entryDx=0;entryDy=0;" parent="1" target="vhewwwdP6VrVtOiFIJFT-1" edge="1">
          <mxGeometry width="50" height="50" relative="1" as="geometry">
            <mxPoint x="471" y="225" as="sourcePoint" />
            <mxPoint x="708" y="272.38" as="targetPoint" />
          </mxGeometry>
        </mxCell>
        <mxCell id="TZmdl5tgRxw8rHMp2wnk-5" value="Cập nhật hệ thống" style="text;html=1;align=center;verticalAlign=middle;resizable=0;points=[];autosize=1;strokeColor=none;fillColor=none;rotation=40;" vertex="1" parent="1">
          <mxGeometry x="262" y="135" width="117" height="26" as="geometry" />
        </mxCell>
        <mxCell id="TZmdl5tgRxw8rHMp2wnk-8" value="" style="endArrow=classic;html=1;rounded=0;exitX=1;exitY=0.5;exitDx=0;exitDy=0;entryX=0.036;entryY=0.417;entryDx=0;entryDy=0;entryPerimeter=0;" edge="1" parent="1" source="zk5LSm87yTgjPrkypsaB-2" target="vhewwwdP6VrVtOiFIJFT-1">
          <mxGeometry width="50" height="50" relative="1" as="geometry">
            <mxPoint x="387" y="228" as="sourcePoint" />
            <mxPoint x="437" y="178" as="targetPoint" />
          </mxGeometry>
        </mxCell>
      </root>
    </mxGraphModel>
  </diagram>
  <diagram id="XIpkbrERf0pfcm47Novx" name="sơ đồ mức dưới đỉnh quản lí bạn đọc">
    <mxGraphModel dx="1036" dy="570" grid="0" gridSize="10" guides="1" tooltips="1" connect="1" arrows="1" fold="1" page="1" pageScale="1" pageWidth="827" pageHeight="1169" math="0" shadow="0">
      <root>
        <mxCell id="0" />
        <mxCell id="1" parent="0" />
        <mxCell id="r1B7qy9Z4m8oXXLAMSH7-2" value="2.Đăng ký và cập nhật&amp;nbsp;&lt;div&gt;thông tin bạn đọc&lt;/div&gt;" style="ellipse;whiteSpace=wrap;html=1;" parent="1" vertex="1">
          <mxGeometry x="526" y="58" width="190" height="78" as="geometry" />
        </mxCell>
        <mxCell id="r1B7qy9Z4m8oXXLAMSH7-4" value="1. Kiểm tra&amp;nbsp;&lt;div&gt;thông tin bạn đọc&lt;/div&gt;" style="ellipse;whiteSpace=wrap;html=1;" parent="1" vertex="1">
          <mxGeometry x="219" y="296" width="143" height="60" as="geometry" />
        </mxCell>
        <mxCell id="r1B7qy9Z4m8oXXLAMSH7-5" value="3. Quản lí thẻ bạn đọc&amp;nbsp;" style="ellipse;whiteSpace=wrap;html=1;" parent="1" vertex="1">
          <mxGeometry x="606" y="306" width="120" height="50" as="geometry" />
        </mxCell>
        <mxCell id="r1B7qy9Z4m8oXXLAMSH7-18" value="" style="endArrow=classic;html=1;rounded=0;exitX=0.733;exitY=0.954;exitDx=0;exitDy=0;exitPerimeter=0;entryX=0.5;entryY=0;entryDx=0;entryDy=0;" parent="1" source="r1B7qy9Z4m8oXXLAMSH7-2" target="r1B7qy9Z4m8oXXLAMSH7-5" edge="1">
          <mxGeometry width="50" height="50" relative="1" as="geometry">
            <mxPoint x="367" y="117.5" as="sourcePoint" />
            <mxPoint x="628" y="299" as="targetPoint" />
          </mxGeometry>
        </mxCell>
        <mxCell id="r1B7qy9Z4m8oXXLAMSH7-19" value="" style="endArrow=classic;html=1;rounded=0;exitX=1;exitY=0.25;exitDx=0;exitDy=0;" parent="1" edge="1" source="AEP-sC79lxed0bD77sp0-1">
          <mxGeometry width="50" height="50" relative="1" as="geometry">
            <mxPoint x="533" y="205" as="sourcePoint" />
            <mxPoint x="525" y="92" as="targetPoint" />
          </mxGeometry>
        </mxCell>
        <mxCell id="AEP-sC79lxed0bD77sp0-1" value="Bạn đọc" style="rounded=0;whiteSpace=wrap;html=1;" parent="1" vertex="1">
          <mxGeometry x="258" y="84" width="120" height="33" as="geometry" />
        </mxCell>
        <mxCell id="zEorYWSfircc7CLIgMM7-4" value="Đăng ký thẻ" style="text;html=1;align=center;verticalAlign=middle;resizable=0;points=[];autosize=1;strokeColor=none;fillColor=none;rotation=0;" vertex="1" parent="1">
          <mxGeometry x="414" y="70" width="82" height="26" as="geometry" />
        </mxCell>
        <mxCell id="zEorYWSfircc7CLIgMM7-5" value="" style="endArrow=classic;html=1;rounded=0;exitX=0.213;exitY=0.06;exitDx=0;exitDy=0;exitPerimeter=0;entryX=1;entryY=0.75;entryDx=0;entryDy=0;" edge="1" parent="1" source="r1B7qy9Z4m8oXXLAMSH7-5" target="AEP-sC79lxed0bD77sp0-1">
          <mxGeometry width="50" height="50" relative="1" as="geometry">
            <mxPoint x="387" y="322" as="sourcePoint" />
            <mxPoint x="437" y="272" as="targetPoint" />
          </mxGeometry>
        </mxCell>
        <mxCell id="zEorYWSfircc7CLIgMM7-6" value="" style="endArrow=classic;html=1;rounded=0;entryX=0.433;entryY=1.097;entryDx=0;entryDy=0;entryPerimeter=0;exitX=0.625;exitY=0.003;exitDx=0;exitDy=0;exitPerimeter=0;" edge="1" parent="1" source="r1B7qy9Z4m8oXXLAMSH7-4" target="AEP-sC79lxed0bD77sp0-1">
          <mxGeometry width="50" height="50" relative="1" as="geometry">
            <mxPoint x="330" y="312" as="sourcePoint" />
            <mxPoint x="380" y="262" as="targetPoint" />
          </mxGeometry>
        </mxCell>
        <mxCell id="zEorYWSfircc7CLIgMM7-7" value="Thông tin bạn đọc" style="text;html=1;align=center;verticalAlign=middle;resizable=0;points=[];autosize=1;strokeColor=none;fillColor=none;" vertex="1" parent="1">
          <mxGeometry x="390" y="247" width="114" height="26" as="geometry" />
        </mxCell>
        <mxCell id="zEorYWSfircc7CLIgMM7-8" value="" style="endArrow=none;html=1;rounded=0;" edge="1" parent="1">
          <mxGeometry width="50" height="50" relative="1" as="geometry">
            <mxPoint x="379" y="242" as="sourcePoint" />
            <mxPoint x="513" y="242" as="targetPoint" />
          </mxGeometry>
        </mxCell>
        <mxCell id="zEorYWSfircc7CLIgMM7-9" value="" style="endArrow=none;html=1;rounded=0;" edge="1" parent="1">
          <mxGeometry width="50" height="50" relative="1" as="geometry">
            <mxPoint x="378" y="285" as="sourcePoint" />
            <mxPoint x="512" y="285" as="targetPoint" />
          </mxGeometry>
        </mxCell>
        <mxCell id="zEorYWSfircc7CLIgMM7-12" value="" style="endArrow=classic;html=1;rounded=0;exitX=0;exitY=0.5;exitDx=0;exitDy=0;" edge="1" parent="1" source="r1B7qy9Z4m8oXXLAMSH7-5">
          <mxGeometry width="50" height="50" relative="1" as="geometry">
            <mxPoint x="387" y="322" as="sourcePoint" />
            <mxPoint x="483" y="288" as="targetPoint" />
          </mxGeometry>
        </mxCell>
        <mxCell id="zEorYWSfircc7CLIgMM7-14" value="Thẻ bạn đọc" style="text;html=1;align=center;verticalAlign=middle;resizable=0;points=[];autosize=1;strokeColor=none;fillColor=none;rotation=40;" vertex="1" parent="1">
          <mxGeometry x="444" y="165" width="85" height="26" as="geometry" />
        </mxCell>
        <mxCell id="zEorYWSfircc7CLIgMM7-15" value="Thông tin bạn đọc" style="text;html=1;align=center;verticalAlign=middle;resizable=0;points=[];autosize=1;strokeColor=none;fillColor=none;rotation=90;" vertex="1" parent="1">
          <mxGeometry x="595" y="204" width="114" height="26" as="geometry" />
        </mxCell>
      </root>
    </mxGraphModel>
  </diagram>
  <diagram id="tvDVrRngRG56MDbj3_oW" name="Sơ đồ thực thể liên kết">
    <mxGraphModel dx="1826" dy="986" grid="0" gridSize="10" guides="1" tooltips="1" connect="1" arrows="1" fold="1" page="0" pageScale="1" pageWidth="850" pageHeight="1100" math="0" shadow="0">
      <root>
        <mxCell id="0" />
        <mxCell id="1" parent="0" />
        <mxCell id="evD2jb5UZzss43SjjIJm-1" value="Bạn đọc" style="rounded=0;whiteSpace=wrap;html=1;" parent="1" vertex="1">
          <mxGeometry x="90" y="110" width="80" height="40" as="geometry" />
        </mxCell>
        <mxCell id="evD2jb5UZzss43SjjIJm-2" value="Phiếu nhập" style="rounded=0;whiteSpace=wrap;html=1;" parent="1" vertex="1">
          <mxGeometry x="500" y="560" width="80" height="40" as="geometry" />
        </mxCell>
        <mxCell id="evD2jb5UZzss43SjjIJm-3" value="Nhà CC" style="rounded=0;whiteSpace=wrap;html=1;" parent="1" vertex="1">
          <mxGeometry x="60" y="560" width="80" height="40" as="geometry" />
        </mxCell>
        <mxCell id="evD2jb5UZzss43SjjIJm-4" value="Sách" style="rounded=0;whiteSpace=wrap;html=1;" parent="1" vertex="1">
          <mxGeometry x="500" y="310" width="80" height="40" as="geometry" />
        </mxCell>
        <mxCell id="evD2jb5UZzss43SjjIJm-5" value="Thẻ bạn đọc" style="rounded=0;whiteSpace=wrap;html=1;" parent="1" vertex="1">
          <mxGeometry x="480" y="110" width="90" height="40" as="geometry" />
        </mxCell>
        <mxCell id="evD2jb5UZzss43SjjIJm-6" value="mabandoc" style="ellipse;whiteSpace=wrap;html=1;" parent="1" vertex="1">
          <mxGeometry x="-74" y="63" width="80" height="60" as="geometry" />
        </mxCell>
        <mxCell id="evD2jb5UZzss43SjjIJm-7" value="hoten" style="ellipse;whiteSpace=wrap;html=1;" parent="1" vertex="1">
          <mxGeometry x="-20" y="-20" width="80" height="60" as="geometry" />
        </mxCell>
        <mxCell id="evD2jb5UZzss43SjjIJm-8" value="ngaysinh" style="ellipse;whiteSpace=wrap;html=1;" parent="1" vertex="1">
          <mxGeometry x="70" y="-50" width="80" height="60" as="geometry" />
        </mxCell>
        <mxCell id="evD2jb5UZzss43SjjIJm-9" value="gioitinh" style="ellipse;whiteSpace=wrap;html=1;" parent="1" vertex="1">
          <mxGeometry x="150" y="-10" width="80" height="60" as="geometry" />
        </mxCell>
        <mxCell id="evD2jb5UZzss43SjjIJm-10" value="diachi" style="ellipse;whiteSpace=wrap;html=1;" parent="1" vertex="1">
          <mxGeometry x="-60" y="140" width="80" height="50" as="geometry" />
        </mxCell>
        <mxCell id="evD2jb5UZzss43SjjIJm-11" value="sdt" style="ellipse;whiteSpace=wrap;html=1;" parent="1" vertex="1">
          <mxGeometry x="-30" y="200" width="80" height="60" as="geometry" />
        </mxCell>
        <mxCell id="evD2jb5UZzss43SjjIJm-12" value="email" style="ellipse;whiteSpace=wrap;html=1;" parent="1" vertex="1">
          <mxGeometry x="70" y="220" width="80" height="60" as="geometry" />
        </mxCell>
        <mxCell id="evD2jb5UZzss43SjjIJm-13" value="ngaydangky" style="ellipse;whiteSpace=wrap;html=1;" parent="1" vertex="1">
          <mxGeometry x="170" y="200" width="80" height="60" as="geometry" />
        </mxCell>
        <mxCell id="evD2jb5UZzss43SjjIJm-14" value="" style="endArrow=none;html=1;rounded=0;entryX=0.398;entryY=0.96;entryDx=0;entryDy=0;entryPerimeter=0;exitX=0.75;exitY=0;exitDx=0;exitDy=0;" parent="1" source="evD2jb5UZzss43SjjIJm-1" target="evD2jb5UZzss43SjjIJm-9" edge="1">
          <mxGeometry width="50" height="50" relative="1" as="geometry">
            <mxPoint x="510" y="170" as="sourcePoint" />
            <mxPoint x="560" y="120" as="targetPoint" />
          </mxGeometry>
        </mxCell>
        <mxCell id="evD2jb5UZzss43SjjIJm-15" value="" style="endArrow=none;html=1;rounded=0;entryX=0.5;entryY=1;entryDx=0;entryDy=0;exitX=0.5;exitY=0;exitDx=0;exitDy=0;" parent="1" source="evD2jb5UZzss43SjjIJm-1" target="evD2jb5UZzss43SjjIJm-8" edge="1">
          <mxGeometry width="50" height="50" relative="1" as="geometry">
            <mxPoint x="510" y="170" as="sourcePoint" />
            <mxPoint x="560" y="120" as="targetPoint" />
          </mxGeometry>
        </mxCell>
        <mxCell id="evD2jb5UZzss43SjjIJm-16" value="" style="endArrow=none;html=1;rounded=0;entryX=1;entryY=1;entryDx=0;entryDy=0;exitX=0.25;exitY=0;exitDx=0;exitDy=0;" parent="1" source="evD2jb5UZzss43SjjIJm-1" target="evD2jb5UZzss43SjjIJm-7" edge="1">
          <mxGeometry width="50" height="50" relative="1" as="geometry">
            <mxPoint x="510" y="170" as="sourcePoint" />
            <mxPoint x="560" y="120" as="targetPoint" />
          </mxGeometry>
        </mxCell>
        <mxCell id="evD2jb5UZzss43SjjIJm-17" value="" style="endArrow=none;html=1;rounded=0;entryX=1;entryY=0.5;entryDx=0;entryDy=0;exitX=0;exitY=0.25;exitDx=0;exitDy=0;" parent="1" source="evD2jb5UZzss43SjjIJm-1" target="evD2jb5UZzss43SjjIJm-6" edge="1">
          <mxGeometry width="50" height="50" relative="1" as="geometry">
            <mxPoint x="510" y="170" as="sourcePoint" />
            <mxPoint x="560" y="120" as="targetPoint" />
          </mxGeometry>
        </mxCell>
        <mxCell id="evD2jb5UZzss43SjjIJm-18" value="" style="endArrow=none;html=1;rounded=0;entryX=1;entryY=0.5;entryDx=0;entryDy=0;exitX=0;exitY=0.5;exitDx=0;exitDy=0;" parent="1" source="evD2jb5UZzss43SjjIJm-1" target="evD2jb5UZzss43SjjIJm-10" edge="1">
          <mxGeometry width="50" height="50" relative="1" as="geometry">
            <mxPoint x="510" y="170" as="sourcePoint" />
            <mxPoint x="560" y="120" as="targetPoint" />
          </mxGeometry>
        </mxCell>
        <mxCell id="evD2jb5UZzss43SjjIJm-19" value="" style="endArrow=none;html=1;rounded=0;entryX=1;entryY=0;entryDx=0;entryDy=0;exitX=0.25;exitY=1;exitDx=0;exitDy=0;" parent="1" source="evD2jb5UZzss43SjjIJm-1" target="evD2jb5UZzss43SjjIJm-11" edge="1">
          <mxGeometry width="50" height="50" relative="1" as="geometry">
            <mxPoint x="510" y="170" as="sourcePoint" />
            <mxPoint x="560" y="120" as="targetPoint" />
          </mxGeometry>
        </mxCell>
        <mxCell id="evD2jb5UZzss43SjjIJm-20" value="" style="endArrow=none;html=1;rounded=0;entryX=0.5;entryY=0;entryDx=0;entryDy=0;exitX=0.5;exitY=1;exitDx=0;exitDy=0;" parent="1" source="evD2jb5UZzss43SjjIJm-1" target="evD2jb5UZzss43SjjIJm-12" edge="1">
          <mxGeometry width="50" height="50" relative="1" as="geometry">
            <mxPoint x="510" y="170" as="sourcePoint" />
            <mxPoint x="560" y="120" as="targetPoint" />
          </mxGeometry>
        </mxCell>
        <mxCell id="evD2jb5UZzss43SjjIJm-21" value="" style="endArrow=none;html=1;rounded=0;entryX=0.5;entryY=0;entryDx=0;entryDy=0;exitX=0.75;exitY=1;exitDx=0;exitDy=0;" parent="1" source="evD2jb5UZzss43SjjIJm-1" target="evD2jb5UZzss43SjjIJm-13" edge="1">
          <mxGeometry width="50" height="50" relative="1" as="geometry">
            <mxPoint x="510" y="170" as="sourcePoint" />
            <mxPoint x="560" y="120" as="targetPoint" />
          </mxGeometry>
        </mxCell>
        <mxCell id="evD2jb5UZzss43SjjIJm-22" value="mathe" style="ellipse;whiteSpace=wrap;html=1;" parent="1" vertex="1">
          <mxGeometry x="388" y="20" width="75" height="40" as="geometry" />
        </mxCell>
        <mxCell id="evD2jb5UZzss43SjjIJm-23" value="mabandoc" style="ellipse;whiteSpace=wrap;html=1;" parent="1" vertex="1">
          <mxGeometry x="450" y="-40" width="75" height="40" as="geometry" />
        </mxCell>
        <mxCell id="evD2jb5UZzss43SjjIJm-24" value="ngaycap" style="ellipse;whiteSpace=wrap;html=1;" parent="1" vertex="1">
          <mxGeometry x="660" y="100" width="75" height="40" as="geometry" />
        </mxCell>
        <mxCell id="evD2jb5UZzss43SjjIJm-25" value="ngayhethan" style="ellipse;whiteSpace=wrap;html=1;" parent="1" vertex="1">
          <mxGeometry x="650" y="30" width="75" height="40" as="geometry" />
        </mxCell>
        <mxCell id="evD2jb5UZzss43SjjIJm-26" value="matkhau" style="ellipse;whiteSpace=wrap;html=1;" parent="1" vertex="1">
          <mxGeometry x="630" y="-20" width="75" height="40" as="geometry" />
        </mxCell>
        <mxCell id="evD2jb5UZzss43SjjIJm-27" value="trangthai" style="ellipse;whiteSpace=wrap;html=1;" parent="1" vertex="1">
          <mxGeometry x="540" y="-40" width="75" height="40" as="geometry" />
        </mxCell>
        <mxCell id="evD2jb5UZzss43SjjIJm-28" value="" style="endArrow=none;html=1;rounded=0;entryX=0.664;entryY=0.97;entryDx=0;entryDy=0;entryPerimeter=0;exitX=0.144;exitY=0.02;exitDx=0;exitDy=0;exitPerimeter=0;" parent="1" source="evD2jb5UZzss43SjjIJm-5" target="evD2jb5UZzss43SjjIJm-22" edge="1">
          <mxGeometry width="50" height="50" relative="1" as="geometry">
            <mxPoint x="550" y="170" as="sourcePoint" />
            <mxPoint x="600" y="120" as="targetPoint" />
          </mxGeometry>
        </mxCell>
        <mxCell id="evD2jb5UZzss43SjjIJm-29" value="" style="endArrow=none;html=1;rounded=0;entryX=0.5;entryY=1;entryDx=0;entryDy=0;exitX=0.25;exitY=0;exitDx=0;exitDy=0;" parent="1" source="evD2jb5UZzss43SjjIJm-5" target="evD2jb5UZzss43SjjIJm-23" edge="1">
          <mxGeometry width="50" height="50" relative="1" as="geometry">
            <mxPoint x="550" y="170" as="sourcePoint" />
            <mxPoint x="600" y="120" as="targetPoint" />
          </mxGeometry>
        </mxCell>
        <mxCell id="evD2jb5UZzss43SjjIJm-30" value="" style="endArrow=none;html=1;rounded=0;entryX=0.5;entryY=1;entryDx=0;entryDy=0;exitX=0.5;exitY=0;exitDx=0;exitDy=0;" parent="1" source="evD2jb5UZzss43SjjIJm-5" target="evD2jb5UZzss43SjjIJm-27" edge="1">
          <mxGeometry width="50" height="50" relative="1" as="geometry">
            <mxPoint x="550" y="170" as="sourcePoint" />
            <mxPoint x="600" y="120" as="targetPoint" />
          </mxGeometry>
        </mxCell>
        <mxCell id="evD2jb5UZzss43SjjIJm-31" value="" style="endArrow=none;html=1;rounded=0;entryX=0;entryY=1;entryDx=0;entryDy=0;exitX=0.75;exitY=0;exitDx=0;exitDy=0;" parent="1" source="evD2jb5UZzss43SjjIJm-5" target="evD2jb5UZzss43SjjIJm-26" edge="1">
          <mxGeometry width="50" height="50" relative="1" as="geometry">
            <mxPoint x="550" y="170" as="sourcePoint" />
            <mxPoint x="600" y="120" as="targetPoint" />
          </mxGeometry>
        </mxCell>
        <mxCell id="evD2jb5UZzss43SjjIJm-32" value="" style="endArrow=none;html=1;rounded=0;entryX=0;entryY=0.5;entryDx=0;entryDy=0;exitX=1;exitY=0.25;exitDx=0;exitDy=0;" parent="1" source="evD2jb5UZzss43SjjIJm-5" target="evD2jb5UZzss43SjjIJm-25" edge="1">
          <mxGeometry width="50" height="50" relative="1" as="geometry">
            <mxPoint x="550" y="170" as="sourcePoint" />
            <mxPoint x="600" y="120" as="targetPoint" />
          </mxGeometry>
        </mxCell>
        <mxCell id="evD2jb5UZzss43SjjIJm-33" value="" style="endArrow=none;html=1;rounded=0;entryX=0;entryY=0.5;entryDx=0;entryDy=0;exitX=1;exitY=0.5;exitDx=0;exitDy=0;" parent="1" source="evD2jb5UZzss43SjjIJm-5" target="evD2jb5UZzss43SjjIJm-24" edge="1">
          <mxGeometry width="50" height="50" relative="1" as="geometry">
            <mxPoint x="550" y="170" as="sourcePoint" />
            <mxPoint x="600" y="120" as="targetPoint" />
          </mxGeometry>
        </mxCell>
        <mxCell id="evD2jb5UZzss43SjjIJm-34" value="masach" style="ellipse;whiteSpace=wrap;html=1;" parent="1" vertex="1">
          <mxGeometry x="360" y="220" width="80" height="50" as="geometry" />
        </mxCell>
        <mxCell id="evD2jb5UZzss43SjjIJm-35" value="tieude" style="ellipse;whiteSpace=wrap;html=1;" parent="1" vertex="1">
          <mxGeometry x="350" y="280" width="80" height="50" as="geometry" />
        </mxCell>
        <mxCell id="evD2jb5UZzss43SjjIJm-36" value="tacgia" style="ellipse;whiteSpace=wrap;html=1;" parent="1" vertex="1">
          <mxGeometry x="345" y="340" width="80" height="50" as="geometry" />
        </mxCell>
        <mxCell id="evD2jb5UZzss43SjjIJm-37" value="nhaxuatban" style="ellipse;whiteSpace=wrap;html=1;" parent="1" vertex="1">
          <mxGeometry x="350" y="400" width="80" height="50" as="geometry" />
        </mxCell>
        <mxCell id="evD2jb5UZzss43SjjIJm-38" value="namsanxuat" style="ellipse;whiteSpace=wrap;html=1;" parent="1" vertex="1">
          <mxGeometry x="655" y="400" width="80" height="50" as="geometry" />
        </mxCell>
        <mxCell id="evD2jb5UZzss43SjjIJm-39" value="theloai" style="ellipse;whiteSpace=wrap;html=1;" parent="1" vertex="1">
          <mxGeometry x="655" y="220" width="80" height="50" as="geometry" />
        </mxCell>
        <mxCell id="evD2jb5UZzss43SjjIJm-40" value="trangthai" style="ellipse;whiteSpace=wrap;html=1;" parent="1" vertex="1">
          <mxGeometry x="670" y="280" width="80" height="50" as="geometry" />
        </mxCell>
        <mxCell id="evD2jb5UZzss43SjjIJm-41" value="ngaytao" style="ellipse;whiteSpace=wrap;html=1;" parent="1" vertex="1">
          <mxGeometry x="660" y="340" width="80" height="50" as="geometry" />
        </mxCell>
        <mxCell id="evD2jb5UZzss43SjjIJm-42" value="" style="endArrow=none;html=1;rounded=0;entryX=0;entryY=0.5;entryDx=0;entryDy=0;exitX=1;exitY=0;exitDx=0;exitDy=0;" parent="1" source="evD2jb5UZzss43SjjIJm-4" target="evD2jb5UZzss43SjjIJm-39" edge="1">
          <mxGeometry width="50" height="50" relative="1" as="geometry">
            <mxPoint x="570" y="340" as="sourcePoint" />
            <mxPoint x="620" y="290" as="targetPoint" />
          </mxGeometry>
        </mxCell>
        <mxCell id="evD2jb5UZzss43SjjIJm-43" value="" style="endArrow=none;html=1;rounded=0;entryX=0.028;entryY=0.36;entryDx=0;entryDy=0;exitX=1;exitY=0.5;exitDx=0;exitDy=0;entryPerimeter=0;" parent="1" target="evD2jb5UZzss43SjjIJm-40" edge="1">
          <mxGeometry width="50" height="50" relative="1" as="geometry">
            <mxPoint x="580" y="317.5" as="sourcePoint" />
            <mxPoint x="670" y="292.5" as="targetPoint" />
          </mxGeometry>
        </mxCell>
        <mxCell id="evD2jb5UZzss43SjjIJm-44" value="" style="endArrow=none;html=1;rounded=0;entryX=0;entryY=0.5;entryDx=0;entryDy=0;exitX=1;exitY=0.5;exitDx=0;exitDy=0;" parent="1" source="evD2jb5UZzss43SjjIJm-4" target="evD2jb5UZzss43SjjIJm-41" edge="1">
          <mxGeometry width="50" height="50" relative="1" as="geometry">
            <mxPoint x="570" y="340" as="sourcePoint" />
            <mxPoint x="620" y="290" as="targetPoint" />
          </mxGeometry>
        </mxCell>
        <mxCell id="evD2jb5UZzss43SjjIJm-45" value="" style="endArrow=none;html=1;rounded=0;entryX=0.063;entryY=0.2;entryDx=0;entryDy=0;entryPerimeter=0;exitX=1;exitY=1;exitDx=0;exitDy=0;" parent="1" source="evD2jb5UZzss43SjjIJm-4" target="evD2jb5UZzss43SjjIJm-38" edge="1">
          <mxGeometry width="50" height="50" relative="1" as="geometry">
            <mxPoint x="570" y="340" as="sourcePoint" />
            <mxPoint x="620" y="290" as="targetPoint" />
          </mxGeometry>
        </mxCell>
        <mxCell id="evD2jb5UZzss43SjjIJm-46" value="" style="endArrow=none;html=1;rounded=0;entryX=1;entryY=0.5;entryDx=0;entryDy=0;exitX=0;exitY=0;exitDx=0;exitDy=0;" parent="1" source="evD2jb5UZzss43SjjIJm-4" target="evD2jb5UZzss43SjjIJm-34" edge="1">
          <mxGeometry width="50" height="50" relative="1" as="geometry">
            <mxPoint x="570" y="340" as="sourcePoint" />
            <mxPoint x="620" y="290" as="targetPoint" />
          </mxGeometry>
        </mxCell>
        <mxCell id="evD2jb5UZzss43SjjIJm-47" value="" style="endArrow=none;html=1;rounded=0;entryX=1;entryY=0.5;entryDx=0;entryDy=0;exitX=0;exitY=0.25;exitDx=0;exitDy=0;" parent="1" source="evD2jb5UZzss43SjjIJm-4" target="evD2jb5UZzss43SjjIJm-35" edge="1">
          <mxGeometry width="50" height="50" relative="1" as="geometry">
            <mxPoint x="570" y="340" as="sourcePoint" />
            <mxPoint x="620" y="290" as="targetPoint" />
          </mxGeometry>
        </mxCell>
        <mxCell id="evD2jb5UZzss43SjjIJm-48" value="" style="endArrow=none;html=1;rounded=0;entryX=1;entryY=0.5;entryDx=0;entryDy=0;exitX=0;exitY=0.5;exitDx=0;exitDy=0;" parent="1" source="evD2jb5UZzss43SjjIJm-4" target="evD2jb5UZzss43SjjIJm-36" edge="1">
          <mxGeometry width="50" height="50" relative="1" as="geometry">
            <mxPoint x="570" y="340" as="sourcePoint" />
            <mxPoint x="620" y="290" as="targetPoint" />
          </mxGeometry>
        </mxCell>
        <mxCell id="evD2jb5UZzss43SjjIJm-49" value="" style="endArrow=none;html=1;rounded=0;entryX=1;entryY=0.5;entryDx=0;entryDy=0;exitX=0;exitY=1;exitDx=0;exitDy=0;" parent="1" source="evD2jb5UZzss43SjjIJm-4" target="evD2jb5UZzss43SjjIJm-37" edge="1">
          <mxGeometry width="50" height="50" relative="1" as="geometry">
            <mxPoint x="570" y="340" as="sourcePoint" />
            <mxPoint x="620" y="290" as="targetPoint" />
          </mxGeometry>
        </mxCell>
        <mxCell id="evD2jb5UZzss43SjjIJm-50" value="maphieunhap" style="ellipse;whiteSpace=wrap;html=1;" parent="1" vertex="1">
          <mxGeometry x="655" y="555" width="80" height="50" as="geometry" />
        </mxCell>
        <mxCell id="evD2jb5UZzss43SjjIJm-51" value="maNCC" style="ellipse;whiteSpace=wrap;html=1;" parent="1" vertex="1">
          <mxGeometry x="680" y="630" width="80" height="50" as="geometry" />
        </mxCell>
        <mxCell id="evD2jb5UZzss43SjjIJm-52" value="manv" style="ellipse;whiteSpace=wrap;html=1;" parent="1" vertex="1">
          <mxGeometry x="640" y="690" width="80" height="50" as="geometry" />
        </mxCell>
        <mxCell id="evD2jb5UZzss43SjjIJm-53" value="ngaynhap" style="ellipse;whiteSpace=wrap;html=1;" parent="1" vertex="1">
          <mxGeometry x="537.5" y="700" width="80" height="50" as="geometry" />
        </mxCell>
        <mxCell id="evD2jb5UZzss43SjjIJm-54" value="tongtien" style="ellipse;whiteSpace=wrap;html=1;" parent="1" vertex="1">
          <mxGeometry x="440" y="700" width="80" height="50" as="geometry" />
        </mxCell>
        <mxCell id="evD2jb5UZzss43SjjIJm-55" value="trangthai" style="ellipse;whiteSpace=wrap;html=1;" parent="1" vertex="1">
          <mxGeometry x="360" y="670" width="80" height="50" as="geometry" />
        </mxCell>
        <mxCell id="evD2jb5UZzss43SjjIJm-56" value="" style="endArrow=none;html=1;rounded=0;entryX=0;entryY=0.5;entryDx=0;entryDy=0;exitX=1;exitY=0.5;exitDx=0;exitDy=0;" parent="1" source="evD2jb5UZzss43SjjIJm-2" target="evD2jb5UZzss43SjjIJm-50" edge="1">
          <mxGeometry width="50" height="50" relative="1" as="geometry">
            <mxPoint x="570" y="640" as="sourcePoint" />
            <mxPoint x="620" y="590" as="targetPoint" />
          </mxGeometry>
        </mxCell>
        <mxCell id="evD2jb5UZzss43SjjIJm-57" value="" style="endArrow=none;html=1;rounded=0;entryX=0;entryY=0.5;entryDx=0;entryDy=0;exitX=1;exitY=0.75;exitDx=0;exitDy=0;" parent="1" source="evD2jb5UZzss43SjjIJm-2" target="evD2jb5UZzss43SjjIJm-51" edge="1">
          <mxGeometry width="50" height="50" relative="1" as="geometry">
            <mxPoint x="570" y="640" as="sourcePoint" />
            <mxPoint x="620" y="590" as="targetPoint" />
          </mxGeometry>
        </mxCell>
        <mxCell id="evD2jb5UZzss43SjjIJm-58" value="" style="endArrow=none;html=1;rounded=0;entryX=1;entryY=1;entryDx=0;entryDy=0;exitX=0;exitY=0;exitDx=0;exitDy=0;" parent="1" source="evD2jb5UZzss43SjjIJm-52" target="evD2jb5UZzss43SjjIJm-2" edge="1">
          <mxGeometry width="50" height="50" relative="1" as="geometry">
            <mxPoint x="570" y="640" as="sourcePoint" />
            <mxPoint x="620" y="590" as="targetPoint" />
          </mxGeometry>
        </mxCell>
        <mxCell id="evD2jb5UZzss43SjjIJm-59" value="" style="endArrow=none;html=1;rounded=0;entryX=0.75;entryY=1;entryDx=0;entryDy=0;exitX=0.5;exitY=0;exitDx=0;exitDy=0;" parent="1" source="evD2jb5UZzss43SjjIJm-53" target="evD2jb5UZzss43SjjIJm-2" edge="1">
          <mxGeometry width="50" height="50" relative="1" as="geometry">
            <mxPoint x="570" y="640" as="sourcePoint" />
            <mxPoint x="620" y="590" as="targetPoint" />
          </mxGeometry>
        </mxCell>
        <mxCell id="evD2jb5UZzss43SjjIJm-60" value="" style="endArrow=none;html=1;rounded=0;entryX=0.5;entryY=1;entryDx=0;entryDy=0;exitX=0.5;exitY=0;exitDx=0;exitDy=0;" parent="1" source="evD2jb5UZzss43SjjIJm-54" target="evD2jb5UZzss43SjjIJm-2" edge="1">
          <mxGeometry width="50" height="50" relative="1" as="geometry">
            <mxPoint x="570" y="640" as="sourcePoint" />
            <mxPoint x="620" y="590" as="targetPoint" />
          </mxGeometry>
        </mxCell>
        <mxCell id="evD2jb5UZzss43SjjIJm-61" value="" style="endArrow=none;html=1;rounded=0;entryX=0.25;entryY=1;entryDx=0;entryDy=0;exitX=0.5;exitY=0;exitDx=0;exitDy=0;" parent="1" source="evD2jb5UZzss43SjjIJm-55" target="evD2jb5UZzss43SjjIJm-2" edge="1">
          <mxGeometry width="50" height="50" relative="1" as="geometry">
            <mxPoint x="428.2842712474617" y="680.0023304703365" as="sourcePoint" />
            <mxPoint x="500" y="592.68" as="targetPoint" />
          </mxGeometry>
        </mxCell>
        <mxCell id="evD2jb5UZzss43SjjIJm-62" value="maNCC" style="ellipse;whiteSpace=wrap;html=1;" parent="1" vertex="1">
          <mxGeometry x="60" y="470" width="80" height="50" as="geometry" />
        </mxCell>
        <mxCell id="evD2jb5UZzss43SjjIJm-63" value="tenNCC" style="ellipse;whiteSpace=wrap;html=1;" parent="1" vertex="1">
          <mxGeometry x="-50" y="505" width="80" height="50" as="geometry" />
        </mxCell>
        <mxCell id="evD2jb5UZzss43SjjIJm-64" value="diachi" style="ellipse;whiteSpace=wrap;html=1;" parent="1" vertex="1">
          <mxGeometry x="-50" y="580" width="80" height="50" as="geometry" />
        </mxCell>
        <mxCell id="evD2jb5UZzss43SjjIJm-65" value="sdt" style="ellipse;whiteSpace=wrap;html=1;" parent="1" vertex="1">
          <mxGeometry x="60" y="650" width="80" height="50" as="geometry" />
        </mxCell>
        <mxCell id="evD2jb5UZzss43SjjIJm-66" value="" style="endArrow=none;html=1;rounded=0;entryX=1;entryY=1;entryDx=0;entryDy=0;exitX=0;exitY=0.25;exitDx=0;exitDy=0;" parent="1" source="evD2jb5UZzss43SjjIJm-3" target="evD2jb5UZzss43SjjIJm-63" edge="1">
          <mxGeometry width="50" height="50" relative="1" as="geometry">
            <mxPoint x="570" y="640" as="sourcePoint" />
            <mxPoint x="620" y="590" as="targetPoint" />
          </mxGeometry>
        </mxCell>
        <mxCell id="evD2jb5UZzss43SjjIJm-67" value="" style="endArrow=none;html=1;rounded=0;entryX=0.5;entryY=1;entryDx=0;entryDy=0;exitX=0.5;exitY=0;exitDx=0;exitDy=0;" parent="1" source="evD2jb5UZzss43SjjIJm-3" target="evD2jb5UZzss43SjjIJm-62" edge="1">
          <mxGeometry width="50" height="50" relative="1" as="geometry">
            <mxPoint x="570" y="640" as="sourcePoint" />
            <mxPoint x="620" y="590" as="targetPoint" />
          </mxGeometry>
        </mxCell>
        <mxCell id="evD2jb5UZzss43SjjIJm-68" value="" style="endArrow=none;html=1;rounded=0;entryX=1;entryY=0.5;entryDx=0;entryDy=0;exitX=0;exitY=0.5;exitDx=0;exitDy=0;" parent="1" source="evD2jb5UZzss43SjjIJm-3" target="evD2jb5UZzss43SjjIJm-64" edge="1">
          <mxGeometry width="50" height="50" relative="1" as="geometry">
            <mxPoint x="570" y="640" as="sourcePoint" />
            <mxPoint x="620" y="590" as="targetPoint" />
          </mxGeometry>
        </mxCell>
        <mxCell id="evD2jb5UZzss43SjjIJm-69" value="" style="endArrow=none;html=1;rounded=0;entryX=0.5;entryY=0;entryDx=0;entryDy=0;exitX=0.5;exitY=1;exitDx=0;exitDy=0;" parent="1" source="evD2jb5UZzss43SjjIJm-3" target="evD2jb5UZzss43SjjIJm-65" edge="1">
          <mxGeometry width="50" height="50" relative="1" as="geometry">
            <mxPoint x="570" y="640" as="sourcePoint" />
            <mxPoint x="620" y="590" as="targetPoint" />
          </mxGeometry>
        </mxCell>
        <mxCell id="evD2jb5UZzss43SjjIJm-70" value="" style="endArrow=none;html=1;rounded=0;exitX=1;exitY=0.5;exitDx=0;exitDy=0;" parent="1" source="evD2jb5UZzss43SjjIJm-1" edge="1">
          <mxGeometry width="50" height="50" relative="1" as="geometry">
            <mxPoint x="499" y="236" as="sourcePoint" />
            <mxPoint x="263" y="130" as="targetPoint" />
          </mxGeometry>
        </mxCell>
        <mxCell id="evD2jb5UZzss43SjjIJm-71" value="Có" style="rhombus;whiteSpace=wrap;html=1;" parent="1" vertex="1">
          <mxGeometry x="260" y="95" width="85" height="70" as="geometry" />
        </mxCell>
        <mxCell id="evD2jb5UZzss43SjjIJm-72" value="" style="endArrow=none;html=1;rounded=0;entryX=1;entryY=0.5;entryDx=0;entryDy=0;exitX=0;exitY=0.5;exitDx=0;exitDy=0;" parent="1" source="evD2jb5UZzss43SjjIJm-5" target="evD2jb5UZzss43SjjIJm-71" edge="1">
          <mxGeometry width="50" height="50" relative="1" as="geometry">
            <mxPoint x="499" y="236" as="sourcePoint" />
            <mxPoint x="549" y="186" as="targetPoint" />
          </mxGeometry>
        </mxCell>
        <mxCell id="evD2jb5UZzss43SjjIJm-73" value="" style="endArrow=none;html=1;rounded=0;entryX=0.5;entryY=1;entryDx=0;entryDy=0;exitX=0.5;exitY=0;exitDx=0;exitDy=0;" parent="1" source="evD2jb5UZzss43SjjIJm-74" target="evD2jb5UZzss43SjjIJm-5" edge="1">
          <mxGeometry width="50" height="50" relative="1" as="geometry">
            <mxPoint x="494" y="189" as="sourcePoint" />
            <mxPoint x="549" y="286" as="targetPoint" />
          </mxGeometry>
        </mxCell>
        <mxCell id="evD2jb5UZzss43SjjIJm-74" value="Mượn" style="rhombus;whiteSpace=wrap;html=1;" parent="1" vertex="1">
          <mxGeometry x="489" y="187" width="84.5" height="70" as="geometry" />
        </mxCell>
        <mxCell id="evD2jb5UZzss43SjjIJm-75" value="" style="endArrow=none;html=1;rounded=0;entryX=0.5;entryY=1;entryDx=0;entryDy=0;exitX=0.5;exitY=0;exitDx=0;exitDy=0;" parent="1" source="9gT-Wf_PZbFWmxFi9JFG-2" target="evD2jb5UZzss43SjjIJm-74" edge="1">
          <mxGeometry width="50" height="50" relative="1" as="geometry">
            <mxPoint x="499" y="336" as="sourcePoint" />
            <mxPoint x="549" y="286" as="targetPoint" />
          </mxGeometry>
        </mxCell>
        <mxCell id="evD2jb5UZzss43SjjIJm-76" value="" style="endArrow=none;html=1;rounded=0;exitX=0.5;exitY=1;exitDx=0;exitDy=0;" parent="1" source="-d716V-N6o52ry0kbRQc-4" target="evD2jb5UZzss43SjjIJm-77" edge="1">
          <mxGeometry width="50" height="50" relative="1" as="geometry">
            <mxPoint x="499" y="387" as="sourcePoint" />
            <mxPoint x="549" y="337" as="targetPoint" />
          </mxGeometry>
        </mxCell>
        <mxCell id="evD2jb5UZzss43SjjIJm-77" value="Có" style="rhombus;whiteSpace=wrap;html=1;" parent="1" vertex="1">
          <mxGeometry x="500" y="400" width="80" height="80" as="geometry" />
        </mxCell>
        <mxCell id="evD2jb5UZzss43SjjIJm-78" value="" style="endArrow=none;html=1;rounded=0;exitX=0.5;exitY=1;exitDx=0;exitDy=0;entryX=0.5;entryY=0;entryDx=0;entryDy=0;" parent="1" source="evD2jb5UZzss43SjjIJm-77" target="evD2jb5UZzss43SjjIJm-2" edge="1">
          <mxGeometry width="50" height="50" relative="1" as="geometry">
            <mxPoint x="499" y="512" as="sourcePoint" />
            <mxPoint x="549" y="462" as="targetPoint" />
          </mxGeometry>
        </mxCell>
        <mxCell id="evD2jb5UZzss43SjjIJm-79" value="Xuất" style="rhombus;whiteSpace=wrap;html=1;" parent="1" vertex="1">
          <mxGeometry x="273" y="540" width="80" height="80" as="geometry" />
        </mxCell>
        <mxCell id="evD2jb5UZzss43SjjIJm-80" value="" style="endArrow=none;html=1;rounded=0;exitX=0;exitY=0.5;exitDx=0;exitDy=0;entryX=1;entryY=0.5;entryDx=0;entryDy=0;" parent="1" source="evD2jb5UZzss43SjjIJm-2" target="evD2jb5UZzss43SjjIJm-79" edge="1">
          <mxGeometry width="50" height="50" relative="1" as="geometry">
            <mxPoint x="499" y="512" as="sourcePoint" />
            <mxPoint x="549" y="462" as="targetPoint" />
          </mxGeometry>
        </mxCell>
        <mxCell id="evD2jb5UZzss43SjjIJm-81" value="" style="endArrow=none;html=1;rounded=0;exitX=0;exitY=0.5;exitDx=0;exitDy=0;entryX=1;entryY=0.5;entryDx=0;entryDy=0;" parent="1" source="evD2jb5UZzss43SjjIJm-79" target="evD2jb5UZzss43SjjIJm-3" edge="1">
          <mxGeometry width="50" height="50" relative="1" as="geometry">
            <mxPoint x="499" y="512" as="sourcePoint" />
            <mxPoint x="549" y="462" as="targetPoint" />
          </mxGeometry>
        </mxCell>
        <mxCell id="ZIRPCD1Xzb5lANmiXcxM-3" value="" style="shape=partialRectangle;whiteSpace=wrap;html=1;top=0;bottom=0;fillColor=none;" parent="1" vertex="1">
          <mxGeometry x="454" y="120" width="9" height="24" as="geometry" />
        </mxCell>
        <mxCell id="ZIRPCD1Xzb5lANmiXcxM-10" value="" style="shape=partialRectangle;whiteSpace=wrap;html=1;top=0;bottom=0;fillColor=none;" parent="1" vertex="1">
          <mxGeometry x="185.5" y="116" width="9" height="24" as="geometry" />
        </mxCell>
        <mxCell id="9gT-Wf_PZbFWmxFi9JFG-1" value="" style="shape=partialRectangle;whiteSpace=wrap;html=1;top=0;bottom=0;fillColor=none;rotation=80;" parent="1" vertex="1">
          <mxGeometry x="520.5" y="157" width="9" height="24" as="geometry" />
        </mxCell>
        <mxCell id="9gT-Wf_PZbFWmxFi9JFG-3" value="" style="endArrow=none;html=1;rounded=0;entryX=0.5;entryY=1;entryDx=0;entryDy=0;exitX=0.5;exitY=0;exitDx=0;exitDy=0;" parent="1" source="evD2jb5UZzss43SjjIJm-4" target="9gT-Wf_PZbFWmxFi9JFG-2" edge="1">
          <mxGeometry width="50" height="50" relative="1" as="geometry">
            <mxPoint x="540" y="310" as="sourcePoint" />
            <mxPoint x="531" y="257" as="targetPoint" />
          </mxGeometry>
        </mxCell>
        <mxCell id="9gT-Wf_PZbFWmxFi9JFG-2" value="" style="verticalLabelPosition=bottom;verticalAlign=top;html=1;shape=mxgraph.basic.acute_triangle;dx=0.5;" parent="1" vertex="1">
          <mxGeometry x="511" y="283" width="50" height="27" as="geometry" />
        </mxCell>
        <mxCell id="9gT-Wf_PZbFWmxFi9JFG-4" value="" style="endArrow=none;html=1;rounded=0;" parent="1" edge="1">
          <mxGeometry width="50" height="50" relative="1" as="geometry">
            <mxPoint x="520" y="283" as="sourcePoint" />
            <mxPoint x="554" y="283" as="targetPoint" />
          </mxGeometry>
        </mxCell>
        <mxCell id="-d716V-N6o52ry0kbRQc-1" value="" style="shape=partialRectangle;whiteSpace=wrap;html=1;top=0;bottom=0;fillColor=none;rotation=90;" parent="1" vertex="1">
          <mxGeometry x="535.5" y="536" width="9" height="24" as="geometry" />
        </mxCell>
        <mxCell id="-d716V-N6o52ry0kbRQc-5" value="" style="endArrow=none;html=1;rounded=0;exitX=0.5;exitY=1;exitDx=0;exitDy=0;" parent="1" source="evD2jb5UZzss43SjjIJm-4" target="-d716V-N6o52ry0kbRQc-4" edge="1">
          <mxGeometry width="50" height="50" relative="1" as="geometry">
            <mxPoint x="540" y="350" as="sourcePoint" />
            <mxPoint x="540" y="400" as="targetPoint" />
          </mxGeometry>
        </mxCell>
        <mxCell id="-d716V-N6o52ry0kbRQc-4" value="" style="verticalLabelPosition=bottom;verticalAlign=top;html=1;shape=mxgraph.basic.acute_triangle;dx=0.5;rotation=-180;" parent="1" vertex="1">
          <mxGeometry x="518" y="351" width="44" height="28" as="geometry" />
        </mxCell>
        <mxCell id="-d716V-N6o52ry0kbRQc-6" value="" style="endArrow=none;html=1;rounded=0;" parent="1" edge="1">
          <mxGeometry width="50" height="50" relative="1" as="geometry">
            <mxPoint x="523" y="379" as="sourcePoint" />
            <mxPoint x="557" y="379" as="targetPoint" />
          </mxGeometry>
        </mxCell>
        <mxCell id="CIpACkAZOa2yznhlrTH6-1" value="" style="shape=partialRectangle;whiteSpace=wrap;html=1;top=0;bottom=0;fillColor=none;rotation=0;" parent="1" vertex="1">
          <mxGeometry x="150" y="566" width="9" height="24" as="geometry" />
        </mxCell>
        <mxCell id="2ytaX1Nmo_4KGOj5sYRj-1" value="" style="verticalLabelPosition=bottom;verticalAlign=top;html=1;shape=mxgraph.basic.acute_triangle;dx=0.5;rotation=-90;" parent="1" vertex="1">
          <mxGeometry x="463" y="561.5" width="41" height="37" as="geometry" />
        </mxCell>
        <mxCell id="2ytaX1Nmo_4KGOj5sYRj-8" value="" style="endArrow=none;html=1;rounded=0;" parent="1" edge="1">
          <mxGeometry width="50" height="50" relative="1" as="geometry">
            <mxPoint x="462" y="565.75" as="sourcePoint" />
            <mxPoint x="462" y="594.25" as="targetPoint" />
          </mxGeometry>
        </mxCell>
        <mxCell id="iNvaYf-_sgJBvL2JF8Pf-2" value="" style="endArrow=none;html=1;rounded=0;" edge="1" parent="1">
          <mxGeometry width="50" height="50" relative="1" as="geometry">
            <mxPoint x="-63" y="104" as="sourcePoint" />
            <mxPoint x="-5" y="104" as="targetPoint" />
          </mxGeometry>
        </mxCell>
        <mxCell id="iNvaYf-_sgJBvL2JF8Pf-3" value="" style="endArrow=none;html=1;rounded=0;" edge="1" parent="1">
          <mxGeometry width="50" height="50" relative="1" as="geometry">
            <mxPoint x="405" y="49.68" as="sourcePoint" />
            <mxPoint x="446" y="49.68" as="targetPoint" />
          </mxGeometry>
        </mxCell>
        <mxCell id="iNvaYf-_sgJBvL2JF8Pf-4" value="" style="endArrow=none;html=1;rounded=0;" edge="1" parent="1">
          <mxGeometry width="50" height="50" relative="1" as="geometry">
            <mxPoint x="379.5" y="254" as="sourcePoint" />
            <mxPoint x="420.5" y="254" as="targetPoint" />
          </mxGeometry>
        </mxCell>
        <mxCell id="iNvaYf-_sgJBvL2JF8Pf-5" value="" style="endArrow=none;html=1;rounded=0;" edge="1" parent="1">
          <mxGeometry width="50" height="50" relative="1" as="geometry">
            <mxPoint x="665.5" y="589.35" as="sourcePoint" />
            <mxPoint x="724.5" y="589.35" as="targetPoint" />
          </mxGeometry>
        </mxCell>
        <mxCell id="iNvaYf-_sgJBvL2JF8Pf-6" value="" style="endArrow=none;html=1;rounded=0;" edge="1" parent="1">
          <mxGeometry width="50" height="50" relative="1" as="geometry">
            <mxPoint x="78" y="505" as="sourcePoint" />
            <mxPoint x="122" y="505" as="targetPoint" />
          </mxGeometry>
        </mxCell>
      </root>
    </mxGraphModel>
  </diagram>
</mxfile>
